<?xml version="1.0" encoding="utf-8"?>
<!-- Generator: Adobe Illustrator 17.0.0, SVG Export Plug-In . SVG Version: 6.00 Build 0)  -->
<!DOCTYPE svg PUBLIC "-//W3C//DTD SVG 1.1//EN" "http://www.w3.org/Graphics/SVG/1.1/DTD/svg11.dtd">
<svg version="1.1" id="Layer_1" xmlns="http://www.w3.org/2000/svg" xmlns:xlink="http://www.w3.org/1999/xlink" x="0px" y="0px"
	 width="600px" height="200px" viewBox="0 0 600 200" enable-background="new 0 0 600 200" xml:space="preserve">
<g>
	<path fill="#333333" d="M211.549,125.997H188.75v40.399h-30V33.198h54.399c32.399,0,44.399,12.8,44.399,37.799v17.399
		C257.548,113.397,243.949,125.997,211.549,125.997z M227.549,73.797c0-9.6-3.4-14-16-14H188.75v40.199h22.799c13.2,0,16-5,16-14.6
		V73.797z"/>
	<path fill="#333333" d="M276.55,62.397h75.198v23.6h-45.6v15.8h42v23.6h-42v17.4h45.6v23.6H276.55V62.397z"/>
	<path fill="#333333" d="M423.547,138.596h-17.199v27.8h-29.6V62.397h49.599c29,0,38.2,11.2,38.2,31v14c0,12-3.4,18.6-12.4,25
		l22.8,34h-32.999L423.547,138.596z M425.547,86.197h-19.199v29.2h19.199c7.4,0,10.2-3,10.2-9v-11.6
		C435.747,88.997,432.947,86.197,425.547,86.197z"/>
	<path fill="#333333" d="M550.146,150.796h-35.8l-4.4,15.6h-28.999l32.999-103.999h36.399l33.2,103.999h-29L550.146,150.796z
		 M520.945,127.796h22.6l-11.399-41.399L520.945,127.796z"/>
</g>
<g>
	<path fill="#005566" d="M122.395,61.317c7.713,0,12.342-1.029,16.456-5.485c1.028-0.171,4.457,2.571,4.628,3.942
		c-2.4,11.656-8.914,20.57-12.342,23.484c-3.428,2.571-13.713,2.571-20.57,2.571c-0.686,0-1.542,0.686-1.885,1.714
		c-0.686,2.743-1.543,19.885-1.543,30.684c0.343,19.199,5.485,21.77,13.199,21.77c5.485,0,10.799-1.542,15.428-4.457
		c0.514,0,1.542,1.2,1.714,2.4c0.343,1.542-0.857,6.685-1.371,7.713c-7.885,17.485-21.084,24.513-30.684,24.513
		c-7.028,0-13.542-5.828-13.542-25.027c0-13.713,2.742-45.083,3.942-59.825c-8.399-0.343-23.142-0.514-23.827-0.514
		c-0.514,0-1.714,0.686-1.714,1.714c-1.029,17.313-2.057,46.968-6,60.339c-4.114,15.084-12.856,23.484-16.97,23.484
		c-9.256,0-19.027-8.399-21.084-16.285c-0.515-1.028-0.171-4.971,0.343-5.485c11.999-4.457,25.027-8.056,27.427-18.513
		c2.057-9.942,2.571-28.97,3.085-45.597c-2.057-0.171-4.628-0.171-8.228-0.171c-13.371,0-20.399,3.428-28.284,14.742
		c-1.372,0.343-7.2-3.942-7.2-5.314c8.399-17.484,19.884-33.426,47.482-33.426C79.711,60.289,104.91,61.317,122.395,61.317z"/>
</g>
</svg>
