<?xml version="1.0" encoding="utf-8"?>
<!-- Generator: Adobe Illustrator 19.1.1, SVG Export Plug-In . SVG Version: 6.00 Build 0)  -->
<svg version="1.1" id="Layer_1" xmlns="http://www.w3.org/2000/svg" xmlns:xlink="http://www.w3.org/1999/xlink" x="0px" y="0px"
	 viewBox="-319 121 320 320" style="enable-background:new -319 121 320 320;" xml:space="preserve">
<g id="ins_outline">
	<path style="fill:none;stroke:#326D95;stroke-width:4;stroke-miterlimit:10;" d="M-238.2,174.5h158.3c15,0,27.3,12.3,27.3,27.3
		v158.3c0,15-12.3,27.3-27.3,27.3h-158.3c-15,0-27.3-12.3-27.3-27.3V201.8C-265.5,186.8-253.2,174.5-238.2,174.5L-238.2,174.5z
		 M-110.3,198.2c-5.3,0-9.6,4.3-9.6,9.6v23c0,5.3,4.3,9.6,9.6,9.6h24.1c5.3,0,9.6-4.3,9.6-9.6v-23c0-5.3-4.3-9.6-9.6-9.6H-110.3
		L-110.3,198.2z M-76.6,264.6h-18.7c1.8,5.8,2.7,11.9,2.7,18.3c0,35.4-29.6,64.1-66.2,64.1s-66.2-28.7-66.2-64.1
		c0-6.4,1-12.5,2.7-18.3h-19.5v90c0,4.7,3.8,8.5,8.5,8.5H-85c4.7,0,8.5-3.8,8.5-8.5v-90H-76.6z M-158.8,239.1
		c-23.6,0-42.8,18.6-42.8,41.4c0,22.9,19.2,41.4,42.8,41.4s42.8-18.6,42.8-41.4C-116,257.6-135.2,239.1-158.8,239.1z"/>
</g>
</svg>
