<?xml version="1.0" encoding="utf-8"?>
<!-- Generator: Adobe Illustrator 19.1.1, SVG Export Plug-In . SVG Version: 6.00 Build 0)  -->
<svg version="1.1" id="Layer_1" xmlns="http://www.w3.org/2000/svg" xmlns:xlink="http://www.w3.org/1999/xlink" x="0px" y="0px"
	 viewBox="-319 121 320 320" style="enable-background:new -319 121 320 320;" xml:space="preserve">
<g id="tw_dark">
	<g id="Livello_x0020_1_1_">
		<path style="fill:none;stroke:#5F686B;stroke-width:4;stroke-linecap:round;stroke-linejoin:round;stroke-miterlimit:10;" d="
			M-38,211c-8.9,3.9-18.5,6.6-28.6,7.8c10.3-6.1,18.1-15.9,21.8-27.5c-9.6,5.7-20.2,9.8-31.6,12.1c-9.1-9.7-22-15.7-36.3-15.7
			c-27.4,0-49.7,22.3-49.7,49.7c0,3.9,0.4,7.7,1.3,11.3c-41.3-2.1-77.9-21.9-102.4-51.9c-4.3,7.3-6.7,15.9-6.7,25
			c0,17.2,8.8,32.5,22.1,41.4c-8.1-0.3-15.8-2.5-22.5-6.2c0,0.2,0,0.4,0,0.6c0,24.1,17.1,44.2,39.9,48.7c-4.2,1.1-8.6,1.7-13.1,1.7
			c-3.2,0-6.3-0.3-9.4-0.9c6.3,19.7,24.7,34.1,46.4,34.5c-17,13.3-38.4,21.3-61.7,21.3c-4,0-8-0.3-11.9-0.7
			c22,14.1,48.1,22.3,76.2,22.3c91.4,0,141.4-75.7,141.4-141.4c0-2.2,0-4.3-0.1-6.4C-53.1,229.6-44.7,220.9-38,211L-38,211z"/>
	</g>
</g>
</svg>
