<?xml version="1.0" encoding="utf-8"?>
<!-- Generator: Adobe Illustrator 19.1.1, SVG Export Plug-In . SVG Version: 6.00 Build 0)  -->
<svg version="1.1" id="Layer_1" xmlns="http://www.w3.org/2000/svg" xmlns:xlink="http://www.w3.org/1999/xlink" x="0px" y="0px"
	 viewBox="-319 121 320 320" style="enable-background:new -319 121 320 320;" xml:space="preserve">
<g id="tube_solid">
	<g id="Lozenge_6_">
		<g>
			<path style="fill:#E62D27;" d="M-44.3,234.2c0,0-2.3-16.1-9.3-23.2c-8.9-9.3-18.9-9.4-23.4-9.9c-32.7-2.4-81.9-2.4-81.9-2.4h-0.1
				c0,0-49.1,0-81.9,2.4c-4.6,0.5-14.5,0.6-23.4,9.9c-7,7.1-9.3,23.2-9.3,23.2s-2.4,19-2.4,37.9v17.8c0,18.9,2.3,37.9,2.3,37.9
				s2.3,16.1,9.3,23.2c8.9,9.3,20.6,9,25.8,10c18.7,1.8,79.6,2.4,79.6,2.4s49.2-0.1,81.9-2.4c4.6-0.5,14.5-0.6,23.4-9.9
				c7-7.1,9.3-23.2,9.3-23.2s2.3-18.9,2.3-37.9v-17.8C-42,253.2-44.3,234.2-44.3,234.2z M-183.2,311.4v-65.7l63.2,33L-183.2,311.4z"
				/>
		</g>
		<g>
			<path style="fill:none;stroke:#E62D27;stroke-width:4;stroke-linecap:round;stroke-linejoin:round;stroke-miterlimit:10;" d="
				M-44.3,234.2c0,0-2.3-16.1-9.3-23.2c-8.9-9.3-18.9-9.4-23.4-9.9c-32.7-2.4-81.9-2.4-81.9-2.4h-0.1c0,0-49.1,0-81.9,2.4
				c-4.6,0.5-14.5,0.6-23.4,9.9c-7,7.1-9.3,23.2-9.3,23.2s-2.4,19-2.4,37.9v17.8c0,18.9,2.3,37.9,2.3,37.9s2.3,16.1,9.3,23.2
				c8.9,9.3,20.6,9,25.8,10c18.7,1.8,79.6,2.4,79.6,2.4s49.2-0.1,81.9-2.4c4.6-0.5,14.5-0.6,23.4-9.9c7-7.1,9.3-23.2,9.3-23.2
				s2.3-18.9,2.3-37.9v-17.8C-42,253.2-44.3,234.2-44.3,234.2z M-183.2,311.4v-65.7l63.2,33L-183.2,311.4z"/>
		</g>
	</g>
</g>
</svg>
