<?xml version="1.0" encoding="utf-8"?>
<!-- Generator: Adobe Illustrator 20.0.0, SVG Export Plug-In . SVG Version: 6.00 Build 0)  -->
<svg version="1.1" id="Layer_1" xmlns="http://www.w3.org/2000/svg" xmlns:xlink="http://www.w3.org/1999/xlink" x="0px" y="0px"
	 viewBox="0 0 320 320" style="enable-background:new 0 0 320 320;" xml:space="preserve">
<g id="ggl_solid">
	<g>
		<path style="fill:#DC4E41;" d="M31.2,156.4c0.7-42.2,39.5-79.1,81.7-77.8c20.2-0.9,39.2,7.8,54.7,20.2
			c-6.6,7.5-13.5,14.7-20.8,21.5c-18.6-12.9-45.1-16.5-63.7-1.7c-26.6,18.4-27.9,61.9-2.2,81.8c24.9,22.6,72,11.4,78.9-23.2
			c-15.6-0.3-31.3,0-46.8-0.5c-0.1-9.3-0.1-18.6-0.1-27.9c26.1-0.1,52.2-0.1,78.3,0.1c1.6,21.9-1.3,45.2-14.8,63.3
			c-20.4,28.7-61.3,37-93.2,24.8C51.2,224.7,28.5,190.9,31.2,156.4z"/>
		<path style="fill:#DC4E41;" d="M242.2,125.2c7.7,0,15.5,0,23.3,0c0.1,7.8,0.1,15.6,0.1,23.4c7.8,0.1,15.6,0.1,23.4,0.1
			c0,7.7,0,15.5,0,23.3c-7.8,0.1-15.6,0.1-23.4,0.2c-0.1,7.8-0.1,15.6-0.1,23.4c-7.8,0-15.5,0-23.3,0c-0.1-7.8-0.1-15.6-0.1-23.4
			c-7.8-0.1-15.6-0.1-23.4-0.3c0-7.7,0-15.5,0-23.3c7.8-0.1,15.6-0.1,23.4-0.1C242,140.8,242.1,133,242.2,125.2z"/>
	</g>
</g>
</svg>
