<?xml version="1.0" encoding="utf-8"?>
<!-- Generator: Adobe Illustrator 19.1.1, SVG Export Plug-In . SVG Version: 6.00 Build 0)  -->
<svg version="1.1" id="Layer_1" xmlns="http://www.w3.org/2000/svg" xmlns:xlink="http://www.w3.org/1999/xlink" x="0px" y="0px"
	 viewBox="-319 121 320 320" style="enable-background:new -319 121 320 320;" xml:space="preserve">
<g id="tmb_outline">
	<g>
		<g>
			<path style="fill:none;stroke:#2A445F;stroke-width:4;stroke-miterlimit:22.9256;" d="M-159,160.8
				c-66.4,0-120.2,53.8-120.2,120.2s53.8,120.2,120.2,120.2S-38.8,347.4-38.8,281S-92.6,160.8-159,160.8z M-115.8,347.6
				c-14.4,3.7-28.9,6.1-43.8,4.2c-5.2-0.7-10.1-2.1-14.6-5c-7-4.5-10.5-11.1-10.6-19.3c-0.2-9.3,0-18.5,0-27.8l0,0
				c0-9.5,0-19,0-28.5c0-1.8-0.6-2.3-2.3-2.2c-4.6,0.1-9.3,0-13.9,0.1c-1.7,0-2.4-0.3-2.3-2.2c0.1-4.9,0.1-9.7,0-14.6
				c0-1.5,0.5-2.2,1.8-2.9c8.4-4,15.5-9.5,20.7-17.2c4.3-6.3,6.7-13.2,6.9-20.8c0.1-1.9,0.6-2.3,2.3-2.2c4.7,0.1,9.4,0.1,14.1,0
				c1.8,0,2.3,0.5,2.3,2.3c-0.1,10.9,0,21.7-0.1,32.6c0,2,0.5,2.5,2.5,2.5c10.7-0.1,21.4,0.1,32.1-0.1c2.1,0,2.5,0.6,2.5,2.5
				c-0.1,6-0.1,12,0,18c0,1.8-0.6,2.1-2.2,2.1c-10.8-0.1-21.5,0-32.3-0.1c-1.9,0-2.6,0.3-2.6,2.4c0.1,13.8,0,27.6,0.1,41.4
				c0,1.6,0.1,3.2,0.4,4.8c1.4,8,7.2,12.9,15.3,13.1c7.8,0.2,15.1-2.1,22.2-5c2.6-1,2.6-1,2.6,1.7c0,6,0,12,0,18
				C-114.5,346.5-114.6,347.2-115.8,347.6z"/>
		</g>
	</g>
</g>
</svg>
