<?xml version="1.0" encoding="utf-8"?>
<!-- Generator: Adobe Illustrator 19.2.1, SVG Export Plug-In . SVG Version: 6.00 Build 0)  -->
<svg version="1.1" id="Layer_1" xmlns="http://www.w3.org/2000/svg" xmlns:xlink="http://www.w3.org/1999/xlink" x="0px" y="0px"
	 viewBox="0 0 320 320" style="enable-background:new 0 0 320 320;" xml:space="preserve">
<style type="text/css">
	.st0{display:none;}
	.st1{display:inline;fill:#00434A;}
	.st2{display:inline;fill:none;stroke:#F2F4F4;stroke-width:2;stroke-miterlimit:10;}
	.st3{display:inline;fill:none;stroke:#F2F4F4;stroke-miterlimit:10;}
	.st4{display:inline;fill:none;stroke:#F2F4F4;stroke-width:2;stroke-linecap:square;stroke-miterlimit:10;}
	.st5{display:inline;}
	.st6{fill:none;stroke:#F2F4F4;stroke-miterlimit:10;}
	.st7{fill:none;stroke:#F2F4F4;stroke-width:2;stroke-miterlimit:10;}
	.st8{display:inline;fill:none;stroke:#F2F4F4;stroke-width:2;stroke-linecap:round;stroke-linejoin:round;stroke-miterlimit:10;}
	.st9{font-family:'BellMT';}
	.st10{font-size:120px;}
	.st11{fill:none;stroke:#F2F4F4;stroke-width:2;stroke-linecap:round;stroke-linejoin:round;stroke-miterlimit:10;}
	.st12{fill:none;stroke:#5F686B;stroke-width:4;stroke-miterlimit:10;}
	.st13{fill:none;stroke:#5F686B;stroke-width:4;stroke-linecap:round;stroke-linejoin:round;stroke-miterlimit:10;}
	.st14{display:inline;fill:none;stroke:#5F686B;stroke-width:4;stroke-linecap:round;stroke-linejoin:round;stroke-miterlimit:10;}
	.st15{fill:none;stroke:#F2F4F4;stroke-width:4;stroke-miterlimit:10;}
	.st16{fill:none;stroke:#F2F4F4;stroke-width:4;stroke-linecap:round;stroke-linejoin:round;stroke-miterlimit:10;}
	.st17{fill:none;stroke:#FFFFFF;stroke-width:8;stroke-linecap:round;stroke-linejoin:round;stroke-miterlimit:10;}
	.st18{display:inline;fill:none;stroke:#F2F4F4;stroke-width:4;stroke-linecap:round;stroke-linejoin:round;stroke-miterlimit:10;}
	.st19{fill:none;stroke:#3B5998;stroke-width:4;stroke-miterlimit:10;}
	.st20{fill:none;stroke:#33CCFF;stroke-width:4;stroke-linecap:round;stroke-linejoin:round;stroke-miterlimit:10;}
	.st21{fill:none;stroke:#E62D27;stroke-width:4;stroke-linecap:round;stroke-linejoin:round;stroke-miterlimit:10;}
	.st22{display:inline;fill:none;stroke:#326D95;stroke-width:4;stroke-miterlimit:10;}
	.st23{fill:none;stroke:#2A445F;stroke-width:4;stroke-miterlimit:22.9256;}
	.st24{display:inline;fill:none;stroke:#FF4E00;stroke-width:4;stroke-linecap:round;stroke-linejoin:round;stroke-miterlimit:10;}
	.st25{fill:#3B5998;stroke:#3B5998;stroke-width:4;stroke-miterlimit:10;}
	.st26{fill:#33CCFF;stroke:#33CCFF;stroke-width:4;stroke-linecap:round;stroke-linejoin:round;stroke-miterlimit:10;}
	.st27{fill:#E62D27;}
	.st28{display:inline;fill:#326D95;stroke:#326D95;stroke-width:4;stroke-miterlimit:10;}
	.st29{fill:#2A445F;}
	
		.st30{display:inline;fill:#FF4E00;stroke:#FF4E00;stroke-width:4;stroke-linecap:round;stroke-linejoin:round;stroke-miterlimit:10;}
	.st31{fill:#AFE05A;stroke:#648740;stroke-width:4;stroke-linecap:round;stroke-linejoin:round;stroke-miterlimit:10;}
	.st32{display:inline;fill:#FCEF4C;}
	.st33{display:inline;fill:#D39322;}
	.st34{display:inline;fill:#8FC935;}
	
		.st35{display:inline;fill:#94DCF2;stroke:#186493;stroke-width:4;stroke-linecap:round;stroke-linejoin:round;stroke-miterlimit:10;}
	.st36{fill:#186493;}
	.st37{display:inline;fill:none;stroke:#A8B9BD;stroke-width:24;stroke-linecap:round;stroke-linejoin:round;stroke-miterlimit:10;}
	.st38{display:inline;fill:none;stroke:#A8B9BD;stroke-width:48;stroke-linecap:round;stroke-linejoin:round;stroke-miterlimit:10;}
</style>
<g id="palette">
</g>
<g id="Layer_14" class="st0">
	<rect class="st1" width="320" height="320"/>
</g>
<g id="video" class="st0">
	<circle class="st2" cx="160" cy="160" r="120.3"/>
	<polygon class="st2" points="112.7,250.5 112.7,69.5 246.3,160 	"/>
</g>
<g id="cars" class="st0">
	<path class="st2" d="M245.4,201.3c0,0,7.1,6.8,16.6,9.3s10.3,1.1,10.3,1.1c7.8-15.7,12.2-32.1,12.2-51.8s-4.5-36.3-12.3-52
		c0,0-0.8-1.5-10.3,1s-16.5,9.5-16.5,9.5"/>
	<path class="st2" d="M74.4,201.3c0,0-7.1,6.8-16.6,9.3s-10.3,1.1-10.3,1.1c-7.8-15.7-12.1-32-12.1-51.7s4.5-36.3,12.3-52
		c0,0,0.8-1.5,10.3,1s16.5,9.5,16.5,9.5"/>
	<path class="st2" d="M51.5,108C70.9,67.6,112.2,39.7,160,39.7s89.1,27.9,108.5,68.3"/>
	<path class="st2" d="M268.5,212.1c-19.4,40.3-60.7,68.2-108.5,68.2s-89-27.8-108.5-68.2"/>
	<circle class="st3" cx="160" cy="160" r="25.3"/>
	<circle class="st3" cx="160" cy="160" r="95"/>
	<circle class="st2" cx="160" cy="160" r="89"/>
	<circle class="st2" cx="160" cy="160" r="30.5"/>
	<path class="st2" d="M181.5,138.3c0,0,44.4,3.2,51.5,1.4c7.5-1.9,12.4-5,12.4-5"/>
	<path class="st2" d="M185.3,177.1c0,0,37.2-9.9,48.7-11.7c9.5-1.4,14.4,4.8,14.4,4.8"/>
	<path class="st2" d="M138.4,138.3c0,0-44.4,3.2-51.5,1.4c-7.5-1.9-12.4-5-12.4-5"/>
	<path class="st2" d="M134.6,177.1c0,0-37.2-9.9-48.7-11.7c-9.5-1.4-14.4,4.8-14.4,4.8"/>
	<path class="st3" d="M182.7,180.1c0,0,38.1-9.9,49.9-11.7c9.7-1.4,14.8,4.8,14.8,4.8"/>
	<path class="st3" d="M137.5,180.1c0,0-38.3-9.9-50.1-11.7c-9.8-1.4-14.8,4.8-14.8,4.8"/>
	<rect x="139.5" y="152.5" class="st3" width="41.9" height="15"/>
</g>
<g id="news" class="st0">
	<rect x="50" y="66" class="st2" width="115.7" height="32"/>
	<rect x="144.7" y="144" class="st2" width="125.3" height="84"/>
	<line class="st4" x1="50" y1="43" x2="270" y2="43"/>
	<line class="st4" x1="50" y1="121" x2="270" y2="121"/>
	<line class="st4" x1="50" y1="251" x2="270" y2="251"/>
	<line class="st4" x1="182" y1="69" x2="270" y2="69"/>
	<line class="st4" x1="182" y1="95" x2="270" y2="95"/>
	<line class="st4" x1="50" y1="147" x2="133" y2="147"/>
	<line class="st4" x1="50" y1="173" x2="133" y2="173"/>
	<line class="st4" x1="50" y1="199" x2="133" y2="199"/>
	<line class="st4" x1="50" y1="225" x2="133" y2="225"/>
	<line class="st4" x1="50" y1="277" x2="186" y2="277"/>
</g>
<g id="stories" class="st0">
	
		<rect x="64.4" y="137.9" transform="matrix(0.7071 -0.7071 0.7071 0.7071 -59.7619 162.7016)" class="st2" width="204.2" height="31.1"/>
	<polyline class="st2" points="252.6,95.2 258.1,100.6 113.7,245 108.3,239.6 	"/>
	<polyline class="st2" points="80.4,211.7 75,206.3 219.4,61.9 224.8,67.4 	"/>
	<polygon class="st2" points="51.8,268.2 68.8,212.5 107.5,251.2 	"/>
	
		<rect x="240.1" y="43.3" transform="matrix(0.7071 -0.7071 0.7071 0.7071 23.1277 197.0493)" class="st2" width="18.6" height="54.7"/>
</g>
<g id="home" class="st0">
	<polygon class="st2" points="268.5,269.5 51.5,269.5 51.5,128.5 160,57.5 268.5,128.5 	"/>
	<polygon class="st2" points="27,120.5 160,33.5 293,120.5 289,127.2 160,42.8 31,127.2 	"/>
	<polyline class="st2" points="119.5,269.5 119.5,142 200.5,142 200.5,269.5 	"/>
</g>
<g id="member" class="st0">
	<path class="st2" d="M59,140c14.9-54.1,53.6-95,110.7-95C236.2,44.9,279,82.5,279,149c0,31-22.1,54.3-74,81.3
		c-65.5,34.2-131.7,40-131.7,40L63,259c0,0-5.5-30.5-3.3-55.5"/>
	<path class="st2" d="M53.7,139.5c0,0,23.3-0.8,42-3s107.5-18,107.5-18l8.9,26.8c0,0-97.1,74.4-123,77.8c-11.8,1.5-19-6.1-20.5-12.5
		c-1.4-5.9-16-9.7-16-9.7L53.7,139.5z"/>
	<circle class="st2" cx="192" cy="138" r="12"/>
	<path class="st3" d="M93.5,134c0,0,5.5-32.5,31.5-55.5S177.8,47,214,58c35.2,10.7,48,35.1,48,35.1"/>
	<line class="st3" x1="85.5" y1="227" x2="85.5" y2="255"/>
	<path class="st2" d="M68.5,260c0,0,60.1-7.8,114-28.5c57.6-22.1,83-52,83-52"/>
	<line class="st3" x1="75.5" y1="141" x2="75.5" y2="215"/>
	<line class="st3" x1="124" y1="136.5" x2="132.2" y2="196"/>
</g>
<g id="contact" class="st0">
	<rect x="40" y="87" class="st2" width="241" height="146"/>
	<polyline class="st2" points="281,87 160.5,181 40,87 	"/>
	<polyline class="st3" points="263.7,87.4 160.5,167.9 57.3,87.4 	"/>
	<line class="st2" x1="133.5" y1="160" x2="40" y2="233"/>
	<line class="st2" x1="281" y1="233" x2="187.5" y2="160"/>
	<line class="st3" x1="142.2" y1="167.1" x2="58.2" y2="232.7"/>
	<line class="st3" x1="262.8" y1="232.7" x2="178.8" y2="167.1"/>
</g>
<g id="boats" class="st0">
	<circle class="st2" cx="160" cy="160" r="108.5"/>
	<circle class="st2" cx="160" cy="160" r="89"/>
	<circle class="st2" cx="160" cy="160" r="25"/>
	<circle class="st3" cx="160" cy="160" r="20.5"/>
	<g class="st5">
		<g>
			<g>
				<polyline class="st6" points="116,258.5 114.4,261.3 95.6,250.5 97.3,247.6 				"/>
				<line class="st6" x1="153.9" y1="183.6" x2="122.3" y2="240.3"/>
				<line class="st6" x1="109.9" y1="233.1" x2="143.2" y2="177.5"/>
				<path class="st6" d="M111.6,259.7c-0.8,2.2-1.9,4.6-3.2,6.9c-5.4,9.3-12.9,15-16.9,12.8s-2.8-11.7,2.6-21
					c1.3-2.3,2.8-4.4,4.4-6.2"/>
				<polyline class="st6" points="223.7,72 225.4,69.1 206.6,58.3 205,61.1 				"/>
				<line class="st6" x1="178" y1="141.8" x2="211.1" y2="86.5"/>
				<line class="st6" x1="198.7" y1="79.3" x2="167.3" y2="135.6"/>
				<path class="st6" d="M222.6,67.5c1.5-1.8,3-3.9,4.4-6.2c5.4-9.3,6.6-18.7,2.6-21s-11.6,3.4-17,12.7c-1.3,2.3-2.4,4.7-3.2,6.9"/>
			</g>
		</g>
		<g>
			<g>
				<polyline class="st6" points="72.7,223 69.8,224.7 59,205.9 61.8,204.2 				"/>
				<line class="st6" x1="142.8" y1="177.1" x2="87.2" y2="210.4"/>
				<line class="st6" x1="80" y1="198" x2="136.7" y2="166.4"/>
				<path class="st6" d="M68.2,221.9c-1.8,1.5-3.9,3-6.2,4.4c-9.3,5.4-18.7,6.6-21,2.6c-2.3-3.9,3.4-11.5,12.8-16.9
					c2.3-1.3,4.7-2.4,6.9-3.2"/>
				<polyline class="st6" points="259.2,115.3 262,113.7 251.2,94.9 248.3,96.6 				"/>
				<line class="st6" x1="184.7" y1="152.9" x2="241" y2="121.6"/>
				<line class="st6" x1="233.8" y1="109.2" x2="178.5" y2="142.3"/>
				<path class="st6" d="M260.4,110.9c2.2-0.8,4.6-1.9,6.9-3.2c9.3-5.4,15-12.9,12.8-16.9c-2.3-3.9-11.7-2.8-21,2.6
					c-2.3,1.3-4.4,2.8-6.2,4.4"/>
			</g>
		</g>
		<g>
			<g>
				<polyline class="st6" points="52.8,170.6 49.5,170.6 49.5,149 52.8,149 				"/>
				<line class="st6" x1="136.5" y1="166" x2="71.7" y2="167"/>
				<line class="st6" x1="71.7" y1="152.6" x2="136.5" y2="153.6"/>
				<path class="st6" d="M49.5,167.4c-2.3,0.4-4.9,0.6-7.6,0.6c-10.8,0-19.5-3.7-19.5-8.3s8.7-8.3,19.5-8.3c2.7,0,5.3,0.2,7.6,0.6"
					/>
				<polyline class="st6" points="268.2,170.6 271.5,170.6 271.5,149 268.2,149 				"/>
				<line class="st6" x1="184.9" y1="166" x2="249.3" y2="167"/>
				<line class="st6" x1="249.3" y1="152.6" x2="184.9" y2="153.6"/>
				<path class="st6" d="M271.5,167.4c2.3,0.4,4.9,0.6,7.6,0.6c10.8,0,19.5-3.7,19.5-8.3s-8.7-8.3-19.5-8.3c-2.7,0-5.3,0.2-7.6,0.6"
					/>
			</g>
		</g>
		<g>
			<g>
				<polyline class="st6" points="61.8,115.3 59,113.7 69.8,94.9 72.7,96.6 				"/>
				<line class="st6" x1="136.7" y1="153.2" x2="80" y2="121.6"/>
				<line class="st6" x1="87.2" y1="109.2" x2="142.8" y2="142.5"/>
				<path class="st6" d="M60.6,110.9c-2.2-0.8-4.6-1.9-6.9-3.2c-9.3-5.4-15-12.9-12.8-16.9c2.3-3.9,11.7-2.8,21,2.6
					c2.3,1.3,4.4,2.8,6.2,4.4"/>
				<polyline class="st6" points="248.3,223 251.2,224.7 262,205.9 259.2,204.2 				"/>
				<line class="st6" x1="178.5" y1="177.3" x2="233.8" y2="210.4"/>
				<line class="st6" x1="241" y1="198" x2="184.7" y2="166.6"/>
				<path class="st6" d="M252.8,221.9c1.8,1.5,3.9,3,6.2,4.4c9.3,5.4,18.7,6.6,21,2.6c2.3-3.9-3.4-11.5-12.8-16.9
					c-2.3-1.3-4.7-2.4-6.9-3.2"/>
			</g>
		</g>
		<g>
			<g>
				<polyline class="st6" points="97.3,72 95.6,69.1 114.4,58.3 116,61.1 				"/>
				<line class="st6" x1="143.2" y1="142.1" x2="109.9" y2="86.5"/>
				<line class="st6" x1="122.3" y1="79.3" x2="153.9" y2="136"/>
				<path class="st6" d="M98.4,67.5c-1.5-1.8-3-3.9-4.4-6.2c-5.4-9.3-6.6-18.7-2.6-21s11.6,3.4,17,12.7c1.3,2.3,2.4,4.7,3.2,6.9"/>
				<polyline class="st6" points="205,258.5 206.6,261.3 225.4,250.5 223.7,247.6 				"/>
				<line class="st6" x1="167.3" y1="184" x2="198.7" y2="240.3"/>
				<line class="st6" x1="211.1" y1="233.1" x2="178" y2="177.8"/>
				<path class="st6" d="M209.4,259.7c0.8,2.2,1.9,4.6,3.2,6.9c5.4,9.3,12.9,15,16.9,12.8c3.9-2.3,2.8-11.7-2.6-21
					c-1.3-2.3-2.8-4.4-4.4-6.2"/>
			</g>
		</g>
		<g>
			<g>
				<polyline class="st6" points="149.7,52.1 149.7,48.8 171.3,48.8 171.3,52.1 				"/>
				<line class="st6" x1="154.3" y1="135.8" x2="153.3" y2="71"/>
				<line class="st6" x1="167.7" y1="71" x2="166.7" y2="135.8"/>
				<path class="st6" d="M152.9,48.8c-0.4-2.3-0.6-4.9-0.6-7.6c0-10.8,3.7-19.5,8.3-19.5s8.3,8.7,8.3,19.5c0,2.7-0.2,5.3-0.6,7.6"/>
				<polyline class="st6" points="149.7,267.5 149.7,270.8 171.3,270.8 171.3,267.5 				"/>
				<line class="st6" x1="154.3" y1="184.2" x2="153.3" y2="248.6"/>
				<line class="st6" x1="167.7" y1="248.6" x2="166.7" y2="184.2"/>
				<path class="st6" d="M152.9,270.7c-0.4,2.3-0.6,4.9-0.6,7.6c0,10.8,3.7,19.5,8.3,19.5s8.3-8.7,8.3-19.5c0-2.7-0.2-5.3-0.6-7.6"
					/>
			</g>
		</g>
	</g>
</g>
<g id="bikes" class="st0">
	<g class="st5">
		<g>
			<g>
				<path class="st7" d="M159.7,143.3c-6.7,0-10.9,2-16.4,9.2c-9.9,12.9-1.7,57.1-3.8,57.8s-9.9-7.9-12-21.5
					c-2.1-13.7-5.5-48.5-7.5-59.1c-2-10.7-19.8-19.9-20.8-24.7s8.2-19.1,28-27.7s32.5-7.5,32.5-7.5"/>
				<path class="st7" d="M159.7,155.8c0,0-8.6-0.5-13.7,3.6c-5.1,4-4.1,15-4.1,15s4.2-4.5,8.6-5.1c3.7-0.5,9.2-0.2,9.2-0.2"/>
				<polyline class="st7" points="146.7,170 146.7,275.7 148.3,280 159.7,280 				"/>
				<path class="st7" d="M100.3,107c0,0-3.2,1.8-11,4.8s-18.5,2.4-20.5,5.1c-2.1,2.7,1.4,10.3,6.2,9.2c4.8-1,14.4-4.1,18.5-5.8
					c4.1-1.7,11.6-8.9,11.6-8.9"/>
				<path class="st7" d="M108.5,114.5c0,0-0.5,5.2-9.4,10.4s-19.7,5.8-19.7,8.2s11.8-0.7,19.7-5.1c7.9-4.4,13.1-10,13.1-10"/>
				<path class="st7" d="M110.2,87.1c0,0-8.7-0.2-10.3-1s-5.5-6.4-9.8-6.4S68,81.2,64,83.4s-0.3,14.7,2.1,17.1
					c2.4,2.4,23.7,0.5,26.6,0s5.9-4,5.9-4l3.5-0.9"/>
				<path class="st7" d="M159.7,40.4c-12.1,0-27,5.2-36.2,16.1c-9.6,11.3-8.8,27.9-8.8,27.9"/>
				<path class="st7" d="M159.8,92.4c-9.5,0-17.1,7.7-17.1,17.1s7.7,17.1,17.1,17.1"/>
				<path class="st7" d="M121.6,140c0,0-18.1,24.8-22.5,41.9s-3,44.8,2.5,46.5s18.3,3.4,29.4,3.8c7.4,0.2,15.4-1.1,15.4-1.1"/>
				<path class="st7" d="M122.2,145c0,0-10,19.8-14,33s-0.5,36.1,4,39.6c4,3.1,10.1,4.9,20.2,5.2c6.7,0.2,13.9-1.7,13.9-1.7"/>
				<g>
					<polyline class="st6" points="152,168.9 156,178.7 152,188.5 156,198.3 152,208.1 156,217.8 152,227.6 156,237.4 152,247.2 
						156,257 152,266.8 156,276.6 					"/>
				</g>
				<path class="st6" d="M106.5,192.1c0,0-0.6,8.5-5.3,12.6s-4.7,2.1-4.7,2.1"/>
			</g>
		</g>
		<g>
			<g>
				<path class="st7" d="M160,143.3c6.7,0,10.9,2,16.4,9.2c9.9,12.9,1.7,57.1,3.8,57.8s9.9-7.9,12-21.5c2.1-13.7,5.5-48.5,7.5-59.1
					c2.1-10.6,19.8-19.8,20.8-24.6s-8.2-19.1-28-27.7S160,69.8,160,69.8"/>
				<path class="st7" d="M160,155.8c0,0,8.6-0.5,13.7,3.6c5.1,4,4.1,15,4.1,15s-4.2-4.5-8.6-5.1c-3.7-0.5-9.2-0.2-9.2-0.2"/>
				<polyline class="st7" points="173,170 173,275.7 171.4,280 160,280 				"/>
				<path class="st7" d="M219.4,107c0,0,3.2,1.8,11,4.8c7.9,3.1,18.5,2.4,20.5,5.1c2.1,2.7-1.4,10.3-6.2,9.2
					c-4.8-1-14.4-4.1-18.5-5.8s-11.6-8.9-11.6-8.9"/>
				<path class="st7" d="M211.2,114.5c0,0,0.5,5.2,9.4,10.4c8.8,5.1,19.7,5.8,19.7,8.2s-11.8-0.7-19.7-5.1c-7.9-4.4-13.1-10-13.1-10
					"/>
				<path class="st7" d="M209.5,87.1c0,0,8.7-0.2,10.3-1s5.5-6.4,9.8-6.4s22.1,1.5,26.1,3.7s0.3,14.7-2.1,17.1s-23.7,0.5-26.6,0
					c-2.9-0.5-5.9-4-5.9-4l-3.5-0.9"/>
				<path class="st7" d="M160,40.4c12.1,0,27,5.2,36.2,16.1c9.6,11.3,8.8,27.9,8.8,27.9"/>
				<path class="st7" d="M159.8,92.4c9.5,0,17.1,7.7,17.1,17.1s-7.7,17.1-17.1,17.1"/>
				<path class="st7" d="M198.1,140c0,0,18.1,24.8,22.5,41.9s3,44.8-2.5,46.5s-18.3,3.4-29.4,3.8c-7.4,0.2-15.4-1.1-15.4-1.1"/>
				<path class="st7" d="M197.4,145c0,0,10,19.8,14,33s0.5,36.1-4,39.6c-4,3.1-10.1,4.9-20.2,5.2c-6.7,0.2-13.9-1.7-13.9-1.7"/>
				<g>
					<polyline class="st6" points="167.6,168.9 163.6,178.7 167.6,188.5 163.6,198.3 167.6,208.1 163.6,217.8 167.6,227.6 
						163.6,237.4 167.6,247.2 163.6,257 167.6,266.8 163.6,276.6 					"/>
				</g>
				<path class="st6" d="M213.2,192.1c0,0,0.6,8.5,5.3,12.6s4.7,2.1,4.7,2.1"/>
			</g>
		</g>
	</g>
</g>
<g id="joyride" class="st0">
	<line class="st8" x1="107.3" y1="203.8" x2="69.7" y2="272.9"/>
	<path class="st8" d="M164.1,162.8c-3.1,9-5.4,15.5-5.4,15.5h-58.6c-2.4,0-4.7,1.5-5.6,3.7l-34.2,78.6"/>
	<path class="st8" d="M107.3,203.8h73.1c3.5,0,10.6-3.4,12-7.8c3.2-10,3.7-17.5,5.6-23.4c1.8-5.9,19.9-39.5,23.2-48.5
		s0.7-22.8-9.8-24.2c-10.5-1.3-24.2-2-29.9,13.6c-2.4,6.6-6.9,19.2-11.2,31.6"/>
	<line class="st8" x1="69" y1="273" x2="30" y2="273"/>
	<polyline class="st8" points="60.4,260.6 35.1,266.6 30.1,272.9 	"/>
	<path class="st8" d="M223.3,68.3c0,13.5-27.2,26.4-37.8,24.4c-4-0.7-6.3-10.9-6.3-24.4s13.8-24.4,24.6-24.4S223.3,54.8,223.3,68.3z
		"/>
	<path class="st8" d="M202.7,131.6l-30,32.8l-73.6-13.8c-5.1-1.3-3.7-8.9,1.5-8.4l65.5,8.8l25.1-36.9"/>
	<line class="st8" x1="78" y1="273" x2="201" y2="273"/>
	<line class="st8" x1="96" y1="243" x2="164" y2="243"/>
	<line class="st8" x1="104" y1="234" x2="132" y2="234"/>
	<line class="st8" x1="197" y1="204" x2="287" y2="204"/>
	<line class="st8" x1="211" y1="172" x2="258" y2="172"/>
	<line class="st8" x1="223" y1="142" x2="251" y2="142"/>
	<line class="st8" x1="227" y1="135" x2="280" y2="135"/>
	<line class="st8" x1="227" y1="99" x2="287" y2="99"/>
	<line class="st8" x1="227" y1="44" x2="276" y2="44"/>
	<line class="st8" x1="231" y1="55" x2="258" y2="55"/>
</g>
<g id="lifestyle" class="st0">
	<circle class="st8" cx="160" cy="160" r="79.6"/>
	<line class="st8" x1="160" y1="28" x2="160" y2="67"/>
	<line class="st8" x1="160" y1="253" x2="160" y2="292"/>
	<line class="st8" x1="28" y1="160" x2="67" y2="160"/>
	<line class="st8" x1="253" y1="160" x2="292" y2="160"/>
	<line class="st8" x1="253.6" y1="66.4" x2="225.7" y2="94.3"/>
	<line class="st8" x1="94.3" y1="225.7" x2="66.4" y2="253.6"/>
	<line class="st8" x1="66.4" y1="66.4" x2="94.3" y2="94.3"/>
	<line class="st8" x1="225.7" y1="225.7" x2="253.6" y2="253.6"/>
	<line class="st8" x1="109.4" y1="37.7" x2="124.4" y2="74.2"/>
	<line class="st8" x1="195.6" y1="245.8" x2="210.6" y2="282.3"/>
	<line class="st8" x1="37.7" y1="210.6" x2="74.2" y2="195.6"/>
	<line class="st8" x1="245.8" y1="124.4" x2="282.3" y2="109.4"/>
	<line class="st8" x1="210.6" y1="37.7" x2="195.6" y2="74.2"/>
	<line class="st8" x1="124.4" y1="245.8" x2="109.4" y2="282.3"/>
	<line class="st8" x1="37.7" y1="109.4" x2="74.2" y2="124.4"/>
	<line class="st8" x1="245.8" y1="195.6" x2="282.3" y2="210.6"/>
</g>
<g id="buying_guide" class="st0">
	<text transform="matrix(1 0 0 1 130 189.3482)" class="st2 st9 st10">$</text>
	<path class="st2" d="M245.4,201.3c0,0,7.1,6.8,16.6,9.3s10.3,1.1,10.3,1.1c7.8-15.7,12.2-32.1,12.2-51.8s-4.5-36.3-12.3-52
		c0,0-0.8-1.5-10.3,1s-16.5,9.5-16.5,9.5"/>
	<path class="st2" d="M74.4,201.3c0,0-7.1,6.8-16.6,9.3s-10.3,1.1-10.3,1.1c-7.8-15.7-12.1-32-12.1-51.7s4.5-36.3,12.3-52
		c0,0,0.8-1.5,10.3,1s16.5,9.5,16.5,9.5"/>
	<path class="st2" d="M51.5,108C70.9,67.6,112.2,39.7,160,39.7s89.1,27.9,108.5,68.3"/>
	<path class="st2" d="M268.5,212.1c-19.4,40.3-60.7,68.2-108.5,68.2s-89-27.8-108.5-68.2"/>
	<circle class="st3" cx="160" cy="160" r="95"/>
	<circle class="st2" cx="160" cy="160" r="89"/>
	<circle class="st2" cx="160" cy="160" r="53.8"/>
	<path class="st2" d="M209.6,138.3c0,0,25.8,3.2,29.9,1.4c4.4-1.9,7.2-5,7.2-5"/>
	<path class="st2" d="M211.8,177.1c0,0,21.6-9.9,28.3-11.7c5.5-1.4,8.4,4.8,8.4,4.8"/>
	<path class="st2" d="M110.8,138.3c0,0-26.1,3.2-30.3,1.4c-4.4-1.9-7.3-5-7.3-5"/>
	<path class="st2" d="M108.5,177.1c0,0-21.8-9.9-28.6-11.7c-5.6-1.4-8.5,4.8-8.5,4.8"/>
	<path class="st3" d="M210.3,180.1c0,0,22.1-9.9,29-11.7c5.6-1.4,8.6,4.8,8.6,4.8"/>
	<path class="st3" d="M110.2,180.1c0,0-22.5-9.9-29.4-11.7c-5.7-1.4-8.7,4.8-8.7,4.8"/>
</g>
<g id="fb" class="st0">
	<g id="Layer_3" class="st5">
		<path class="st7" d="M179.1,285.4h-51.8V160h-25.9v-43.2h25.9v-26c0-35.3,14.6-56.2,56.1-56.2H218v43.2h-21.6
			c-16.2,0-17.2,6-17.2,17.3l-0.1,21.6h39.2l-4.6,43.2h-34.6L179.1,285.4L179.1,285.4z"/>
	</g>
</g>
<g id="tw" class="st0">
	<g id="Livello_x0020_1" class="st5">
		<path class="st11" d="M281,90c-8.9,3.9-18.5,6.6-28.6,7.8c10.3-6.1,18.1-15.9,21.8-27.5c-9.6,5.7-20.2,9.8-31.6,12.1
			c-9.1-9.7-22-15.7-36.3-15.7c-27.4,0-49.7,22.3-49.7,49.7c0,3.9,0.4,7.7,1.3,11.3c-41.3-2.1-77.9-21.9-102.4-51.9
			c-4.3,7.3-6.7,15.9-6.7,25c0,17.2,8.8,32.5,22.1,41.4c-8.1-0.3-15.8-2.5-22.5-6.2c0,0.2,0,0.4,0,0.6c0,24.1,17.1,44.2,39.9,48.7
			c-4.2,1.1-8.6,1.7-13.1,1.7c-3.2,0-6.3-0.3-9.4-0.9c6.3,19.7,24.7,34.1,46.4,34.5c-17,13.3-38.4,21.3-61.7,21.3
			c-4,0-8-0.3-11.9-0.7c22,14.1,48.1,22.3,76.2,22.3c91.4,0,141.4-75.7,141.4-141.4c0-2.2,0-4.3-0.1-6.4
			C265.9,108.6,274.3,99.9,281,90L281,90z"/>
	</g>
</g>
<g id="n_america" class="st0">
	<g class="st5">
		<path class="st11" d="M174.4,85c4,0.3,8.2,0.7,11.8-1.5c-0.7-1.8-12.9-1.4-15.2-1.8c-1.6-0.3-4.3-0.3-4.1,2.1
			c0.2,1.6,6.7,1.2,7.8,1.3c-0.2,0-0.5,0-0.7-0.1c0.2,0,0.4,0,0.6,0C174.5,85,173.4,85,174.4,85C175.6,85.1,173.1,84.9,174.4,85z"/>
		<path class="st11" d="M110.9,92.2c2.5,2,5.1-1.3,7.6-1.5c2-0.2,5.1,2.7,1.7,2.8c1.2,0,5.6,0.1,6.2,1.5c0.4,0.9-6.3,1.3-7,1.3
			c0.1,1.1,6.7,2.9,8,3.2c3.5,0.8,5.6-2,8.9-1.6c2.9,0.3,6.6,0.9,8.8-1.7c1.1-1.3-3.1-2-3.7-2.4c-1.3-0.8,0.2-3.7-0.2-4.9
			c-0.8-2.4-3.4,3.7-5.5,1.2c-1.2-1.4-2.1-0.4-3.6-0.3c-1.9,0.2-3.9-0.8-5.5-1.5c-3.6-1.6-6.5-3.4-10.4-1.9
			C114.5,87,107.6,89.8,110.9,92.2C111.7,92.8,110.6,91.9,110.9,92.2C111.5,92.7,110.6,91.9,110.9,92.2
			C111.7,92.8,110.6,91.9,110.9,92.2z"/>
		<path class="st11" d="M272,96.1c-0.3-0.3-5.7-1.1-5.4-1.4c0.5-0.4,1-0.7,1.6-1c-0.3-0.6-0.6-1.2-0.8-1.8c0-0.2,8.3,2.4,8.5,1.6
			c0.1-0.8-8.6-4-6.2-5.6s6.4-1.2,8.4-3.4c1.1-1.2,2.4-2.9,2.8-4.5c0.4-1.8,0.3-3.7,2.2-4.7c2.7-1.3,6.1-0.3,8.3-2.7
			c-3,2.1-8.9-0.6-12-1.5c-4.4-1.2-9-0.9-13.5-0.7c-9.9,0.5-19.8,2.2-29.7,1.9c-4.1-0.1-8.3-0.5-12.4,0.3c-4.4,0.8-8.5,3-12.9,4
			c-2,0.4-5.8,0.1-7.4,1.6c-1.3,1.3,3.1,3.2,3.8,3.3c3.8,0.4,7.5-0.7,11.3,1.3c3.5,1.9,3.9,6.2,6.8,8.6c4.8,3.9,1.4,7-1.1,10.9
			c-3.2,4.8,5.2,25.4,11.9,19.3c2.8-2.5,2.4-6.9,4.5-9.9c2.4-3.6,6.6-5.2,10.3-7.2c3.9-2.2,7.4-4.6,12-5.2
			C263.9,99.2,272.6,96.8,272,96.1C271.8,95.9,272.3,96.5,272,96.1z"/>
		<path class="st11" d="M159.7,89.8c0.9-0.5,5.3-1.1,5.3-2.4c0.1-1.6-4.9-0.4-5.6,0C157.7,88.4,158.5,90.4,159.7,89.8
			C160.4,89.3,159.3,90,159.7,89.8z"/>
		<path class="st11" d="M150.5,91.4c1.9,4.7,5.5-5,4.8-5c-3.3,0-5.4,2.7-8.9,2.4C146.4,88.6,150.4,91.3,150.5,91.4
			C150.9,92.5,150.3,91.1,150.5,91.4z"/>
		<path class="st11" d="M172.6,76.3c0.7,0.1,6.6-1.3,5.5-2.5c-1.4-1.5-12.7,0.7-5.2,2.5c-0.3-0.1-0.5-0.1-0.8-0.1
			C173.6,76.1,171.1,75.9,172.6,76.3C173.4,76.4,171.1,76,172.6,76.3z"/>
		<path class="st11" d="M182,77.7c0.6,0.1,1.1,0.4,1.4,0.9c0.1,1.7-6.8,1.5-7.8,1.3c6.1,3.6,13.7,1.9,19.2-1.4
			c7-4.2,15.8-5.2,23.3-8.6c-0.6-1.1-15.2,0.7-17.2,0.9c-5.2,0.3-11.9-0.3-16.7,1.9c1.9-0.2,10.6-0.8,11.7,0.9
			c0.9,1.4-10.9,0.5-11.9,1.3c-0.8,0.6,2.6,1.8,1.2,2.5c-1.2,0.6-2.8,0.3-4,0c0.3,0.1,0.6,0.2,1,0.4C180.6,77.4,182.3,77.8,182,77.7
			C181.5,77.6,181.5,77.6,182,77.7C182.6,77.9,180.8,77.4,182,77.7z"/>
		<path class="st11" d="M73.8,131.8c-0.1,0.3,0,2.3,0.7,2C75.8,133.2,73.4,130.9,73.8,131.8C73.9,131.4,73.9,131.4,73.8,131.8
			C73.8,131.6,74.1,131,73.8,131.8C73.7,132.1,74.2,130.8,73.8,131.8z"/>
		<path class="st11" d="M76.4,137.2c-0.6,1.3,1.9,4,1.8,1.8c0-0.7-1-3.6-1.8-1.6C76.3,137.3,76.6,136.7,76.4,137.2
			C76.3,137.4,76.6,136.5,76.4,137.2z"/>
		<path class="st11" d="M43.4,130.8c-0.7,0.3-3.3,0.9-2.7,2.3c0.2,0.4,4.3-1.4,4-2.1C44.3,130.5,43.9,130.5,43.4,130.8
			C43.1,131.1,44.1,130.5,43.4,130.8C43.1,131,44.1,130.5,43.4,130.8z"/>
		<path class="st11" d="M165.4,111c-1.4,3.8,7.7,1.5,7.8,1.9c-0.3-3.3-6.5-5.4-7.8-1.7c0.3-0.9,0.2-0.5-0.1,0.1
			C165.3,111.2,165.7,110.1,165.4,111C165.1,111.8,165.8,109.8,165.4,111z"/>
		<path class="st11" d="M152.2,98.6c0.5-0.2,1-0.6,0.9-1.3c-1-0.8-4.2-0.9-4.6,0.8c-0.5,2.4,3.4,1,4.1,0.1c-0.2,0.1-0.4,0.3-0.6,0.4
			C152.3,98.4,151.4,99,152.2,98.6C152.6,98.4,151.3,99,152.2,98.6z"/>
		<path class="st11" d="M172.2,94.9c1.9-0.5,3.9,0.2,5.7,0.5c2,0.3,3.9-0.6,5.9-0.1c3.3,0.8,6.9,5.3,9.3,7.6c4,4-4.5,1.4-5.6,3.6
			c-1.6,3.3-6.4,0.4-7.9,3.2c-0.9,1.6,3.7,0.4,3.9,0.3c1.8-0.6,3.3,0.7,4.5,1.9c1,1.1,7.5,7.7,9.3,5.9c1.1-1.1-3.7-4.7-3.1-5.3
			c1.1-1.2,5.8,4,5.4,0.2c-0.3-2.8-4.6-7.7,1.1-6.1c2.1,0.6,6.9,0.6,3.9-2.9c-2.4-2.9-4.2-3.5-5.8-7c-1.1-2.4-5-2.7-6.9-4.3
			c-3-2.5-5.2-0.7-8.3-2.4c-3-1.6-4.8-2.9-7.8-0.5c-3.6,2.9-3.4,0.3-1.7-2.7c-1.5-1.6-6.8,3.7-7.1,5.1
			C166.2,95.1,171.6,95.1,172.2,94.9C173.1,94.7,171.7,95.1,172.2,94.9z"/>
		<path class="st11" d="M158.1,259.5c-3.5-2.1-9.3,3.4-10.1-3.4c-0.3-2.2,2.2-9.4-0.3-10.5c-2.4-1.2-10.1,2.7-8-3
			c0.5-1.2,5.9-11.6,0-9.2c-3.8,1.6-3.7,5.9-8.3,6.7c-5.6,1-7.7-5.2-7.7-9.7c-0.1-6.3,5.2-19.5,13.6-15.6c4.6,2.1,4.6-2.9,8.7-1.9
			c2.8,0.7,7.1,0.5,8,3.8c0.2,0.8,1.1,10.4,3.2,7.5c2.2-2.9-0.1-7.5,0.1-10.8c0.2-4.5,4.3-6.4,7.3-8.8c1.5-1.2,6.1-11.7,4.2-12.2
			c0.3,0.1,0.9,1.7,1.1,1.7c1.6-1,1.2-3.5,2.3-4.8c0.9-1.1,1.6-2.3,2.6-3.4c2.5-2.9,4.8-3.1,6.5-6.9c1.9-4.1,6.3-6.1,10-8.1
			c5.4-2.8-0.5,4.8-0.5,4.8c1.7,1.4,8.8-5.2,9.9-6.3c-0.3-0.4-5.1,0.2-6.3-1c-1.8-1.7-1.4-4-0.6-6.2c2.8-8.3-9,1.2-9.3-0.1
			c-0.8-4.1,9.5-7.5,12.3-7.6c4.8-0.2,12.9-1.8,14.1-7.5c0.9-4-1.7-4.7-4.8-3.9c-2.6,0.7-1.1-3.2-1.6-4.7c-1.7-4.9-3-10.4-5.3-15.1
			c-0.6,0-3.9,4.9-4.5,5.5c-3,3.1-3.7-2.6-4.2-4.9c-0.8-3.7-9.6-10.7-12.4-5.5c-1.1,2-0.5,4.4-1.6,6.4c-1.9,3.4,0.8,5.3,0,8.6
			c-1.3,5.4-6,7.5-5.9,13.6c0,1.4-0.2,6.8-3.1,5.2c-2.5-1.3-2.6-7.1-2.5-9.6c0.3-4.8-10.8-7.9-14.2-10.3c-6.1-4.4-4.6-9.5,0.5-14
			c1.8-1.6,3-4.9,4.9-6.1c1.2-0.8,7.2-0.3,7.3-2.2c-1-1.2-2.7-2-3-3.7c0-0.1,9.7-1.1,10.7-1.2c3.2-0.3,7.9-7.3,2.6-8.1
			c-3.9-0.6-4,6.4-7.5,5.8c-2.1-0.4-0.8-2.9-1.2-4.1c-0.7-1.8-3.8-0.4-4.6-2.9c-0.4-1.3-0.2-3.3-1.9-3.6c-1.7-0.4-3.8,1.2-4.3,2.8
			c-0.5,1.8,3.6,2.1,2.1,4.4c-1.1,1.7-3.3,2.3-4.7,3.8c-0.9,1-3.8-1.7-4.8-1.8c-2.1-0.2-4.3,0.2-6.4-0.3c-4.4-0.9-7.3-0.1-8.5,4.5
			c-1,0.2-3.2-4.5-6.1-4c-2.5,0.4-6.6,1.2-4.9-2.3c-2.2-3.7-17-3.4-20.8-3c-3.2,0.3-6.3,1.5-9.5,1.9c-3.9,0.5-7.6-0.4-11.4-1.3
			c-14.1-3.6-28.4-4.9-41.7,2.4c-3.5,1.9,2.7,3,3.1,4.6c0.6,2-8,1.9-9.1,2.5c-4.7,2.7,2.9,2.7,4.7,2.7c6.4,0.1-0.2,4.7-2.8,5.6
			c-3.6,1.2-5,2.3-3.4,6.2c1.1,2.8-1.6,4.9,1.1,6c1.5,0.6,6.7-0.3,5,2.3c-0.6,0.9-7.5,7.4-7.3,7.7c2.6,3.1,8.1-4.3,9.4-5.8
			c1.9-2.2,3.8-4.5,6-6.4c2.3-2,3.4-0.9,6-1.2c2.3-0.3,3.3-2.8,5.9-2.6c2.2,0.1,4.3,0.9,6.3,1.7c3.9,1.6,8,3.6,11.6,5.9
			c7.4,4.9,5.3,14.9,8.6,22c1.7,3.7,6.6,5.2,7.1,9.6c0.2,1.5,0.6,3.7-0.1,5.1c-0.8,1.5-1.9-2.4-2.4-2.6c0.5,0.2-3.6,16.1-4,17.9
			c-1.5,6.3-0.7,12.5,1.7,18.5c1.1,2.7,2.5,4.6,4.6,6.5c2.2,2,2.1,5.6,2.8,8.3c0.9,3,2,6.6,4.3,8.8c2.2,2.1,0.6,5.6,4.1,6.8
			c-3.6-2.7-4.5-10.9-5.7-15c-0.4-1.3-1.3-5.5,1.5-3.6c2.2,1.5,2.6,4.9,3.6,7.2c2,4.7,8.2,9.3,8.2,14.5c0.1,6.2,4.8,8.3,10,10.6
			c2.4,1,4.8,2.8,7.4,2c3.2-0.9,5.2,0.9,7.3,3.2c2.1,2.3,5.7,0.5,7.8,2.6c2,2,1.7,5.3,3.9,7.1c1.7,1.5,4.5,3.1,6.7,3.8
			c2.3,0.8,3.4-4.5,5.6-1.6L158.1,259.5z M167.6,178.3c-0.5,0-0.9-0.2-1.2-0.6c-0.1-0.2-0.1-0.3-0.1-0.5c0.1-0.4,0.6-0.9,1.2-1.4
			C168.3,175.9,168,178.1,167.6,178.3C167.1,178.2,167.9,178.2,167.6,178.3z M162.6,182.5c-1.4,1.2-5.3,0.9-2.8-1.4
			c1.8-1.7,5.3-0.6,2.5,1.7C162.4,182.7,163.1,182.1,162.6,182.5C162.3,182.7,163.4,181.9,162.6,182.5
			C161.9,183.1,163.4,181.8,162.6,182.5z M164.9,173.5c-0.2,0.8-0.7,1.1-1.5,0.8c-1.6-0.2-1.1,1.4-1.5,2.4c-0.7,1.6-4,0.5-4.4-0.9
			c-0.2-0.9,3.1-5.6-0.5-4.6c-2.2,0.6-2.7,3.1-3,4.9c-0.4,2.1-0.6,5.6-2.4,7.1c-2.2,1.8-3-2.1-2.8-3.4c0.6-3.2,3.7-11.3,7.4-11.7
			c-1.4-0.9-5.1-2.3-6.7-1.8c-0.8,0.3-4.6,2.5-5.2,0.3c-0.4-1.2,4.2-4.5,4.9-4.9c2.7-1.7,5.7-1.4,7.2,1.7c0.8,1.6,1,3.5,2,5.1
			c1.1,1.8,1.7,0.2,3.1,0.2C163.7,168.6,165.3,171.8,164.9,173.5C164.9,173.3,165,172.6,164.9,173.5
			C164.7,174.5,165,172.6,164.9,173.5z"/>
		<path class="st11" d="M282.5,106.8c-0.8,0.3-11.8,1.4-9.1,4.8c0.5,0.7,3.9,0.9,4.8,1.3c1.8,0.8,3.7-0.2,5.3-1.1
			c1.3-0.8,2.8-1.5,3.8-2.6C289.3,107.1,283.6,106.3,282.5,106.8C282.8,106.7,282.5,106.8,282.5,106.8
			C281.6,107.1,283.4,106.4,282.5,106.8z"/>
		<path class="st11" d="M82.4,154.4c-2.8,2,6.4,8.1,5.6,5.1C87.6,157.7,83.6,153.6,82.4,154.4C81.8,154.9,82.8,154.1,82.4,154.4z"/>
		<path class="st11" d="M213.4,163.7c4.1-1.8-5.4-7.1-3.6-10.5c-2.8,1.5-5.4,6.8-5.9,9.9c-0.4,2.6,8.4,1.1,9.7,0.5
			C213.1,163.9,213.8,163.6,213.4,163.7C214.2,163.4,212.8,164,213.4,163.7z"/>
	</g>
</g>
<g id="globe" class="st0">
	<circle class="st8" cx="160" cy="160" r="120.3"/>
	<ellipse class="st8" cx="160" cy="160" rx="96.3" ry="120.3"/>
	<ellipse class="st8" cx="160" cy="160" rx="43" ry="120.3"/>
	<line class="st8" x1="40" y1="160" x2="280" y2="160"/>
	<path class="st8" d="M53,104c0,0,21.7-9.7,107.5-9.7S267,104,267,104"/>
	<path class="st8" d="M83.7,67.6c0,0,15.5-16.6,76.7-16.6s76,16.6,76,16.6"/>
	<path class="st8" d="M53,216c0,0,21.7,9.7,107.5,9.7S267,216,267,216"/>
	<path class="st8" d="M83.7,252.4c0,0,15.5,16.6,76.7,16.6s76-16.6,76-16.6"/>
</g>
<g id="bikes_copy" class="st0">
	<path class="st2" d="M111.2,191.6c-3.8,19.9-21.3,34.9-42.3,34.9c-23.8,0-43.1-19.3-43.1-43.1s19.3-43.1,43.1-43.1
		c21.2,0,38.8,15.3,42.4,35.4"/>
	<path class="st2" d="M63,152.5c1.9-0.4,3.9-0.5,5.9-0.5c12,0,22.4,6.7,27.8,16.5"/>
	<path class="st2" d="M99.6,190.9c-3.3,13.9-15.8,24.2-30.7,24.2c-17.4,0-31.6-14.1-31.6-31.6c0-4.9,1.1-9.6,3.1-13.7"/>
	<path class="st2" d="M81.9,185.4c-0.9,6.3-6.4,11.2-12.9,11.2c-7.2,0-13.1-5.9-13.1-13.1c0-2.5,0.7-4.9,2-6.9"/>
	<path class="st2" d="M239.6,154.4c3.8-1.6,7.9-2.5,12.3-2.5c17.4,0,31.6,14.1,31.6,31.6s-14.1,31.6-31.6,31.6s-31.6-14.1-31.6-31.6
		c0-7.3,2.5-14,6.7-19.4"/>
	<circle class="st2" cx="251.9" cy="183.5" r="13.1"/>
	<path class="st2" d="M233.3,144.6c5.6-2.7,11.9-4.2,18.6-4.2c23.8,0,43.1,19.3,43.1,43.1s-19.3,43.1-43.1,43.1
		s-43.1-19.3-43.1-43.1c0-11.3,4.3-21.5,11.4-29.2"/>
	<path class="st2" d="M120.5,176.6c0-0.9,0-1.7,0-2.6c-0.3-10.3-14.2-32-22-41c-17.5-20.2-72.1-29-72.1-29s19.1-13.5,41.1-9.5
		s63.3,32.2,92.5,34c31,2,40.5-8.5,47.8-16.8s9.8-20.5,9.8-20.5s16.3,5.8,32.3,15.5s28.8,24.8,28.8,24.8s-39.3-0.7-45.5,1.8
		S205,157.5,204,168.5s0.3,26,0.3,26h-86.5c0,0,0.5-1.5,1.1-4"/>
	<path class="st2" d="M137.8,185.8c0,0-19.3,5.8-30.8,6.3s-68-22.2-68-22.2l10.5-23.6c0,0,60.3,28.9,63.8,30.6s24.3-3.8,24.3-3.8"/>
	<line class="st2" x1="227" y1="137.4" x2="251.9" y2="170.4"/>
	<line class="st2" x1="215.6" y1="148.6" x2="239.5" y2="179.5"/>
	<path class="st2" d="M217.5,91.3c0,0-7.4-5.4-17.9-9.2s-24.5-7.3-24.5-7.3s8.7,9.7,15.9,22.5s7.5,23.4,7.5,23.4"/>
	<polyline class="st2" points="196.6,109.1 174.5,104 173,111 198.5,115.1 	"/>
	<path class="st3" d="M112,112.8c0,0,18.5,18.2,22,31.2s37.8,9.8,48-1.1s14.3-20.8,14.3-20.8"/>
	<path class="st3" d="M98.5,133c0,0,16.8,6.3,29.5,23.3c9,12,8.8,13,9.8,18.3s0,20,0,20"/>
</g>
<g id="search" class="st0">
	
		<ellipse transform="matrix(0.7071 -0.7071 0.7071 0.7071 -49.1309 120.1487)" class="st2" cx="120.5" cy="119.4" rx="75.4" ry="75.4"/>
	
		<ellipse transform="matrix(0.7071 -0.7071 0.7071 0.7071 -49.1309 120.1487)" class="st2" cx="120.5" cy="119.4" rx="62.7" ry="62.7"/>
	<path class="st2" d="M259.3,247.3l-11,11c-3,3-8,3-11,0l-63.6-63.6c-3-3-3-8,0-11l11-11c3-3,8-3,11,0l63.6,63.6
		C262.3,239.4,262.3,244.3,259.3,247.3z"/>
</g>
<g id="fb_dark" class="st0">
	<g id="Layer_3_1_" class="st5">
		<path class="st12" d="M177.8,276.8h-48.2V160h-24.1v-40.2h24.1V95.6c0-32.8,13.6-52.3,52.3-52.3H214v40.2h-20.1
			c-15.1,0-16,5.6-16,16.1l-0.1,20.1h36.5L210,160h-32.2V276.8z"/>
	</g>
</g>
<g id="tw_dark" class="st0">
	<g id="Livello_x0020_1_1_" class="st5">
		<path class="st13" d="M281,90c-8.9,3.9-18.5,6.6-28.6,7.8c10.3-6.1,18.1-15.9,21.8-27.5c-9.6,5.7-20.2,9.8-31.6,12.1
			c-9.1-9.7-22-15.7-36.3-15.7c-27.4,0-49.7,22.3-49.7,49.7c0,3.9,0.4,7.7,1.3,11.3c-41.3-2.1-77.9-21.9-102.4-51.9
			c-4.3,7.3-6.7,15.9-6.7,25c0,17.2,8.8,32.5,22.1,41.4c-8.1-0.3-15.8-2.5-22.5-6.2c0,0.2,0,0.4,0,0.6c0,24.1,17.1,44.2,39.9,48.7
			c-4.2,1.1-8.6,1.7-13.1,1.7c-3.2,0-6.3-0.3-9.4-0.9c6.3,19.7,24.7,34.1,46.4,34.5c-17,13.3-38.4,21.3-61.7,21.3
			c-4,0-8-0.3-11.9-0.7c22,14.1,48.1,22.3,76.2,22.3c91.4,0,141.4-75.7,141.4-141.4c0-2.2,0-4.3-0.1-6.4
			C265.9,108.6,274.3,99.9,281,90L281,90z"/>
	</g>
</g>
<g id="tube_dark" class="st0">
	<g id="Lozenge" class="st5">
		<g>
			<path class="st13" d="M274.7,113.2c0,0-2.3-16.1-9.3-23.2c-8.9-9.3-18.9-9.4-23.4-9.9c-32.7-2.4-81.9-2.4-81.9-2.4H160
				c0,0-49.1,0-81.9,2.4c-4.6,0.5-14.5,0.6-23.4,9.9c-7,7.1-9.3,23.2-9.3,23.2s-2.4,19-2.4,37.9v17.8c0,18.9,2.3,37.9,2.3,37.9
				s2.3,16.1,9.3,23.2c8.9,9.3,20.6,9,25.8,10c18.7,1.8,79.6,2.4,79.6,2.4s49.2-0.1,81.9-2.4c4.6-0.5,14.5-0.6,23.4-9.9
				c7-7.1,9.3-23.2,9.3-23.2s2.3-18.9,2.3-37.9v-17.8C277,132.2,274.7,113.2,274.7,113.2z M135.8,190.4v-65.7l63.2,33L135.8,190.4z"
				/>
		</g>
	</g>
</g>
<g id="ins_dark" class="st0">
	<path class="st14" d="M80.8,53.5h158.3c15,0,27.3,12.3,27.3,27.3v158.3c0,15-12.3,27.3-27.3,27.3H80.8c-15,0-27.3-12.3-27.3-27.3
		V80.8C53.5,65.8,65.8,53.5,80.8,53.5L80.8,53.5z M208.7,77.2c-5.3,0-9.6,4.3-9.6,9.6v23c0,5.3,4.3,9.6,9.6,9.6h24.1
		c5.3,0,9.6-4.3,9.6-9.6v-23c0-5.3-4.3-9.6-9.6-9.6H208.7L208.7,77.2z M242.4,143.6h-18.7c1.8,5.8,2.7,11.9,2.7,18.3
		c0,35.4-29.6,64.1-66.2,64.1S94,197.3,94,161.9c0-6.4,1-12.5,2.7-18.3H77.2v90c0,4.7,3.8,8.5,8.5,8.5H234c4.7,0,8.5-3.8,8.5-8.5
		v-90H242.4z M160.2,118.1c-23.6,0-42.8,18.6-42.8,41.4c0,22.9,19.2,41.4,42.8,41.4s42.8-18.6,42.8-41.4
		C203,136.6,183.8,118.1,160.2,118.1z"/>
</g>
<g id="tmb_dark" class="st0">
	<g class="st5">
		<g>
			<path class="st13" d="M160,39.8C93.6,39.8,39.8,93.6,39.8,160S93.6,280.2,160,280.2S280.2,226.4,280.2,160S226.4,39.8,160,39.8z
				 M203.2,226.6c-14.4,3.7-28.9,6.1-43.8,4.2c-5.2-0.7-10.1-2.1-14.6-5c-7-4.5-10.5-11.1-10.6-19.3c-0.2-9.3,0-18.5,0-27.8l0,0
				c0-9.5,0-19,0-28.5c0-1.8-0.6-2.3-2.3-2.2c-4.6,0.1-9.3,0-13.9,0.1c-1.7,0-2.4-0.3-2.3-2.2c0.1-4.9,0.1-9.7,0-14.6
				c0-1.5,0.5-2.2,1.8-2.9c8.4-4,15.5-9.5,20.7-17.2c4.3-6.3,6.7-13.2,6.9-20.8c0.1-1.9,0.6-2.3,2.3-2.2c4.7,0.1,9.4,0.1,14.1,0
				c1.8,0,2.3,0.5,2.3,2.3c-0.1,10.9,0,21.7-0.1,32.6c0,2,0.5,2.5,2.5,2.5c10.7-0.1,21.4,0.1,32.1-0.1c2.1,0,2.5,0.6,2.5,2.5
				c-0.1,6-0.1,12,0,18c0,1.8-0.6,2.1-2.2,2.1c-10.8-0.1-21.5,0-32.3-0.1c-1.9,0-2.6,0.3-2.6,2.4c0.1,13.8,0,27.6,0.1,41.4
				c0,1.6,0.1,3.2,0.4,4.8c1.4,8,7.2,12.9,15.3,13.1c7.8,0.2,15.1-2.1,22.2-5c2.6-1,2.6-1,2.6,1.7c0,6,0,12,0,18
				C204.5,225.5,204.4,226.2,203.2,226.6z"/>
		</g>
	</g>
</g>
<g id="nletter_dark" class="st0">
	<polygon class="st14" points="277,231 44,231 44,89.9 160.5,180.8 277,89.9 	"/>
	<polygon class="st14" points="277,90 160.5,180.9 44,90 	"/>
</g>
<g id="fb_light" class="st0">
	<g id="Layer_3_5_" class="st5">
		<path class="st15" d="M177.8,276.8h-48.2V160h-24.1v-40.2h24.1V95.6c0-32.8,13.6-52.3,52.3-52.3H214v40.2h-20.1
			c-15.1,0-16,5.6-16,16.1l-0.1,20.1h36.5L210,160h-32.2V276.8z"/>
	</g>
</g>
<g id="tw_light" class="st0">
	<g id="Livello_x0020_1_4_" class="st5">
		<path class="st16" d="M281,90c-8.9,3.9-18.5,6.6-28.6,7.8c10.3-6.1,18.1-15.9,21.8-27.5c-9.6,5.7-20.2,9.8-31.6,12.1
			c-9.1-9.7-22-15.7-36.3-15.7c-27.4,0-49.7,22.3-49.7,49.7c0,3.9,0.4,7.7,1.3,11.3c-41.3-2.1-77.9-21.9-102.4-51.9
			c-4.3,7.3-6.7,15.9-6.7,25c0,17.2,8.8,32.5,22.1,41.4c-8.1-0.3-15.8-2.5-22.5-6.2c0,0.2,0,0.4,0,0.6c0,24.1,17.1,44.2,39.9,48.7
			c-4.2,1.1-8.6,1.7-13.1,1.7c-3.2,0-6.3-0.3-9.4-0.9c6.3,19.7,24.7,34.1,46.4,34.5c-17,13.3-38.4,21.3-61.7,21.3
			c-4,0-8-0.3-11.9-0.7c22,14.1,48.1,22.3,76.2,22.3c91.4,0,141.4-75.7,141.4-141.4c0-2.2,0-4.3-0.1-6.4
			C265.9,108.6,274.3,99.9,281,90L281,90z"/>
	</g>
</g>
<g id="tube_light" class="st0">
	<g id="Lozenge_8_" class="st5">
		<g>
			<path class="st16" d="M274.7,113.2c0,0-2.3-16.1-9.3-23.2c-8.9-9.3-18.9-9.4-23.4-9.9c-32.7-2.4-81.9-2.4-81.9-2.4H160
				c0,0-49.1,0-81.9,2.4c-4.6,0.5-14.5,0.6-23.4,9.9c-7,7.1-9.3,23.2-9.3,23.2s-2.4,19-2.4,37.9v17.8c0,18.9,2.3,37.9,2.3,37.9
				s2.3,16.1,9.3,23.2c8.9,9.3,20.6,9,25.8,10c18.7,1.8,79.6,2.4,79.6,2.4s49.2-0.1,81.9-2.4c4.6-0.5,14.5-0.6,23.4-9.9
				c7-7.1,9.3-23.2,9.3-23.2s2.3-18.9,2.3-37.9v-17.8C277,132.2,274.7,113.2,274.7,113.2z M135.8,190.4v-65.7l63.2,33L135.8,190.4z"
				/>
		</g>
	</g>
</g>
<g id="ins_light">
	<path class="st17" d="M80.8,53.5h158.3c15,0,27.3,12.3,27.3,27.3v158.3c0,15-12.3,27.3-27.3,27.3H80.8c-15,0-27.3-12.3-27.3-27.3
		V80.8C53.5,65.8,65.8,53.5,80.8,53.5L80.8,53.5z M208.7,77.2c-5.3,0-9.6,4.3-9.6,9.6v23c0,5.3,4.3,9.6,9.6,9.6h24.1
		c5.3,0,9.6-4.3,9.6-9.6v-23c0-5.3-4.3-9.6-9.6-9.6H208.7L208.7,77.2z M242.4,143.6h-18.7c1.8,5.8,2.7,11.9,2.7,18.3
		c0,35.4-29.6,64.1-66.2,64.1S94,197.3,94,161.9c0-6.4,1-12.5,2.7-18.3H77.2v90c0,4.7,3.8,8.5,8.5,8.5H234c4.7,0,8.5-3.8,8.5-8.5
		v-90H242.4z M160.2,118.1c-23.6,0-42.8,18.6-42.8,41.4c0,22.9,19.2,41.4,42.8,41.4s42.8-18.6,42.8-41.4
		C203,136.6,183.8,118.1,160.2,118.1z"/>
</g>
<g id="tmb_light" class="st0">
	<g class="st5">
		<g>
			<path class="st16" d="M160,39.8C93.6,39.8,39.8,93.6,39.8,160S93.6,280.2,160,280.2S280.2,226.4,280.2,160S226.4,39.8,160,39.8z
				 M203.2,226.6c-14.4,3.7-28.9,6.1-43.8,4.2c-5.2-0.7-10.1-2.1-14.6-5c-7-4.5-10.5-11.1-10.6-19.3c-0.2-9.3,0-18.5,0-27.8l0,0
				c0-9.5,0-19,0-28.5c0-1.8-0.6-2.3-2.3-2.2c-4.6,0.1-9.3,0-13.9,0.1c-1.7,0-2.4-0.3-2.3-2.2c0.1-4.9,0.1-9.7,0-14.6
				c0-1.5,0.5-2.2,1.8-2.9c8.4-4,15.5-9.5,20.7-17.2c4.3-6.3,6.7-13.2,6.9-20.8c0.1-1.9,0.6-2.3,2.3-2.2c4.7,0.1,9.4,0.1,14.1,0
				c1.8,0,2.3,0.5,2.3,2.3c-0.1,10.9,0,21.7-0.1,32.6c0,2,0.5,2.5,2.5,2.5c10.7-0.1,21.4,0.1,32.1-0.1c2.1,0,2.5,0.6,2.5,2.5
				c-0.1,6-0.1,12,0,18c0,1.8-0.6,2.1-2.2,2.1c-10.8-0.1-21.5,0-32.3-0.1c-1.9,0-2.6,0.3-2.6,2.4c0.1,13.8,0,27.6,0.1,41.4
				c0,1.6,0.1,3.2,0.4,4.8c1.4,8,7.2,12.9,15.3,13.1c7.8,0.2,15.1-2.1,22.2-5c2.6-1,2.6-1,2.6,1.7c0,6,0,12,0,18
				C204.5,225.5,204.4,226.2,203.2,226.6z"/>
		</g>
	</g>
</g>
<g id="nletter_light" class="st0">
	<polygon class="st18" points="277,231 44,231 44,89.9 160.5,180.8 277,89.9 	"/>
	<polygon class="st18" points="277,90 160.5,180.9 44,90 	"/>
</g>
<g id="fb_outline" class="st0">
	<g id="Layer_3_3_" class="st5">
		<path class="st19" d="M177.8,276.8h-48.2V160h-24.1v-40.2h24.1V95.6c0-32.8,13.6-52.3,52.3-52.3H214v40.2h-20.1
			c-15.1,0-16,5.6-16,16.1l-0.1,20.1h36.5L210,160h-32.2V276.8z"/>
	</g>
</g>
<g id="tw_outline" class="st0">
	<g id="Livello_x0020_1_2_" class="st5">
		<path class="st20" d="M281,90c-8.9,3.9-18.5,6.6-28.6,7.8c10.3-6.1,18.1-15.9,21.8-27.5c-9.6,5.7-20.2,9.8-31.6,12.1
			c-9.1-9.7-22-15.7-36.3-15.7c-27.4,0-49.7,22.3-49.7,49.7c0,3.9,0.4,7.7,1.3,11.3c-41.3-2.1-77.9-21.9-102.4-51.9
			c-4.3,7.3-6.7,15.9-6.7,25c0,17.2,8.8,32.5,22.1,41.4c-8.1-0.3-15.8-2.5-22.5-6.2c0,0.2,0,0.4,0,0.6c0,24.1,17.1,44.2,39.9,48.7
			c-4.2,1.1-8.6,1.7-13.1,1.7c-3.2,0-6.3-0.3-9.4-0.9c6.3,19.7,24.7,34.1,46.4,34.5c-17,13.3-38.4,21.3-61.7,21.3
			c-4,0-8-0.3-11.9-0.7c22,14.1,48.1,22.3,76.2,22.3c91.4,0,141.4-75.7,141.4-141.4c0-2.2,0-4.3-0.1-6.4
			C265.9,108.6,274.3,99.9,281,90L281,90z"/>
	</g>
</g>
<g id="tube_outline" class="st0">
	<g id="Lozenge_4_" class="st5">
		<g>
			<path class="st21" d="M274.7,113.2c0,0-2.3-16.1-9.3-23.2c-8.9-9.3-18.9-9.4-23.4-9.9c-32.7-2.4-81.9-2.4-81.9-2.4H160
				c0,0-49.1,0-81.9,2.4c-4.6,0.5-14.5,0.6-23.4,9.9c-7,7.1-9.3,23.2-9.3,23.2s-2.4,19-2.4,37.9v17.8c0,18.9,2.3,37.9,2.3,37.9
				s2.3,16.1,9.3,23.2c8.9,9.3,20.6,9,25.8,10c18.7,1.8,79.6,2.4,79.6,2.4s49.2-0.1,81.9-2.4c4.6-0.5,14.5-0.6,23.4-9.9
				c7-7.1,9.3-23.2,9.3-23.2s2.3-18.9,2.3-37.9v-17.8C277,132.2,274.7,113.2,274.7,113.2z M135.8,190.4v-65.7l63.2,33L135.8,190.4z"
				/>
		</g>
	</g>
</g>
<g id="ins_outline" class="st0">
	<path class="st22" d="M80.8,53.5h158.3c15,0,27.3,12.3,27.3,27.3v158.3c0,15-12.3,27.3-27.3,27.3H80.8c-15,0-27.3-12.3-27.3-27.3
		V80.8C53.5,65.8,65.8,53.5,80.8,53.5L80.8,53.5z M208.7,77.2c-5.3,0-9.6,4.3-9.6,9.6v23c0,5.3,4.3,9.6,9.6,9.6h24.1
		c5.3,0,9.6-4.3,9.6-9.6v-23c0-5.3-4.3-9.6-9.6-9.6H208.7L208.7,77.2z M242.4,143.6h-18.7c1.8,5.8,2.7,11.9,2.7,18.3
		c0,35.4-29.6,64.1-66.2,64.1S94,197.3,94,161.9c0-6.4,1-12.5,2.7-18.3H77.2v90c0,4.7,3.8,8.5,8.5,8.5H234c4.7,0,8.5-3.8,8.5-8.5
		v-90H242.4z M160.2,118.1c-23.6,0-42.8,18.6-42.8,41.4c0,22.9,19.2,41.4,42.8,41.4s42.8-18.6,42.8-41.4
		C203,136.6,183.8,118.1,160.2,118.1z"/>
</g>
<g id="tmb_outline" class="st0">
	<g class="st5">
		<g>
			<path class="st23" d="M160,39.8C93.6,39.8,39.8,93.6,39.8,160S93.6,280.2,160,280.2S280.2,226.4,280.2,160S226.4,39.8,160,39.8z
				 M203.2,226.6c-14.4,3.7-28.9,6.1-43.8,4.2c-5.2-0.7-10.1-2.1-14.6-5c-7-4.5-10.5-11.1-10.6-19.3c-0.2-9.3,0-18.5,0-27.8l0,0
				c0-9.5,0-19,0-28.5c0-1.8-0.6-2.3-2.3-2.2c-4.6,0.1-9.3,0-13.9,0.1c-1.7,0-2.4-0.3-2.3-2.2c0.1-4.9,0.1-9.7,0-14.6
				c0-1.5,0.5-2.2,1.8-2.9c8.4-4,15.5-9.5,20.7-17.2c4.3-6.3,6.7-13.2,6.9-20.8c0.1-1.9,0.6-2.3,2.3-2.2c4.7,0.1,9.4,0.1,14.1,0
				c1.8,0,2.3,0.5,2.3,2.3c-0.1,10.9,0,21.7-0.1,32.6c0,2,0.5,2.5,2.5,2.5c10.7-0.1,21.4,0.1,32.1-0.1c2.1,0,2.5,0.6,2.5,2.5
				c-0.1,6-0.1,12,0,18c0,1.8-0.6,2.1-2.2,2.1c-10.8-0.1-21.5,0-32.3-0.1c-1.9,0-2.6,0.3-2.6,2.4c0.1,13.8,0,27.6,0.1,41.4
				c0,1.6,0.1,3.2,0.4,4.8c1.4,8,7.2,12.9,15.3,13.1c7.8,0.2,15.1-2.1,22.2-5c2.6-1,2.6-1,2.6,1.7c0,6,0,12,0,18
				C204.5,225.5,204.4,226.2,203.2,226.6z"/>
		</g>
	</g>
</g>
<g id="nletter_dark_copy" class="st0">
	<polygon class="st24" points="277,231 44,231 44,89.9 160.5,180.8 277,89.9 	"/>
	<polygon class="st24" points="277,90 160.5,180.9 44,90 	"/>
</g>
<g id="fb_solid" class="st0">
	<g id="Layer_3_4_" class="st5">
		<path class="st25" d="M177.8,276.8h-48.2V160h-24.1v-40.2h24.1V95.6c0-32.8,13.6-52.3,52.3-52.3H214v40.2h-20.1
			c-15.1,0-16,5.6-16,16.1l-0.1,20.1h36.5L210,160h-32.2V276.8z"/>
	</g>
</g>
<g id="tw_solid" class="st0">
	<g id="Livello_x0020_1_3_" class="st5">
		<path class="st26" d="M281,90c-8.9,3.9-18.5,6.6-28.6,7.8c10.3-6.1,18.1-15.9,21.8-27.5c-9.6,5.7-20.2,9.8-31.6,12.1
			c-9.1-9.7-22-15.7-36.3-15.7c-27.4,0-49.7,22.3-49.7,49.7c0,3.9,0.4,7.7,1.3,11.3c-41.3-2.1-77.9-21.9-102.4-51.9
			c-4.3,7.3-6.7,15.9-6.7,25c0,17.2,8.8,32.5,22.1,41.4c-8.1-0.3-15.8-2.5-22.5-6.2c0,0.2,0,0.4,0,0.6c0,24.1,17.1,44.2,39.9,48.7
			c-4.2,1.1-8.6,1.7-13.1,1.7c-3.2,0-6.3-0.3-9.4-0.9c6.3,19.7,24.7,34.1,46.4,34.5c-17,13.3-38.4,21.3-61.7,21.3
			c-4,0-8-0.3-11.9-0.7c22,14.1,48.1,22.3,76.2,22.3c91.4,0,141.4-75.7,141.4-141.4c0-2.2,0-4.3-0.1-6.4
			C265.9,108.6,274.3,99.9,281,90L281,90z"/>
	</g>
</g>
<g id="tube_solid" class="st0">
	<g id="Lozenge_6_" class="st5">
		<g>
			<path class="st27" d="M274.7,113.2c0,0-2.3-16.1-9.3-23.2c-8.9-9.3-18.9-9.4-23.4-9.9c-32.7-2.4-81.9-2.4-81.9-2.4H160
				c0,0-49.1,0-81.9,2.4c-4.6,0.5-14.5,0.6-23.4,9.9c-7,7.1-9.3,23.2-9.3,23.2s-2.4,19-2.4,37.9v17.8c0,18.9,2.3,37.9,2.3,37.9
				s2.3,16.1,9.3,23.2c8.9,9.3,20.6,9,25.8,10c18.7,1.8,79.6,2.4,79.6,2.4s49.2-0.1,81.9-2.4c4.6-0.5,14.5-0.6,23.4-9.9
				c7-7.1,9.3-23.2,9.3-23.2s2.3-18.9,2.3-37.9v-17.8C277,132.2,274.7,113.2,274.7,113.2z M135.8,190.4v-65.7l63.2,33L135.8,190.4z"
				/>
		</g>
		<g>
			<path class="st21" d="M274.7,113.2c0,0-2.3-16.1-9.3-23.2c-8.9-9.3-18.9-9.4-23.4-9.9c-32.7-2.4-81.9-2.4-81.9-2.4H160
				c0,0-49.1,0-81.9,2.4c-4.6,0.5-14.5,0.6-23.4,9.9c-7,7.1-9.3,23.2-9.3,23.2s-2.4,19-2.4,37.9v17.8c0,18.9,2.3,37.9,2.3,37.9
				s2.3,16.1,9.3,23.2c8.9,9.3,20.6,9,25.8,10c18.7,1.8,79.6,2.4,79.6,2.4s49.2-0.1,81.9-2.4c4.6-0.5,14.5-0.6,23.4-9.9
				c7-7.1,9.3-23.2,9.3-23.2s2.3-18.9,2.3-37.9v-17.8C277,132.2,274.7,113.2,274.7,113.2z M135.8,190.4v-65.7l63.2,33L135.8,190.4z"
				/>
		</g>
	</g>
</g>
<g id="ins_solid" class="st0">
	<path class="st28" d="M80.8,53.5h158.3c15,0,27.3,12.3,27.3,27.3v158.3c0,15-12.3,27.3-27.3,27.3H80.8c-15,0-27.3-12.3-27.3-27.3
		V80.8C53.5,65.8,65.8,53.5,80.8,53.5L80.8,53.5z M208.7,77.2c-5.3,0-9.6,4.3-9.6,9.6v23c0,5.3,4.3,9.6,9.6,9.6h24.1
		c5.3,0,9.6-4.3,9.6-9.6v-23c0-5.3-4.3-9.6-9.6-9.6H208.7L208.7,77.2z M242.4,143.6h-18.7c1.8,5.8,2.7,11.9,2.7,18.3
		c0,35.4-29.6,64.1-66.2,64.1S94,197.3,94,161.9c0-6.4,1-12.5,2.7-18.3H77.2v90c0,4.7,3.8,8.5,8.5,8.5H234c4.7,0,8.5-3.8,8.5-8.5
		v-90H242.4z M160.2,118.1c-23.6,0-42.8,18.6-42.8,41.4c0,22.9,19.2,41.4,42.8,41.4s42.8-18.6,42.8-41.4
		C203,136.6,183.8,118.1,160.2,118.1z"/>
</g>
<g id="tmb_solid" class="st0">
	<g class="st5">
		<g>
			<path class="st29" d="M160,39.8C93.6,39.8,39.8,93.6,39.8,160S93.6,280.2,160,280.2S280.2,226.4,280.2,160S226.4,39.8,160,39.8z
				 M203.2,226.6c-14.4,3.7-28.9,6.1-43.8,4.2c-5.2-0.7-10.1-2.1-14.6-5c-7-4.5-10.5-11.1-10.6-19.3c-0.2-9.3,0-18.5,0-27.8l0,0
				c0-9.5,0-19,0-28.5c0-1.8-0.6-2.3-2.3-2.2c-4.6,0.1-9.3,0-13.9,0.1c-1.7,0-2.4-0.3-2.3-2.2c0.1-4.9,0.1-9.7,0-14.6
				c0-1.5,0.5-2.2,1.8-2.9c8.4-4,15.5-9.5,20.7-17.2c4.3-6.3,6.7-13.2,6.9-20.8c0.1-1.9,0.6-2.3,2.3-2.2c4.7,0.1,9.4,0.1,14.1,0
				c1.8,0,2.3,0.5,2.3,2.3c-0.1,10.9,0,21.7-0.1,32.6c0,2,0.5,2.5,2.5,2.5c10.7-0.1,21.4,0.1,32.1-0.1c2.1,0,2.5,0.6,2.5,2.5
				c-0.1,6-0.1,12,0,18c0,1.8-0.6,2.1-2.2,2.1c-10.8-0.1-21.5,0-32.3-0.1c-1.9,0-2.6,0.3-2.6,2.4c0.1,13.8,0,27.6,0.1,41.4
				c0,1.6,0.1,3.2,0.4,4.8c1.4,8,7.2,12.9,15.3,13.1c7.8,0.2,15.1-2.1,22.2-5c2.6-1,2.6-1,2.6,1.7c0,6,0,12,0,18
				C204.5,225.5,204.4,226.2,203.2,226.6z"/>
		</g>
		<g>
			<path class="st23" d="M160,39.8C93.6,39.8,39.8,93.6,39.8,160S93.6,280.2,160,280.2S280.2,226.4,280.2,160S226.4,39.8,160,39.8z
				 M203.2,226.6c-14.4,3.7-28.9,6.1-43.8,4.2c-5.2-0.7-10.1-2.1-14.6-5c-7-4.5-10.5-11.1-10.6-19.3c-0.2-9.3,0-18.5,0-27.8l0,0
				c0-9.5,0-19,0-28.5c0-1.8-0.6-2.3-2.3-2.2c-4.6,0.1-9.3,0-13.9,0.1c-1.7,0-2.4-0.3-2.3-2.2c0.1-4.9,0.1-9.7,0-14.6
				c0-1.5,0.5-2.2,1.8-2.9c8.4-4,15.5-9.5,20.7-17.2c4.3-6.3,6.7-13.2,6.9-20.8c0.1-1.9,0.6-2.3,2.3-2.2c4.7,0.1,9.4,0.1,14.1,0
				c1.8,0,2.3,0.5,2.3,2.3c-0.1,10.9,0,21.7-0.1,32.6c0,2,0.5,2.5,2.5,2.5c10.7-0.1,21.4,0.1,32.1-0.1c2.1,0,2.5,0.6,2.5,2.5
				c-0.1,6-0.1,12,0,18c0,1.8-0.6,2.1-2.2,2.1c-10.8-0.1-21.5,0-32.3-0.1c-1.9,0-2.6,0.3-2.6,2.4c0.1,13.8,0,27.6,0.1,41.4
				c0,1.6,0.1,3.2,0.4,4.8c1.4,8,7.2,12.9,15.3,13.1c7.8,0.2,15.1-2.1,22.2-5c2.6-1,2.6-1,2.6,1.7c0,6,0,12,0,18
				C204.5,225.5,204.4,226.2,203.2,226.6z"/>
		</g>
	</g>
</g>
<g id="nletter_dark_copy_2" class="st0">
	<polygon class="st30" points="277,231 44,231 44,89.9 160.5,180.8 277,89.9 	"/>
	<polygon class="st24" points="277,90 160.5,180.9 44,90 	"/>
</g>
<g id="n_america_dark" class="st0">
	<g class="st5">
		<path class="st13" d="M174.4,85c4,0.3,8.2,0.7,11.8-1.5c-0.7-1.8-12.9-1.4-15.2-1.8c-1.6-0.3-4.3-0.3-4.1,2.1
			c0.2,1.6,6.7,1.2,7.8,1.3c-0.2,0-0.5,0-0.7-0.1c0.2,0,0.4,0,0.6,0C174.5,85,173.4,85,174.4,85C175.6,85.1,173.1,84.9,174.4,85z"/>
		<path class="st13" d="M110.9,92.2c2.5,2,5.1-1.3,7.6-1.5c2-0.2,5.1,2.7,1.7,2.8c1.2,0,5.6,0.1,6.2,1.5c0.4,0.9-6.3,1.3-7,1.3
			c0.1,1.1,6.7,2.9,8,3.2c3.5,0.8,5.6-2,8.9-1.6c2.9,0.3,6.6,0.9,8.8-1.7c1.1-1.3-3.1-2-3.7-2.4c-1.3-0.8,0.2-3.7-0.2-4.9
			c-0.8-2.4-3.4,3.7-5.5,1.2c-1.2-1.4-2.1-0.4-3.6-0.3c-1.9,0.2-3.9-0.8-5.5-1.5c-3.6-1.6-6.5-3.4-10.4-1.9
			C114.5,87,107.6,89.8,110.9,92.2C111.7,92.8,110.6,91.9,110.9,92.2C111.5,92.7,110.6,91.9,110.9,92.2
			C111.7,92.8,110.6,91.9,110.9,92.2z"/>
		<path class="st13" d="M272,96.1c-0.3-0.3-5.7-1.1-5.4-1.4c0.5-0.4,1-0.7,1.6-1c-0.3-0.6-0.6-1.2-0.8-1.8c0-0.2,8.3,2.4,8.5,1.6
			c0.1-0.8-8.6-4-6.2-5.6s6.4-1.2,8.4-3.4c1.1-1.2,2.4-2.9,2.8-4.5c0.4-1.8,0.3-3.7,2.2-4.7c2.7-1.3,6.1-0.3,8.3-2.7
			c-3,2.1-8.9-0.6-12-1.5c-4.4-1.2-9-0.9-13.5-0.7c-9.9,0.5-19.8,2.2-29.7,1.9c-4.1-0.1-8.3-0.5-12.4,0.3c-4.4,0.8-8.5,3-12.9,4
			c-2,0.4-5.8,0.1-7.4,1.6c-1.3,1.3,3.1,3.2,3.8,3.3c3.8,0.4,7.5-0.7,11.3,1.3c3.5,1.9,3.9,6.2,6.8,8.6c4.8,3.9,1.4,7-1.1,10.9
			c-3.2,4.8,5.2,25.4,11.9,19.3c2.8-2.5,2.4-6.9,4.5-9.9c2.4-3.6,6.6-5.2,10.3-7.2c3.9-2.2,7.4-4.6,12-5.2
			C263.9,99.2,272.6,96.8,272,96.1C271.8,95.9,272.3,96.5,272,96.1z"/>
		<path class="st13" d="M159.7,89.8c0.9-0.5,5.3-1.1,5.3-2.4c0.1-1.6-4.9-0.4-5.6,0C157.7,88.4,158.5,90.4,159.7,89.8
			C160.4,89.3,159.3,90,159.7,89.8z"/>
		<path class="st13" d="M150.5,91.4c1.9,4.7,5.5-5,4.8-5c-3.3,0-5.4,2.7-8.9,2.4C146.4,88.6,150.4,91.3,150.5,91.4
			C150.9,92.5,150.3,91.1,150.5,91.4z"/>
		<path class="st13" d="M172.6,76.3c0.7,0.1,6.6-1.3,5.5-2.5c-1.4-1.5-12.7,0.7-5.2,2.5c-0.3-0.1-0.5-0.1-0.8-0.1
			C173.6,76.1,171.1,75.9,172.6,76.3C173.4,76.4,171.1,76,172.6,76.3z"/>
		<path class="st13" d="M182,77.7c0.6,0.1,1.1,0.4,1.4,0.9c0.1,1.7-6.8,1.5-7.8,1.3c6.1,3.6,13.7,1.9,19.2-1.4
			c7-4.2,15.8-5.2,23.3-8.6c-0.6-1.1-15.2,0.7-17.2,0.9c-5.2,0.3-11.9-0.3-16.7,1.9c1.9-0.2,10.6-0.8,11.7,0.9
			c0.9,1.4-10.9,0.5-11.9,1.3c-0.8,0.6,2.6,1.8,1.2,2.5c-1.2,0.6-2.8,0.3-4,0c0.3,0.1,0.6,0.2,1,0.4C180.6,77.4,182.3,77.8,182,77.7
			C181.5,77.6,181.5,77.6,182,77.7C182.6,77.9,180.8,77.4,182,77.7z"/>
		<path class="st13" d="M73.8,131.8c-0.1,0.3,0,2.3,0.7,2C75.8,133.2,73.4,130.9,73.8,131.8C73.9,131.4,73.9,131.4,73.8,131.8
			C73.8,131.6,74.1,131,73.8,131.8C73.7,132.1,74.2,130.8,73.8,131.8z"/>
		<path class="st13" d="M76.4,137.2c-0.6,1.3,1.9,4,1.8,1.8c0-0.7-1-3.6-1.8-1.6C76.3,137.3,76.6,136.7,76.4,137.2
			C76.3,137.4,76.6,136.5,76.4,137.2z"/>
		<path class="st13" d="M43.4,130.8c-0.7,0.3-3.3,0.9-2.7,2.3c0.2,0.4,4.3-1.4,4-2.1C44.3,130.5,43.9,130.5,43.4,130.8
			C43.1,131.1,44.1,130.5,43.4,130.8C43.1,131,44.1,130.5,43.4,130.8z"/>
		<path class="st13" d="M165.4,111c-1.4,3.8,7.7,1.5,7.8,1.9c-0.3-3.3-6.5-5.4-7.8-1.7c0.3-0.9,0.2-0.5-0.1,0.1
			C165.3,111.2,165.7,110.1,165.4,111C165.1,111.8,165.8,109.8,165.4,111z"/>
		<path class="st13" d="M152.2,98.6c0.5-0.2,1-0.6,0.9-1.3c-1-0.8-4.2-0.9-4.6,0.8c-0.5,2.4,3.4,1,4.1,0.1c-0.2,0.1-0.4,0.3-0.6,0.4
			C152.3,98.4,151.4,99,152.2,98.6C152.6,98.4,151.3,99,152.2,98.6z"/>
		<path class="st13" d="M172.2,94.9c1.9-0.5,3.9,0.2,5.7,0.5c2,0.3,3.9-0.6,5.9-0.1c3.3,0.8,6.9,5.3,9.3,7.6c4,4-4.5,1.4-5.6,3.6
			c-1.6,3.3-6.4,0.4-7.9,3.2c-0.9,1.6,3.7,0.4,3.9,0.3c1.8-0.6,3.3,0.7,4.5,1.9c1,1.1,7.5,7.7,9.3,5.9c1.1-1.1-3.7-4.7-3.1-5.3
			c1.1-1.2,5.8,4,5.4,0.2c-0.3-2.8-4.6-7.7,1.1-6.1c2.1,0.6,6.9,0.6,3.9-2.9c-2.4-2.9-4.2-3.5-5.8-7c-1.1-2.4-5-2.7-6.9-4.3
			c-3-2.5-5.2-0.7-8.3-2.4c-3-1.6-4.8-2.9-7.8-0.5c-3.6,2.9-3.4,0.3-1.7-2.7c-1.5-1.6-6.8,3.7-7.1,5.1
			C166.2,95.1,171.6,95.1,172.2,94.9C173.1,94.7,171.7,95.1,172.2,94.9z"/>
		<path class="st13" d="M158.1,259.5c-3.5-2.1-9.3,3.4-10.1-3.4c-0.3-2.2,2.2-9.4-0.3-10.5c-2.4-1.2-10.1,2.7-8-3
			c0.5-1.2,5.9-11.6,0-9.2c-3.8,1.6-3.7,5.9-8.3,6.7c-5.6,1-7.7-5.2-7.7-9.7c-0.1-6.3,5.2-19.5,13.6-15.6c4.6,2.1,4.6-2.9,8.7-1.9
			c2.8,0.7,7.1,0.5,8,3.8c0.2,0.8,1.1,10.4,3.2,7.5c2.2-2.9-0.1-7.5,0.1-10.8c0.2-4.5,4.3-6.4,7.3-8.8c1.5-1.2,6.1-11.7,4.2-12.2
			c0.3,0.1,0.9,1.7,1.1,1.7c1.6-1,1.2-3.5,2.3-4.8c0.9-1.1,1.6-2.3,2.6-3.4c2.5-2.9,4.8-3.1,6.5-6.9c1.9-4.1,6.3-6.1,10-8.1
			c5.4-2.8-0.5,4.8-0.5,4.8c1.7,1.4,8.8-5.2,9.9-6.3c-0.3-0.4-5.1,0.2-6.3-1c-1.8-1.7-1.4-4-0.6-6.2c2.8-8.3-9,1.2-9.3-0.1
			c-0.8-4.1,9.5-7.5,12.3-7.6c4.8-0.2,12.9-1.8,14.1-7.5c0.9-4-1.7-4.7-4.8-3.9c-2.6,0.7-1.1-3.2-1.6-4.7c-1.7-4.9-3-10.4-5.3-15.1
			c-0.6,0-3.9,4.9-4.5,5.5c-3,3.1-3.7-2.6-4.2-4.9c-0.8-3.7-9.6-10.7-12.4-5.5c-1.1,2-0.5,4.4-1.6,6.4c-1.9,3.4,0.8,5.3,0,8.6
			c-1.3,5.4-6,7.5-5.9,13.6c0,1.4-0.2,6.8-3.1,5.2c-2.5-1.3-2.6-7.1-2.5-9.6c0.3-4.8-10.8-7.9-14.2-10.3c-6.1-4.4-4.6-9.5,0.5-14
			c1.8-1.6,3-4.9,4.9-6.1c1.2-0.8,7.2-0.3,7.3-2.2c-1-1.2-2.7-2-3-3.7c0-0.1,9.7-1.1,10.7-1.2c3.2-0.3,7.9-7.3,2.6-8.1
			c-3.9-0.6-4,6.4-7.5,5.8c-2.1-0.4-0.8-2.9-1.2-4.1c-0.7-1.8-3.8-0.4-4.6-2.9c-0.4-1.3-0.2-3.3-1.9-3.6c-1.7-0.4-3.8,1.2-4.3,2.8
			c-0.5,1.8,3.6,2.1,2.1,4.4c-1.1,1.7-3.3,2.3-4.7,3.8c-0.9,1-3.8-1.7-4.8-1.8c-2.1-0.2-4.3,0.2-6.4-0.3c-4.4-0.9-7.3-0.1-8.5,4.5
			c-1,0.2-3.2-4.5-6.1-4c-2.5,0.4-6.6,1.2-4.9-2.3c-2.2-3.7-17-3.4-20.8-3c-3.2,0.3-6.3,1.5-9.5,1.9c-3.9,0.5-7.6-0.4-11.4-1.3
			c-14.1-3.6-28.4-4.9-41.7,2.4c-3.5,1.9,2.7,3,3.1,4.6c0.6,2-8,1.9-9.1,2.5c-4.7,2.7,2.9,2.7,4.7,2.7c6.4,0.1-0.2,4.7-2.8,5.6
			c-3.6,1.2-5,2.3-3.4,6.2c1.1,2.8-1.6,4.9,1.1,6c1.5,0.6,6.7-0.3,5,2.3c-0.6,0.9-7.5,7.4-7.3,7.7c2.6,3.1,8.1-4.3,9.4-5.8
			c1.9-2.2,3.8-4.5,6-6.4c2.3-2,3.4-0.9,6-1.2c2.3-0.3,3.3-2.8,5.9-2.6c2.2,0.1,4.3,0.9,6.3,1.7c3.9,1.6,8,3.6,11.6,5.9
			c7.4,4.9,5.3,14.9,8.6,22c1.7,3.7,6.6,5.2,7.1,9.6c0.2,1.5,0.6,3.7-0.1,5.1c-0.8,1.5-1.9-2.4-2.4-2.6c0.5,0.2-3.6,16.1-4,17.9
			c-1.5,6.3-0.7,12.5,1.7,18.5c1.1,2.7,2.5,4.6,4.6,6.5c2.2,2,2.1,5.6,2.8,8.3c0.9,3,2,6.6,4.3,8.8c2.2,2.1,0.6,5.6,4.1,6.8
			c-3.6-2.7-4.5-10.9-5.7-15c-0.4-1.3-1.3-5.5,1.5-3.6c2.2,1.5,2.6,4.9,3.6,7.2c2,4.7,8.2,9.3,8.2,14.5c0.1,6.2,4.8,8.3,10,10.6
			c2.4,1,4.8,2.8,7.4,2c3.2-0.9,5.2,0.9,7.3,3.2c2.1,2.3,5.7,0.5,7.8,2.6c2,2,1.7,5.3,3.9,7.1c1.7,1.5,4.5,3.1,6.7,3.8
			c2.3,0.8,3.4-4.5,5.6-1.6L158.1,259.5z M167.6,178.3c-0.5,0-0.9-0.2-1.2-0.6c-0.1-0.2-0.1-0.3-0.1-0.5c0.1-0.4,0.6-0.9,1.2-1.4
			C168.3,175.9,168,178.1,167.6,178.3C167.1,178.2,167.9,178.2,167.6,178.3z M162.6,182.5c-1.4,1.2-5.3,0.9-2.8-1.4
			c1.8-1.7,5.3-0.6,2.5,1.7C162.4,182.7,163.1,182.1,162.6,182.5C162.3,182.7,163.4,181.9,162.6,182.5
			C161.9,183.1,163.4,181.8,162.6,182.5z M164.9,173.5c-0.2,0.8-0.7,1.1-1.5,0.8c-1.6-0.2-1.1,1.4-1.5,2.4c-0.7,1.6-4,0.5-4.4-0.9
			c-0.2-0.9,3.1-5.6-0.5-4.6c-2.2,0.6-2.7,3.1-3,4.9c-0.4,2.1-0.6,5.6-2.4,7.1c-2.2,1.8-3-2.1-2.8-3.4c0.6-3.2,3.7-11.3,7.4-11.7
			c-1.4-0.9-5.1-2.3-6.7-1.8c-0.8,0.3-4.6,2.5-5.2,0.3c-0.4-1.2,4.2-4.5,4.9-4.9c2.7-1.7,5.7-1.4,7.2,1.7c0.8,1.6,1,3.5,2,5.1
			c1.1,1.8,1.7,0.2,3.1,0.2C163.7,168.6,165.3,171.8,164.9,173.5C164.9,173.3,165,172.6,164.9,173.5
			C164.7,174.5,165,172.6,164.9,173.5z"/>
		<path class="st13" d="M282.5,106.8c-0.8,0.3-11.8,1.4-9.1,4.8c0.5,0.7,3.9,0.9,4.8,1.3c1.8,0.8,3.7-0.2,5.3-1.1
			c1.3-0.8,2.8-1.5,3.8-2.6C289.3,107.1,283.6,106.3,282.5,106.8C282.8,106.7,282.5,106.8,282.5,106.8
			C281.6,107.1,283.4,106.4,282.5,106.8z"/>
		<path class="st13" d="M82.4,154.4c-2.8,2,6.4,8.1,5.6,5.1C87.6,157.7,83.6,153.6,82.4,154.4C81.8,154.9,82.8,154.1,82.4,154.4z"/>
		<path class="st13" d="M213.4,163.7c4.1-1.8-5.4-7.1-3.6-10.5c-2.8,1.5-5.4,6.8-5.9,9.9c-0.4,2.6,8.4,1.1,9.7,0.5
			C213.1,163.9,213.8,163.6,213.4,163.7C214.2,163.4,212.8,164,213.4,163.7z"/>
	</g>
</g>
<g id="globe_dark" class="st0">
	<circle class="st14" cx="160" cy="160" r="120.3"/>
	<ellipse class="st14" cx="160" cy="160" rx="96.3" ry="120.3"/>
	<ellipse class="st14" cx="160" cy="160" rx="43" ry="120.3"/>
	<line class="st14" x1="40" y1="160" x2="280" y2="160"/>
	<path class="st14" d="M53,104c0,0,21.7-9.7,107.5-9.7S267,104,267,104"/>
	<path class="st14" d="M83.7,67.6c0,0,15.5-16.6,76.7-16.6s76,16.6,76,16.6"/>
	<path class="st14" d="M53,216c0,0,21.7,9.7,107.5,9.7S267,216,267,216"/>
	<path class="st14" d="M83.7,252.4c0,0,15.5,16.6,76.7,16.6s76-16.6,76-16.6"/>
</g>
<g id="n_a_solid" class="st0">
	<g class="st5">
		<path class="st31" d="M174.4,85c4,0.3,8.2,0.7,11.8-1.5c-0.7-1.8-12.9-1.4-15.2-1.8c-1.6-0.3-4.3-0.3-4.1,2.1
			c0.2,1.6,6.7,1.2,7.8,1.3c-0.2,0-0.5,0-0.7-0.1c0.2,0,0.4,0,0.6,0C174.5,85,173.4,85,174.4,85C175.6,85.1,173.1,84.9,174.4,85z"/>
		<path class="st31" d="M110.9,92.2c2.5,2,5.1-1.3,7.6-1.5c2-0.2,5.1,2.7,1.7,2.8c1.2,0,5.6,0.1,6.2,1.5c0.4,0.9-6.3,1.3-7,1.3
			c0.1,1.1,6.7,2.9,8,3.2c3.5,0.8,5.6-2,8.9-1.6c2.9,0.3,6.6,0.9,8.8-1.7c1.1-1.3-3.1-2-3.7-2.4c-1.3-0.8,0.2-3.7-0.2-4.9
			c-0.8-2.4-3.4,3.7-5.5,1.2c-1.2-1.4-2.1-0.4-3.6-0.3c-1.9,0.2-3.9-0.8-5.5-1.5c-3.6-1.6-6.5-3.4-10.4-1.9
			C114.5,87,107.6,89.8,110.9,92.2C111.7,92.8,110.6,91.9,110.9,92.2C111.5,92.7,110.6,91.9,110.9,92.2
			C111.7,92.8,110.6,91.9,110.9,92.2z"/>
		<path class="st31" d="M272,96.1c-0.3-0.3-5.7-1.1-5.4-1.4c0.5-0.4,1-0.7,1.6-1c-0.3-0.6-0.6-1.2-0.8-1.8c0-0.2,8.3,2.4,8.5,1.6
			c0.1-0.8-8.6-4-6.2-5.6s6.4-1.2,8.4-3.4c1.1-1.2,2.4-2.9,2.8-4.5c0.4-1.8,0.3-3.7,2.2-4.7c2.7-1.3,6.1-0.3,8.3-2.7
			c-3,2.1-8.9-0.6-12-1.5c-4.4-1.2-9-0.9-13.5-0.7c-9.9,0.5-19.8,2.2-29.7,1.9c-4.1-0.1-8.3-0.5-12.4,0.3c-4.4,0.8-8.5,3-12.9,4
			c-2,0.4-5.8,0.1-7.4,1.6c-1.3,1.3,3.1,3.2,3.8,3.3c3.8,0.4,7.5-0.7,11.3,1.3c3.5,1.9,3.9,6.2,6.8,8.6c4.8,3.9,1.4,7-1.1,10.9
			c-3.2,4.8,5.2,25.4,11.9,19.3c2.8-2.5,2.4-6.9,4.5-9.9c2.4-3.6,6.6-5.2,10.3-7.2c3.9-2.2,7.4-4.6,12-5.2
			C263.9,99.2,272.6,96.8,272,96.1C271.8,95.9,272.3,96.5,272,96.1z"/>
		<path class="st31" d="M159.7,89.8c0.9-0.5,5.3-1.1,5.3-2.4c0.1-1.6-4.9-0.4-5.6,0C157.7,88.4,158.5,90.4,159.7,89.8
			C160.4,89.3,159.3,90,159.7,89.8z"/>
		<path class="st31" d="M150.5,91.4c1.9,4.7,5.5-5,4.8-5c-3.3,0-5.4,2.7-8.9,2.4C146.4,88.6,150.4,91.3,150.5,91.4
			C150.9,92.5,150.3,91.1,150.5,91.4z"/>
		<path class="st31" d="M172.6,76.3c0.7,0.1,6.6-1.3,5.5-2.5c-1.4-1.5-12.7,0.7-5.2,2.5c-0.3-0.1-0.5-0.1-0.8-0.1
			C173.6,76.1,171.1,75.9,172.6,76.3C173.4,76.4,171.1,76,172.6,76.3z"/>
		<path class="st31" d="M182,77.7c0.6,0.1,1.1,0.4,1.4,0.9c0.1,1.7-6.8,1.5-7.8,1.3c6.1,3.6,13.7,1.9,19.2-1.4
			c7-4.2,15.8-5.2,23.3-8.6c-0.6-1.1-15.2,0.7-17.2,0.9c-5.2,0.3-11.9-0.3-16.7,1.9c1.9-0.2,10.6-0.8,11.7,0.9
			c0.9,1.4-10.9,0.5-11.9,1.3c-0.8,0.6,2.6,1.8,1.2,2.5c-1.2,0.6-2.8,0.3-4,0c0.3,0.1,0.6,0.2,1,0.4C180.6,77.4,182.3,77.8,182,77.7
			C181.5,77.6,181.5,77.6,182,77.7C182.6,77.9,180.8,77.4,182,77.7z"/>
		<path class="st31" d="M73.8,131.8c-0.1,0.3,0,2.3,0.7,2C75.8,133.2,73.4,130.9,73.8,131.8C73.9,131.4,73.9,131.4,73.8,131.8
			C73.8,131.6,74.1,131,73.8,131.8C73.7,132.1,74.2,130.8,73.8,131.8z"/>
		<path class="st31" d="M76.4,137.2c-0.6,1.3,1.9,4,1.8,1.8c0-0.7-1-3.6-1.8-1.6C76.3,137.3,76.6,136.7,76.4,137.2
			C76.3,137.4,76.6,136.5,76.4,137.2z"/>
		<path class="st31" d="M43.4,130.8c-0.7,0.3-3.3,0.9-2.7,2.3c0.2,0.4,4.3-1.4,4-2.1C44.3,130.5,43.9,130.5,43.4,130.8
			C43.1,131.1,44.1,130.5,43.4,130.8C43.1,131,44.1,130.5,43.4,130.8z"/>
		<path class="st31" d="M165.4,111c-1.4,3.8,7.7,1.5,7.8,1.9c-0.3-3.3-6.5-5.4-7.8-1.7c0.3-0.9,0.2-0.5-0.1,0.1
			C165.3,111.2,165.7,110.1,165.4,111C165.1,111.8,165.8,109.8,165.4,111z"/>
		<path class="st31" d="M152.2,98.6c0.5-0.2,1-0.6,0.9-1.3c-1-0.8-4.2-0.9-4.6,0.8c-0.5,2.4,3.4,1,4.1,0.1c-0.2,0.1-0.4,0.3-0.6,0.4
			C152.3,98.4,151.4,99,152.2,98.6C152.6,98.4,151.3,99,152.2,98.6z"/>
		<path class="st31" d="M172.2,94.9c1.9-0.5,3.9,0.2,5.7,0.5c2,0.3,3.9-0.6,5.9-0.1c3.3,0.8,6.9,5.3,9.3,7.6c4,4-4.5,1.4-5.6,3.6
			c-1.6,3.3-6.4,0.4-7.9,3.2c-0.9,1.6,3.7,0.4,3.9,0.3c1.8-0.6,3.3,0.7,4.5,1.9c1,1.1,7.5,7.7,9.3,5.9c1.1-1.1-3.7-4.7-3.1-5.3
			c1.1-1.2,5.8,4,5.4,0.2c-0.3-2.8-4.6-7.7,1.1-6.1c2.1,0.6,6.9,0.6,3.9-2.9c-2.4-2.9-4.2-3.5-5.8-7c-1.1-2.4-5-2.7-6.9-4.3
			c-3-2.5-5.2-0.7-8.3-2.4c-3-1.6-4.8-2.9-7.8-0.5c-3.6,2.9-3.4,0.3-1.7-2.7c-1.5-1.6-6.8,3.7-7.1,5.1
			C166.2,95.1,171.6,95.1,172.2,94.9C173.1,94.7,171.7,95.1,172.2,94.9z"/>
		<path class="st31" d="M158.1,259.5c-3.5-2.1-9.3,3.4-10.1-3.4c-0.3-2.2,2.2-9.4-0.3-10.5c-2.4-1.2-10.1,2.7-8-3
			c0.5-1.2,5.9-11.6,0-9.2c-3.8,1.6-3.7,5.9-8.3,6.7c-5.6,1-7.7-5.2-7.7-9.7c-0.1-6.3,5.2-19.5,13.6-15.6c4.6,2.1,4.6-2.9,8.7-1.9
			c2.8,0.7,7.1,0.5,8,3.8c0.2,0.8,1.1,10.4,3.2,7.5c2.2-2.9-0.1-7.5,0.1-10.8c0.2-4.5,4.3-6.4,7.3-8.8c1.5-1.2,6.1-11.7,4.2-12.2
			c0.3,0.1,0.9,1.7,1.1,1.7c1.6-1,1.2-3.5,2.3-4.8c0.9-1.1,1.6-2.3,2.6-3.4c2.5-2.9,4.8-3.1,6.5-6.9c1.9-4.1,6.3-6.1,10-8.1
			c5.4-2.8-0.5,4.8-0.5,4.8c1.7,1.4,8.8-5.2,9.9-6.3c-0.3-0.4-5.1,0.2-6.3-1c-1.8-1.7-1.4-4-0.6-6.2c2.8-8.3-9,1.2-9.3-0.1
			c-0.8-4.1,9.5-7.5,12.3-7.6c4.8-0.2,12.9-1.8,14.1-7.5c0.9-4-1.7-4.7-4.8-3.9c-2.6,0.7-1.1-3.2-1.6-4.7c-1.7-4.9-3-10.4-5.3-15.1
			c-0.6,0-3.9,4.9-4.5,5.5c-3,3.1-3.7-2.6-4.2-4.9c-0.8-3.7-9.6-10.7-12.4-5.5c-1.1,2-0.5,4.4-1.6,6.4c-1.9,3.4,0.8,5.3,0,8.6
			c-1.3,5.4-6,7.5-5.9,13.6c0,1.4-0.2,6.8-3.1,5.2c-2.5-1.3-2.6-7.1-2.5-9.6c0.3-4.8-10.8-7.9-14.2-10.3c-6.1-4.4-4.6-9.5,0.5-14
			c1.8-1.6,3-4.9,4.9-6.1c1.2-0.8,7.2-0.3,7.3-2.2c-1-1.2-2.7-2-3-3.7c0-0.1,9.7-1.1,10.7-1.2c3.2-0.3,7.9-7.3,2.6-8.1
			c-3.9-0.6-4,6.4-7.5,5.8c-2.1-0.4-0.8-2.9-1.2-4.1c-0.7-1.8-3.8-0.4-4.6-2.9c-0.4-1.3-0.2-3.3-1.9-3.6c-1.7-0.4-3.8,1.2-4.3,2.8
			c-0.5,1.8,3.6,2.1,2.1,4.4c-1.1,1.7-3.3,2.3-4.7,3.8c-0.9,1-3.8-1.7-4.8-1.8c-2.1-0.2-4.3,0.2-6.4-0.3c-4.4-0.9-7.3-0.1-8.5,4.5
			c-1,0.2-3.2-4.5-6.1-4c-2.5,0.4-6.6,1.2-4.9-2.3c-2.2-3.7-17-3.4-20.8-3c-3.2,0.3-6.3,1.5-9.5,1.9c-3.9,0.5-7.6-0.4-11.4-1.3
			c-14.1-3.6-28.4-4.9-41.7,2.4c-3.5,1.9,2.7,3,3.1,4.6c0.6,2-8,1.9-9.1,2.5c-4.7,2.7,2.9,2.7,4.7,2.7c6.4,0.1-0.2,4.7-2.8,5.6
			c-3.6,1.2-5,2.3-3.4,6.2c1.1,2.8-1.6,4.9,1.1,6c1.5,0.6,6.7-0.3,5,2.3c-0.6,0.9-7.5,7.4-7.3,7.7c2.6,3.1,8.1-4.3,9.4-5.8
			c1.9-2.2,3.8-4.5,6-6.4c2.3-2,3.4-0.9,6-1.2c2.3-0.3,3.3-2.8,5.9-2.6c2.2,0.1,4.3,0.9,6.3,1.7c3.9,1.6,8,3.6,11.6,5.9
			c7.4,4.9,5.3,14.9,8.6,22c1.7,3.7,6.6,5.2,7.1,9.6c0.2,1.5,0.6,3.7-0.1,5.1c-0.8,1.5-1.9-2.4-2.4-2.6c0.5,0.2-3.6,16.1-4,17.9
			c-1.5,6.3-0.7,12.5,1.7,18.5c1.1,2.7,2.5,4.6,4.6,6.5c2.2,2,2.1,5.6,2.8,8.3c0.9,3,2,6.6,4.3,8.8c2.2,2.1,0.6,5.6,4.1,6.8
			c-3.6-2.7-4.5-10.9-5.7-15c-0.4-1.3-1.3-5.5,1.5-3.6c2.2,1.5,2.6,4.9,3.6,7.2c2,4.7,8.2,9.3,8.2,14.5c0.1,6.2,4.8,8.3,10,10.6
			c2.4,1,4.8,2.8,7.4,2c3.2-0.9,5.2,0.9,7.3,3.2c2.1,2.3,5.7,0.5,7.8,2.6c2,2,1.7,5.3,3.9,7.1c1.7,1.5,4.5,3.1,6.7,3.8
			c2.3,0.8,3.4-4.5,5.6-1.6L158.1,259.5z M167.6,178.3c-0.5,0-0.9-0.2-1.2-0.6c-0.1-0.2-0.1-0.3-0.1-0.5c0.1-0.4,0.6-0.9,1.2-1.4
			C168.3,175.9,168,178.1,167.6,178.3C167.1,178.2,167.9,178.2,167.6,178.3z M162.6,182.5c-1.4,1.2-5.3,0.9-2.8-1.4
			c1.8-1.7,5.3-0.6,2.5,1.7C162.4,182.7,163.1,182.1,162.6,182.5C162.3,182.7,163.4,181.9,162.6,182.5
			C161.9,183.1,163.4,181.8,162.6,182.5z M164.9,173.5c-0.2,0.8-0.7,1.1-1.5,0.8c-1.6-0.2-1.1,1.4-1.5,2.4c-0.7,1.6-4,0.5-4.4-0.9
			c-0.2-0.9,3.1-5.6-0.5-4.6c-2.2,0.6-2.7,3.1-3,4.9c-0.4,2.1-0.6,5.6-2.4,7.1c-2.2,1.8-3-2.1-2.8-3.4c0.6-3.2,3.7-11.3,7.4-11.7
			c-1.4-0.9-5.1-2.3-6.7-1.8c-0.8,0.3-4.6,2.5-5.2,0.3c-0.4-1.2,4.2-4.5,4.9-4.9c2.7-1.7,5.7-1.4,7.2,1.7c0.8,1.6,1,3.5,2,5.1
			c1.1,1.8,1.7,0.2,3.1,0.2C163.7,168.6,165.3,171.8,164.9,173.5C164.9,173.3,165,172.6,164.9,173.5
			C164.7,174.5,165,172.6,164.9,173.5z"/>
		<path class="st31" d="M282.5,106.8c-0.8,0.3-11.8,1.4-9.1,4.8c0.5,0.7,3.9,0.9,4.8,1.3c1.8,0.8,3.7-0.2,5.3-1.1
			c1.3-0.8,2.8-1.5,3.8-2.6C289.3,107.1,283.6,106.3,282.5,106.8C282.8,106.7,282.5,106.8,282.5,106.8
			C281.6,107.1,283.4,106.4,282.5,106.8z"/>
		<path class="st31" d="M82.4,154.4c-2.8,2,6.4,8.1,5.6,5.1C87.6,157.7,83.6,153.6,82.4,154.4C81.8,154.9,82.8,154.1,82.4,154.4z"/>
		<path class="st31" d="M213.4,163.7c4.1-1.8-5.4-7.1-3.6-10.5c-2.8,1.5-5.4,6.8-5.9,9.9c-0.4,2.6,8.4,1.1,9.7,0.5
			C213.1,163.9,213.8,163.6,213.4,163.7C214.2,163.4,212.8,164,213.4,163.7z"/>
	</g>
	<path class="st32" d="M86.7,106.7c-11.1-5-15.3,1.8-19.3,2.6s9,12.1,16,16.8s-3,13.3,3.3,18.7C93,150,99,152,98,160.7
		s-10.3,12.7-8.3,21S91,196,96.3,200s5.7,10,9,14.7s5.3,8,6.3,12s4.3-1.3,4-8.3s-2-15.6-5.7-23.7c-3.7-8-4.7-13.3-1.3-22.5
		c3.3-9.2,7.7-16.5,0-24.5S96,138.2,94,130.6c-2-7.6-2.9-11.9-5.9-15.3C85,112,93.3,109.7,86.7,106.7z"/>
	<path class="st32" d="M160,187.7c-5.9,1.7-3.1,6-5.4,9s-3,10.7,0.7,8.7s3.7-3.3,5.9-8.7C163.3,191.3,165.7,186,160,187.7z"/>
	<path class="st33" d="M91.1,136.7c3.8,2.6,14.9,10,15.9,14.6s1.7,6.5-1,13.2s-3,13.1-2,19.1s1.8,11,3.9,18.7S116,222,112,216
		s-6.7-14.6-11-19.5c-4.3-4.8-6-7.5-4.7-14.8s8.5-15.3,5.9-21s-0.9-12-6.6-15C90,142.7,88,134.5,91.1,136.7z"/>
	<path class="st34" d="M140,209.7c3.7-2.2,2.3-9.6,1.7-13.2c-0.7-3.5-5.7-12.1-5-20c0.7-7.8,1.3-15.7-4.7-17.6
		c-6-1.9-7.3,9.9-9.3,10.5s-6.6,6.7-7,10.8s-1.4,11.5,1.3,16.3c2.7,4.8,6,10.2,7.3,13.2C125.7,212.7,135,212.7,140,209.7z"/>
</g>
<g id="globe_solid" class="st0">
	<circle class="st35" cx="160" cy="160" r="120.3"/>
	<g class="st5">
		<g>
			<path class="st36" d="M160,280.3c0,0-1.3,0-3.8,0s-6.2-0.3-10.8-1c-4.6-0.8-10.2-2.2-16.3-4.6c-6.1-2.4-12.7-5.9-19.3-10.6
				c-6.6-4.8-13-10.8-18.9-18c-2.9-3.6-5.8-7.4-8.4-11.6c-1.4-2-2.5-4.2-3.8-6.3c-0.6-1.1-1.2-2.2-1.7-3.3l-0.9-1.7l-0.8-1.7
				c-0.5-1.1-1.1-2.3-1.6-3.5s-1-2.4-1.5-3.5l-0.7-1.8l-0.7-1.8c-0.4-1.2-0.9-2.4-1.3-3.7c-1.6-4.9-3.2-10-4.3-15.2
				c-0.3-1.3-0.6-2.6-0.8-3.9c-0.2-1.3-0.5-2.6-0.7-3.9c-0.4-2.7-0.8-5.3-1.1-8c-0.1-1.3-0.3-2.7-0.4-4l-0.3-4
				c-0.1-1.3-0.1-2.7-0.2-4l-0.1-4.1l0.1-4v-2l0.1-2l0.3-4.1c0.1-1.3,0.3-2.7,0.4-4c0.2-2.7,0.7-5.3,1.1-8c0.2-1.3,0.5-2.6,0.7-3.9
				c0.2-1.3,0.5-2.6,0.8-3.9c1.1-5.2,2.6-10.3,4.3-15.2c0.4-1.2,0.9-2.4,1.3-3.7l0.7-1.8l0.7-1.8c0.5-1.2,1-2.4,1.5-3.5
				c0.5-1.2,1.1-2.3,1.6-3.5L76,97l0.9-1.7c0.6-1.1,1.2-2.2,1.7-3.3c1.3-2.1,2.4-4.3,3.8-6.3c2.6-4.2,5.5-8,8.4-11.6
				c5.9-7.2,12.4-13.2,18.9-18c6.6-4.8,13.2-8.2,19.3-10.6c6.1-2.4,11.7-3.8,16.3-4.6c4.6-0.7,8.3-0.9,10.8-1c2.5,0,3.8,0,3.8,0
				s-1.3,0.1-3.8,0.2c-2.5,0.2-6.1,0.6-10.7,1.5c-4.5,1-10,2.6-15.9,5.2c-5.9,2.6-12.2,6.3-18.5,11.1s-12.3,10.9-18,18
				c-2.7,3.6-5.5,7.4-7.9,11.5c-0.6,1-1.2,2-1.8,3.1c-0.6,1-1.2,2.1-1.8,3.2c-0.5,1.1-1.1,2.2-1.7,3.3L79,98.6l-0.8,1.7
				c-0.5,1.1-1,2.3-1.5,3.4c-0.5,1.2-0.9,2.3-1.4,3.5l-0.7,1.7l-0.6,1.8c-0.4,1.2-0.8,2.4-1.3,3.6c-0.7,2.4-1.6,4.8-2.2,7.3
				c-0.3,1.2-0.7,2.5-1,3.7c-0.3,1.3-0.6,2.5-0.9,3.8c-0.3,1.3-0.5,2.5-0.8,3.8c-0.2,1.3-0.5,2.6-0.7,3.8c-0.3,2.6-0.8,5.2-1,7.8
				c-0.1,1.3-0.3,2.6-0.4,3.9l-0.2,3.9l-0.1,2v2l-0.1,4c0.1,5.2,0.2,10.5,0.8,15.7c0.2,2.6,0.7,5.2,1,7.8c0.2,1.3,0.5,2.6,0.7,3.8
				c0.2,1.3,0.5,2.6,0.8,3.8c0.3,1.3,0.6,2.5,0.9,3.8s0.7,2.5,1,3.7c0.6,2.5,1.4,4.9,2.2,7.3c0.4,1.2,0.8,2.4,1.3,3.6l0.6,1.8
				l0.7,1.7c0.5,1.2,0.9,2.3,1.4,3.5c0.5,1.1,1,2.3,1.5,3.4l0.8,1.7l0.8,1.6c0.6,1.1,1.1,2.2,1.7,3.3c1.2,2.1,2.3,4.2,3.6,6.2
				c2.4,4.1,5.2,7.9,7.9,11.5c5.6,7.1,11.7,13.2,18,18c6.3,4.8,12.6,8.5,18.5,11.1c5.9,2.6,11.3,4.2,15.9,5.2
				c4.6,0.9,8.2,1.4,10.7,1.5C158.7,280.3,160,280.3,160,280.3z"/>
		</g>
		<g>
			<path class="st36" d="M160,39.7c0,0,1.3,0,3.8,0s6.2,0.3,10.8,1c4.6,0.8,10.2,2.2,16.3,4.6c6.1,2.4,12.7,5.9,19.3,10.6
				c6.6,4.8,13,10.8,18.9,18c2.9,3.6,5.8,7.4,8.4,11.6c1.4,2,2.5,4.2,3.8,6.3c0.6,1.1,1.2,2.2,1.7,3.3l0.9,1.7l0.8,1.7
				c0.5,1.1,1.1,2.3,1.6,3.5s1,2.4,1.5,3.5l0.7,1.8l0.7,1.8c0.4,1.2,0.9,2.4,1.3,3.7c1.6,4.9,3.2,10,4.3,15.2
				c2.3,10.4,3.4,21.2,3.5,32l-0.1,4v2l-0.1,2l-0.3,4.1c-0.1,1.3-0.3,2.7-0.4,4c-0.2,2.7-0.7,5.3-1.1,8c-0.2,1.3-0.5,2.6-0.7,3.9
				c-0.2,1.3-0.5,2.6-0.8,3.9c-1.1,5.2-2.6,10.3-4.3,15.2c-0.4,1.2-0.9,2.4-1.3,3.7l-0.7,1.8l-0.7,1.8c-0.5,1.2-1,2.4-1.5,3.5
				c-0.5,1.2-1.1,2.3-1.6,3.5l-0.8,1.7l-0.9,1.7c-0.6,1.1-1.2,2.2-1.7,3.3c-1.3,2.1-2.4,4.3-3.8,6.3c-2.6,4.2-5.5,8-8.4,11.6
				c-5.9,7.2-12.4,13.2-18.9,18c-6.6,4.8-13.2,8.2-19.3,10.6s-11.7,3.8-16.3,4.6c-4.6,0.7-8.3,0.9-10.8,1c-2.5,0-3.8,0-3.8,0
				s1.3-0.1,3.8-0.2c2.5-0.2,6.1-0.6,10.7-1.5c4.5-1,10-2.6,15.9-5.2s12.2-6.3,18.5-11.1c6.3-4.8,12.3-10.9,18-18
				c2.7-3.6,5.5-7.4,7.9-11.5c0.6-1,1.2-2,1.8-3.1c0.6-1,1.2-2.1,1.8-3.2c0.5-1.1,1.1-2.2,1.7-3.3l0.8-1.6l0.8-1.7
				c0.5-1.1,1-2.3,1.5-3.4c0.5-1.2,0.9-2.3,1.4-3.5l0.7-1.7l0.6-1.8c0.4-1.2,0.8-2.4,1.3-3.6c0.7-2.4,1.6-4.8,2.2-7.3
				c0.3-1.2,0.7-2.5,1-3.7c0.3-1.3,0.6-2.5,0.9-3.8c0.3-1.3,0.5-2.5,0.8-3.8c0.2-1.3,0.5-2.6,0.7-3.8c0.3-2.6,0.8-5.2,1-7.8
				c0.1-1.3,0.3-2.6,0.4-3.9l0.2-3.9l0.1-2v-2l0.1-4c0-10.5-1-21.1-3.3-31.2c-0.3-1.3-0.6-2.5-0.9-3.8c-0.3-1.3-0.7-2.5-1-3.7
				c-0.6-2.5-1.4-4.9-2.2-7.3c-0.4-1.2-0.8-2.4-1.3-3.6l-0.6-1.8l-0.7-1.7c-0.5-1.2-0.9-2.3-1.4-3.5c-0.5-1.1-1-2.3-1.5-3.4
				l-0.8-1.7l-0.8-1.6c-0.6-1.1-1.1-2.2-1.7-3.3c-1.2-2.1-2.3-4.2-3.6-6.2c-2.4-4.1-5.2-7.9-7.9-11.5c-5.6-7.1-11.7-13.2-18-18
				s-12.6-8.5-18.5-11.1s-11.3-4.2-15.9-5.2c-4.6-0.9-8.2-1.4-10.7-1.5C161.3,39.7,160,39.7,160,39.7z"/>
		</g>
		<g>
			<path class="st36" d="M160,280.3c0,0-0.3,0-0.8,0s-1.3,0-2.3-0.2c-2-0.3-4.9-1.1-8-3.3c-3.1-2.1-6.4-5.4-9.4-9.7
				c-1.6-2.1-3-4.5-4.5-7c-1.4-2.6-2.8-5.3-4.1-8.3c-2.6-5.9-4.9-12.4-6.9-19.5s-3.7-14.6-5-22.5s-2.4-16.1-3.1-24.5s-1-16.9-1-25.4
				l0.1-6.4c0.1-2.1,0.1-4.3,0.2-6.4c0.2-4.2,0.4-8.5,0.8-12.6c0.6-8.4,1.7-16.6,3.1-24.5c1.3-7.9,3-15.4,5-22.5s4.3-13.6,6.9-19.5
				c1.3-2.9,2.7-5.7,4.1-8.3c1.5-2.5,2.9-4.9,4.5-7c3.1-4.2,6.3-7.5,9.4-9.7c3.1-2.2,6-3,8-3.3c1-0.2,1.8-0.1,2.3-0.2
				c0.5,0,0.8,0,0.8,0s-0.3,0-0.8,0.1s-1.3,0.1-2.2,0.4c-0.5,0.1-1,0.2-1.6,0.4s-1.2,0.5-1.8,0.7c-0.6,0.3-1.3,0.7-2,1.1
				c-0.7,0.4-1.4,0.9-2.1,1.5c-2.9,2.2-5.9,5.6-8.7,9.9s-5.3,9.5-7.6,15.3c-2.3,5.9-4.3,12.4-6.1,19.4c-1.8,7-3.2,14.5-4.4,22.3
				c-1.2,7.8-2,15.9-2.7,24.2c-0.3,4.1-0.5,8.3-0.7,12.5c-0.1,2.1-0.1,4.2-0.2,6.3v6.4c0,8.4,0.3,16.8,0.9,25.1s1.5,16.4,2.7,24.2
				s2.7,15.3,4.4,22.3c1.8,7,3.8,13.5,6.1,19.4c2.3,5.9,4.9,11.1,7.6,15.3c2.8,4.3,5.8,7.6,8.7,9.9c0.7,0.5,1.5,1,2.1,1.5
				c0.7,0.4,1.4,0.8,2,1.1c0.7,0.3,1.3,0.5,1.8,0.7c0.6,0.2,1.1,0.3,1.6,0.4c0.9,0.3,1.7,0.3,2.2,0.4
				C159.7,280.3,160,280.3,160,280.3z"/>
		</g>
		<g>
			<path class="st36" d="M160,39.7c0,0,0.3,0,0.8,0s1.3,0,2.3,0.2c2,0.3,4.9,1.1,8,3.3c3.1,2.1,6.4,5.4,9.4,9.7c1.6,2.1,3,4.5,4.5,7
				c1.4,2.6,2.8,5.3,4.1,8.3c2.6,5.9,4.9,12.4,6.9,19.5s3.7,14.6,5,22.5s2.4,16.1,3.1,24.5c0.7,8.4,1,16.9,1,25.4l-0.1,6.4
				c-0.1,2.1-0.1,4.3-0.2,6.4c-0.2,4.2-0.4,8.5-0.8,12.6c-0.6,8.4-1.7,16.6-3.1,24.5c-1.3,7.9-3,15.4-5,22.5s-4.3,13.6-6.9,19.5
				c-1.3,2.9-2.7,5.7-4.1,8.3c-1.5,2.5-2.9,4.9-4.5,7c-3.1,4.2-6.3,7.5-9.4,9.7c-3.1,2.2-6,3-8,3.3c-1,0.2-1.8,0.1-2.3,0.2
				c-0.5,0-0.8,0-0.8,0s0.3,0,0.8-0.1s1.3-0.1,2.2-0.4c0.5-0.1,1-0.2,1.6-0.4c0.6-0.2,1.2-0.5,1.8-0.7c0.6-0.3,1.3-0.7,2-1.1
				s1.4-0.9,2.1-1.5c2.9-2.2,5.9-5.6,8.7-9.9s5.3-9.5,7.6-15.3c2.3-5.9,4.3-12.4,6.1-19.4s3.2-14.5,4.4-22.3s2-15.9,2.7-24.2
				c0.3-4.1,0.5-8.3,0.7-12.5c0.1-2.1,0.1-4.2,0.2-6.3v-6.3c0-8.4-0.3-16.9-0.9-25.1c-0.6-8.3-1.5-16.4-2.7-24.2s-2.7-15.3-4.4-22.3
				c-1.8-7-3.8-13.5-6.1-19.4s-4.9-11.1-7.6-15.3c-2.8-4.3-5.8-7.6-8.7-9.9c-0.7-0.5-1.5-1-2.1-1.5c-0.7-0.4-1.4-0.8-2-1.1
				c-0.7-0.3-1.3-0.5-1.8-0.7c-0.6-0.2-1.1-0.3-1.6-0.4c-0.9-0.3-1.7-0.3-2.2-0.4C160.3,39.7,160,39.7,160,39.7z"/>
		</g>
		<g>
			<path class="st36" d="M40,160c0,0,3.8-0.1,10.3-0.4c6.6-0.2,15.9-0.5,27.2-0.7c5.6-0.1,11.7-0.3,18.2-0.3
				c6.4-0.1,13.2-0.2,20.3-0.3c7-0.1,14.3-0.2,21.7-0.2s14.9,0,22.4-0.1c7.5,0,15,0,22.4,0.1c7.4,0,14.6,0.1,21.7,0.2
				c7,0,13.8,0.2,20.3,0.3c6.4,0.1,12.5,0.2,18.2,0.3c11.3,0.2,20.6,0.5,27.2,0.8s10.3,0.4,10.3,0.4s-3.8,0.1-10.3,0.4
				c-6.6,0.2-15.9,0.5-27.2,0.8c-5.6,0.1-11.7,0.3-18.2,0.3c-6.4,0.1-13.2,0.2-20.3,0.3c-7,0.1-14.3,0.2-21.7,0.2s-14.9,0-22.4,0.1
				c-7.5,0-15,0-22.4-0.1c-7.4,0-14.6-0.1-21.7-0.2c-7,0-13.8-0.2-20.3-0.3c-6.4-0.1-12.5-0.2-18.2-0.3c-11.3-0.2-20.6-0.5-27.2-0.7
				C43.8,160.1,40,160,40,160z"/>
		</g>
		<g>
			<path class="st36" d="M53,104c0,0,0.8-0.4,2.3-0.9s3.7-1.3,6.6-2c1.4-0.4,3-0.8,4.8-1.2c1.7-0.4,3.6-0.8,5.7-1.2
				c4-0.8,8.6-1.5,13.7-2.2c2.5-0.4,5.1-0.7,7.8-1c2.7-0.3,5.5-0.6,8.4-0.8c5.8-0.6,11.9-1,18.2-1.3c3.2-0.2,6.4-0.3,9.6-0.5
				c3.3-0.1,6.5-0.2,9.9-0.3c1.7,0,3.3-0.1,5-0.1s3.3,0,5-0.1c3.4,0,6.7-0.1,10.1-0.1c3.4,0,6.7,0.1,10.1,0.1c3.4,0,6.7,0.1,10,0.2
				s6.6,0.2,9.9,0.3c3.3,0.2,6.5,0.3,9.6,0.5c3.2,0.1,6.3,0.4,9.3,0.6c1.5,0.1,3,0.2,4.5,0.3c1.5,0.1,2.9,0.3,4.4,0.4
				c5.8,0.5,11.2,1.1,16.3,1.8c5,0.7,9.6,1.4,13.7,2.2c2,0.4,3.9,0.7,5.7,1.2c0.9,0.2,1.7,0.4,2.5,0.6c0.8,0.2,1.5,0.4,2.3,0.6
				c2.9,0.7,5.1,1.5,6.6,2c1.5,0.6,2.2,0.9,2.2,0.9s-0.8-0.3-2.3-0.7c-1.5-0.4-3.8-0.9-6.7-1.5c-0.7-0.1-1.5-0.3-2.3-0.4
				s-1.6-0.3-2.5-0.4c-1.7-0.3-3.6-0.5-5.7-0.8c-4.1-0.5-8.7-1-13.7-1.4c-2.5-0.3-5.1-0.4-7.8-0.6s-5.5-0.4-8.4-0.5
				c-1.4-0.1-2.9-0.2-4.4-0.2c-1.5-0.1-3-0.1-4.5-0.2c-3-0.1-6.1-0.3-9.3-0.4c-3.1-0.1-6.4-0.2-9.6-0.3c-3.2-0.1-6.5-0.1-9.8-0.2
				s-6.6-0.1-10-0.1c-3.3,0-6.7,0-10.1,0c-3.4,0-6.7,0-10.1,0c-1.7,0-3.3,0-5,0s-3.3,0.1-5,0.1c-3.3,0.1-6.6,0.1-9.8,0.2
				s-6.4,0.2-9.6,0.3c-3.2,0.1-6.2,0.3-9.3,0.4c-3,0.1-6,0.3-8.9,0.4c-1.4,0.1-2.9,0.2-4.3,0.2c-1.4,0.1-2.8,0.2-4.1,0.3
				c-2.7,0.2-5.3,0.4-7.8,0.6s-4.9,0.4-7.2,0.7c-2.3,0.2-4.5,0.5-6.5,0.7c-2,0.3-3.9,0.5-5.7,0.8c-1.8,0.2-3.4,0.5-4.8,0.8
				c-2.9,0.5-5.1,1-6.7,1.4C53.8,103.7,53,104,53,104z"/>
		</g>
		<g>
			<path class="st36" d="M83.7,67.6c0,0,0.1-0.1,0.3-0.3c0.2-0.2,0.5-0.5,1-0.9c0.9-0.8,2.2-1.8,4.1-3c1.9-1.1,4.2-2.5,7-3.7
				c1.4-0.6,2.9-1.3,4.5-1.9c1.6-0.6,3.3-1.2,5.1-1.8c0.9-0.3,1.8-0.6,2.8-0.9c0.9-0.3,1.9-0.5,2.9-0.8c2-0.5,4-1,6.1-1.4
				c1.1-0.2,2.1-0.4,3.2-0.6c1.1-0.2,2.2-0.4,3.3-0.6c2.2-0.4,4.5-0.7,6.8-1c2.3-0.2,4.7-0.5,7.1-0.8c2.4-0.3,4.8-0.4,7.3-0.5
				c1.2-0.1,2.5-0.1,3.7-0.2c1.2-0.1,2.5-0.1,3.7-0.1c2.5-0.1,5-0.1,7.5-0.2c2.5,0,5,0.1,7.5,0.1c1.2,0,2.5,0.1,3.7,0.1
				c1.2,0.1,2.5,0.1,3.7,0.2c2.5,0.2,4.9,0.3,7.3,0.5c2.4,0.3,4.8,0.5,7.1,0.8c4.7,0.6,9.1,1.3,13.4,2.2c1.1,0.2,2.1,0.4,3.1,0.7
				s2,0.5,3,0.8s1.9,0.5,2.9,0.8c0.9,0.3,1.9,0.6,2.7,0.9c0.9,0.3,1.8,0.6,2.6,0.8c0.8,0.3,1.7,0.6,2.5,0.9c0.8,0.3,1.6,0.6,2.3,0.9
				c0.7,0.3,1.5,0.7,2.2,1c2.8,1.2,5.1,2.6,7,3.7c1.8,1.2,3.2,2.3,4.1,3.1c0.4,0.4,0.8,0.7,1,0.9c0.2,0.2,0.3,0.3,0.3,0.3
				s-0.1-0.1-0.3-0.3c-0.2-0.2-0.6-0.5-1.1-0.8c-0.5-0.4-1.1-0.7-1.8-1.2c-0.7-0.4-1.6-0.9-2.5-1.4c-1.9-0.9-4.3-2-7.2-3
				c-0.7-0.2-1.4-0.5-2.2-0.8s-1.6-0.5-2.4-0.7c-0.8-0.2-1.6-0.5-2.5-0.7s-1.7-0.4-2.6-0.6c-0.9-0.2-1.8-0.4-2.7-0.7
				c-0.9-0.2-1.9-0.4-2.9-0.6c-1-0.2-2-0.4-3-0.6c-1-0.2-2-0.3-3.1-0.5c-4.2-0.7-8.6-1.1-13.2-1.6c-2.3-0.2-4.6-0.4-7-0.5
				c-1.2-0.1-2.4-0.1-3.6-0.2c-1.2-0.1-2.4-0.1-3.6-0.2c-1.2-0.1-2.4-0.1-3.6-0.2c-1.2,0-2.5,0-3.7,0c-2.5,0-4.9-0.1-7.4-0.1
				s-4.9,0.1-7.4,0.1c-1.2,0-2.5,0-3.7,0.1s-2.4,0.1-3.6,0.2c-1.2,0.1-2.4,0.1-3.6,0.2c-1.2,0-2.4,0.1-3.6,0.2
				c-2.4,0.2-4.7,0.4-7,0.5c-2.3,0.3-4.5,0.5-6.8,0.8c-1.1,0.1-2.2,0.3-3.3,0.4c-1.1,0.2-2.1,0.3-3.2,0.5c-2.1,0.3-4.1,0.7-6.1,1.1
				c-1,0.2-1.9,0.3-2.9,0.6c-0.9,0.2-1.8,0.4-2.7,0.7c-0.9,0.2-1.8,0.4-2.6,0.7c-0.8,0.2-1.7,0.5-2.5,0.7c-1.6,0.4-3.1,1-4.5,1.5
				c-2.8,1-5.2,2-7.2,3c-1.9,1-3.4,1.8-4.3,2.5c-0.5,0.3-0.8,0.6-1.1,0.8C83.8,67.5,83.7,67.6,83.7,67.6z"/>
		</g>
		<g>
			<path class="st36" d="M53,216c0,0,0.8,0.3,2.3,0.7s3.8,0.9,6.7,1.4c1.4,0.3,3,0.5,4.8,0.8c1.7,0.3,3.6,0.5,5.7,0.8
				c2,0.3,4.2,0.5,6.5,0.7c2.3,0.3,4.7,0.5,7.2,0.7s5.1,0.4,7.8,0.6c1.4,0.1,2.7,0.2,4.1,0.3s2.8,0.2,4.3,0.2
				c2.9,0.2,5.8,0.3,8.9,0.4c3,0.1,6.1,0.3,9.3,0.4c3.1,0.1,6.4,0.2,9.6,0.3c3.2,0.1,6.5,0.1,9.8,0.2c1.7,0,3.3,0.1,5,0.1s3.3,0,5,0
				c3.3,0,6.7,0,10.1,0c3.4,0,6.7,0,10.1,0c3.4,0,6.7,0,10-0.1s6.6-0.1,9.8-0.2c3.2-0.1,6.4-0.2,9.6-0.3c3.2-0.1,6.2-0.3,9.3-0.4
				c1.5-0.1,3-0.1,4.5-0.2c1.5-0.1,2.9-0.2,4.4-0.2c2.9-0.2,5.7-0.3,8.4-0.5s5.3-0.3,7.8-0.6c5-0.4,9.6-0.9,13.7-1.4
				c2-0.3,3.9-0.5,5.7-0.8c0.9-0.1,1.7-0.3,2.5-0.4c0.8-0.1,1.6-0.3,2.3-0.4c2.9-0.5,5.1-1.1,6.7-1.5c1.5-0.4,2.3-0.7,2.3-0.7
				s-0.8,0.4-2.2,0.9c-1.5,0.5-3.7,1.3-6.6,2c-0.7,0.2-1.5,0.4-2.3,0.6c-0.8,0.2-1.6,0.4-2.5,0.6c-1.7,0.4-3.6,0.8-5.7,1.2
				c-4,0.8-8.6,1.5-13.7,2.2c-5,0.7-10.5,1.3-16.3,1.8c-1.4,0.1-2.9,0.3-4.4,0.4c-1.5,0.1-3,0.2-4.5,0.3c-3,0.2-6.1,0.4-9.3,0.6
				c-3.2,0.2-6.4,0.3-9.6,0.5c-3.3,0.1-6.6,0.2-9.9,0.3c-3.3,0.1-6.7,0.1-10,0.2c-3.4,0-6.7,0.1-10.1,0.1c-3.4,0-6.7-0.1-10.1-0.1
				c-1.7,0-3.4,0-5-0.1c-1.7,0-3.3-0.1-5-0.1c-3.3-0.1-6.6-0.2-9.9-0.3c-3.3-0.2-6.5-0.3-9.6-0.5c-6.3-0.4-12.4-0.8-18.2-1.3
				c-2.9-0.3-5.7-0.5-8.4-0.8c-2.7-0.3-5.3-0.6-7.8-1c-5-0.7-9.6-1.4-13.7-2.2c-2-0.4-3.9-0.7-5.7-1.2c-1.7-0.4-3.3-0.8-4.8-1.2
				c-2.9-0.7-5.1-1.5-6.6-2C53.8,216.4,53,216,53,216z"/>
		</g>
		<g>
			<path class="st36" d="M83.7,252.4c0,0,0.1,0.1,0.4,0.3c0.2,0.2,0.6,0.5,1.1,0.8c0.9,0.7,2.4,1.5,4.3,2.5c1.9,0.9,4.3,2,7.2,3
				c1.4,0.5,2.9,1,4.5,1.5c0.8,0.2,1.6,0.5,2.5,0.7c0.8,0.3,1.7,0.4,2.6,0.7c0.9,0.2,1.8,0.4,2.7,0.7c0.9,0.2,1.9,0.4,2.9,0.6
				c2,0.4,4,0.8,6.1,1.1c1,0.2,2.1,0.3,3.2,0.5s2.2,0.3,3.3,0.4c2.2,0.3,4.5,0.5,6.8,0.8c2.3,0.2,4.6,0.4,7,0.5
				c1.2,0.1,2.4,0.2,3.6,0.2c1.2,0.1,2.4,0.1,3.6,0.2c1.2,0.1,2.4,0.1,3.6,0.2c1.2,0.1,2.4,0,3.7,0.1c2.5,0,4.9,0.1,7.4,0.1
				s4.9-0.1,7.4-0.1c1.2,0,2.5,0,3.7,0c1.2-0.1,2.4-0.1,3.6-0.2c1.2-0.1,2.4-0.1,3.6-0.2c1.2-0.1,2.4-0.1,3.6-0.2
				c2.4-0.2,4.7-0.4,7-0.5c4.6-0.5,9-0.9,13.2-1.6c1-0.2,2.1-0.3,3.1-0.5s2-0.4,3-0.6s1.9-0.4,2.9-0.6c0.9-0.2,1.8-0.4,2.7-0.7
				c0.9-0.2,1.8-0.4,2.6-0.6s1.7-0.5,2.5-0.7s1.6-0.4,2.4-0.7c0.8-0.3,1.5-0.5,2.2-0.8c2.8-1,5.2-2.1,7.2-3c1-0.5,1.8-1,2.5-1.4
				s1.3-0.8,1.8-1.2c0.5-0.3,0.8-0.6,1.1-0.8c0.2-0.2,0.3-0.3,0.3-0.3s-0.1,0.1-0.3,0.3s-0.5,0.5-1,0.9c-0.9,0.8-2.2,1.9-4.1,3.1
				c-1.9,1.2-4.2,2.5-7,3.7c-0.7,0.3-1.4,0.6-2.2,1c-0.7,0.3-1.5,0.6-2.3,0.9s-1.6,0.6-2.5,0.9s-1.7,0.5-2.6,0.8
				c-0.9,0.3-1.8,0.6-2.7,0.9c-0.9,0.2-1.9,0.5-2.9,0.8c-1,0.2-2,0.5-3,0.8c-1,0.2-2.1,0.4-3.1,0.7c-4.2,0.9-8.7,1.6-13.4,2.2
				c-2.3,0.2-4.7,0.5-7.1,0.8c-2.4,0.2-4.9,0.3-7.3,0.5c-1.2,0.1-2.5,0.1-3.7,0.2c-1.2,0-2.5,0.1-3.7,0.1c-2.5,0-5,0.1-7.5,0.1
				c-2.5-0.1-5-0.1-7.5-0.2c-1.2,0-2.5,0-3.7-0.1s-2.5-0.1-3.7-0.2c-2.5-0.2-4.9-0.2-7.3-0.5c-2.4-0.3-4.8-0.5-7.1-0.8
				s-4.6-0.7-6.8-1c-1.1-0.2-2.2-0.4-3.3-0.6c-1.1-0.2-2.2-0.4-3.2-0.6c-2.1-0.4-4.1-0.9-6.1-1.4c-1-0.3-2-0.5-2.9-0.8
				s-1.9-0.6-2.8-0.9c-1.8-0.5-3.5-1.1-5.1-1.8c-1.6-0.6-3.1-1.3-4.5-1.9c-2.8-1.2-5.1-2.6-7-3.7c-1.8-1.2-3.2-2.2-4.1-3
				c-0.4-0.4-0.8-0.7-1-0.9C83.8,252.5,83.7,252.4,83.7,252.4z"/>
		</g>
	</g>
</g>
<g id="drop_down" class="st0">
	<line class="st37" x1="262.5" y1="181.4" x2="160" y2="254.4"/>
	<line class="st37" x1="160" y1="138.6" x2="262.5" y2="65.6"/>
	<line class="st37" x1="57.5" y1="181.4" x2="160" y2="254.4"/>
	<line class="st37" x1="160" y1="138.6" x2="57.5" y2="65.6"/>
</g>
<g id="drop_up" class="st0">
	<line class="st37" x1="262.5" y1="138.6" x2="160" y2="65.6"/>
	<line class="st37" x1="160" y1="181.4" x2="262.5" y2="254.4"/>
	<line class="st37" x1="57.5" y1="138.6" x2="160" y2="65.6"/>
	<line class="st37" x1="160" y1="181.4" x2="57.5" y2="254.4"/>
</g>
<g id="check" class="st0">
	<line class="st38" x1="131.9" y1="209.4" x2="263.9" y2="90.7"/>
	<line class="st38" x1="131.9" y1="209.4" x2="56.1" y2="141.2"/>
</g>
</svg>
