<?xml version="1.0" encoding="utf-8"?>
<!-- Generator: Adobe Illustrator 20.0.0, SVG Export Plug-In . SVG Version: 6.00 Build 0)  -->
<svg version="1.1" id="Layer_1" xmlns="http://www.w3.org/2000/svg" xmlns:xlink="http://www.w3.org/1999/xlink" x="0px" y="0px"
	 viewBox="0 0 320 320" style="enable-background:new 0 0 320 320;" xml:space="preserve">
<g id="pin_solid">
	<g>
		<path style="fill:#BD081C;" d="M160.2,37.8C92.6,37.8,37.9,92.5,37.9,160c0,51.8,32.2,96.1,77.7,113.9c-1.1-9.7-2-24.5,0.4-35.1
			c2.2-9.5,14.3-60.8,14.3-60.8s-3.7-7.3-3.7-18.2c0-17,9.9-29.7,22.1-29.7c10.4,0,15.5,7.8,15.5,17.2c0,10.5-6.7,26.2-10.1,40.7
			c-2.9,12.2,6.1,22.1,18.1,22.1c21.7,0,38.4-22.9,38.4-56c0-29.3-21-49.8-51.1-49.8c-34.8,0-55.2,26.1-55.2,53.1
			c0,10.5,4,21.8,9.1,27.9c1,1.2,1.1,2.3,0.8,3.5c-0.9,3.9-3,12.2-3.4,13.9c-0.5,2.2-1.8,2.7-4.1,1.6c-15.3-7.1-24.8-29.4-24.8-47.4
			c0-38.6,28-74,80.8-74c42.4,0,75.4,30.2,75.4,70.6c0,42.1-26.6,76.1-63.5,76.1c-12.4,0-24-6.4-28-14c0,0-6.1,23.3-7.6,29.1
			c-2.8,10.6-10.2,23.9-15.2,32.1c11.4,3.5,23.6,5.5,36.2,5.5c67.5,0,122.3-54.8,122.3-122.3C282.4,92.5,227.7,37.8,160.2,37.8z"/>
	</g>
</g>
</svg>
