<?xml version="1.0" encoding="utf-8"?>
<!-- Generator: Adobe Illustrator 20.0.0, SVG Export Plug-In . SVG Version: 6.00 Build 0)  -->
<svg version="1.1" id="Layer_1" xmlns="http://www.w3.org/2000/svg" xmlns:xlink="http://www.w3.org/1999/xlink" x="0px" y="0px"
	 viewBox="0 0 320 320" style="enable-background:new 0 0 320 320;" xml:space="preserve">
<g id="pin_outline">
	<path style="fill:none;stroke:#BD081C;stroke-width:5;stroke-miterlimit:10;" d="M164.6,83c-55.2,0-83,39.9-83,73.1
		c0,20.1,7.6,38,23.8,44.7c2.7,1.1,5,0.1,5.8-3c0.6-2,1.8-7.2,2.4-9.4c0.8-3,0.5-3.9-1.7-6.5c-4.6-5.5-7.6-12.8-7.6-22.9
		c0-29.6,22-56.1,57.2-56.1c31.2,0,48.3,19.2,48.3,44.9c0,33.8-14.8,62.2-36.8,62.2c-12.2,0-21.2-10.1-18.3-22.6
		c3.5-14.8,10.3-30.8,10.3-41.5c0-9.6-5.1-17.6-15.7-17.6c-12.4,0-22.4,12.9-22.4,30.3c0,11,3.7,18.5,3.7,18.5s-12.7,54.3-14.9,63.8
		c-4.5,18.9-0.7,42.1-0.4,44.5c0.2,1.4,2,1.7,2.8,0.7c1.2-1.5,16-19.9,21-38.3c1.4-5.2,8.2-32.2,8.2-32.2c4,7.8,15.8,14.6,28.4,14.6
		c37.4,0,62.7-34.3,62.7-80.2C238.2,115.3,209,83,164.6,83z"/>
</g>
</svg>
