<?xml version="1.0" encoding="utf-8"?>
<!-- Generator: Adobe Illustrator 17.0.0, SVG Export Plug-In . SVG Version: 6.00 Build 0)  -->
<!DOCTYPE svg PUBLIC "-//W3C//DTD SVG 1.1//EN" "http://www.w3.org/Graphics/SVG/1.1/DTD/svg11.dtd">
<svg version="1.1" id="Layer_1" xmlns="http://www.w3.org/2000/svg" xmlns:xlink="http://www.w3.org/1999/xlink" x="0px" y="0px"
	 width="97px" height="32px" viewBox="0 0 97 32" enable-background="new 0 0 97 32" xml:space="preserve">
<g id="Layer_1_1_">
	<g>
		<path d="M97,28c0,2.2-1.8,4-4,4H4c-2.2,0-4-1.8-4-4V4c0-2.2,1.8-4,4-4h89c2.2,0,4,1.8,4,4V28z"/>
	</g>
</g>
<g id="Layer_3">
	<g>
		<g>
			<g>
				<path fill="#FFFFFF" d="M17.969,15.157c-0.024-2.635,2.157-3.917,2.257-3.977c-1.235-1.801-3.15-2.047-3.822-2.066
					c-1.608-0.169-3.167,0.962-3.987,0.962c-0.835,0-2.097-0.946-3.456-0.918c-1.749,0.027-3.386,1.04-4.284,2.613
					c-1.852,3.207-0.471,7.92,1.304,10.512c0.888,1.269,1.925,2.687,3.283,2.637c1.328-0.055,1.825-0.847,3.428-0.847
					c1.589,0,2.054,0.847,3.439,0.815c1.425-0.023,2.324-1.275,3.18-2.556c1.026-1.455,1.438-2.888,1.454-2.962
					C20.732,19.359,17.996,18.316,17.969,15.157z"/>
				<path fill="#FFFFFF" d="M15.353,7.409c0.714-0.894,1.203-2.109,1.067-3.343c-1.034,0.046-2.328,0.715-3.072,1.589
					c-0.659,0.77-1.247,2.033-1.095,3.219C13.415,8.961,14.607,8.289,15.353,7.409z"/>
			</g>
		</g>
		<g>
			<path fill="#FFFFFF" d="M37.194,24.738h-1.856l-1.017-3.196h-3.535l-0.969,3.196H28.01l3.502-10.879h2.163L37.194,24.738z
				 M34.015,20.202l-0.92-2.841c-0.097-0.291-0.28-0.974-0.549-2.05h-0.032c-0.107,0.463-0.28,1.146-0.516,2.05l-0.904,2.841H34.015
				z"/>
			<path fill="#FFFFFF" d="M46.201,20.719c0,1.334-0.36,2.389-1.081,3.163c-0.646,0.689-1.447,1.033-2.405,1.033
				c-1.033,0-1.776-0.371-2.227-1.114h-0.032v4.132h-1.743v-8.458c0-0.839-0.022-1.7-0.065-2.583h1.533l0.097,1.243h0.032
				c0.581-0.936,1.463-1.404,2.647-1.404c0.926,0,1.698,0.366,2.316,1.097C45.892,18.562,46.201,19.525,46.201,20.719z
				 M44.425,20.783c0-0.763-0.172-1.393-0.516-1.888c-0.377-0.517-0.883-0.775-1.517-0.775c-0.43,0-0.821,0.144-1.17,0.428
				c-0.35,0.286-0.579,0.659-0.686,1.123c-0.054,0.216-0.081,0.393-0.081,0.532v1.308c0,0.571,0.175,1.052,0.525,1.445
				c0.35,0.393,0.804,0.589,1.364,0.589c0.656,0,1.168-0.253,1.533-0.758C44.242,22.279,44.425,21.612,44.425,20.783z"/>
			<path fill="#FFFFFF" d="M55.224,20.719c0,1.334-0.361,2.389-1.083,3.163c-0.645,0.689-1.447,1.033-2.405,1.033
				c-1.033,0-1.776-0.371-2.227-1.114h-0.032v4.132h-1.743v-8.458c0-0.839-0.022-1.7-0.065-2.583h1.533l0.097,1.243h0.032
				c0.581-0.936,1.462-1.404,2.647-1.404c0.924,0,1.697,0.366,2.317,1.097C54.914,18.562,55.224,19.525,55.224,20.719z
				 M53.448,20.783c0-0.763-0.172-1.393-0.517-1.888c-0.377-0.517-0.881-0.775-1.517-0.775c-0.431,0-0.821,0.144-1.17,0.428
				c-0.35,0.286-0.578,0.659-0.685,1.123c-0.053,0.216-0.081,0.393-0.081,0.532v1.308c0,0.571,0.175,1.052,0.523,1.445
				c0.35,0.393,0.805,0.589,1.365,0.589c0.656,0,1.167-0.253,1.533-0.758C53.265,22.279,53.448,21.612,53.448,20.783z"/>
			<path fill="#FFFFFF" d="M65.312,21.688c0,0.925-0.321,1.678-0.966,2.259c-0.709,0.636-1.696,0.952-2.963,0.952
				c-1.17,0-2.109-0.226-2.82-0.678l0.404-1.453c0.765,0.463,1.605,0.695,2.52,0.695c0.656,0,1.167-0.148,1.534-0.445
				c0.366-0.296,0.548-0.693,0.548-1.189c0-0.441-0.15-0.814-0.452-1.115c-0.3-0.302-0.802-0.582-1.501-0.841
				c-1.905-0.71-2.857-1.751-2.857-3.12c0-0.894,0.334-1.627,1.001-2.199c0.666-0.571,1.554-0.857,2.663-0.857
				c0.99,0,1.812,0.172,2.468,0.517l-0.436,1.421c-0.613-0.333-1.306-0.501-2.082-0.501c-0.613,0-1.092,0.151-1.435,0.452
				c-0.291,0.269-0.436,0.597-0.436,0.985c0,0.43,0.166,0.786,0.5,1.065c0.291,0.259,0.818,0.538,1.582,0.84
				c0.936,0.377,1.624,0.818,2.066,1.323C65.091,20.305,65.312,20.935,65.312,21.688z"/>
			<path fill="#FFFFFF" d="M71.074,18.201h-1.921v3.809c0,0.968,0.338,1.453,1.017,1.453c0.311,0,0.57-0.027,0.774-0.081
				l0.048,1.324c-0.343,0.129-0.795,0.193-1.356,0.193c-0.688,0-1.226-0.21-1.614-0.629c-0.386-0.42-0.581-1.125-0.581-2.115v-3.954
				h-1.145v-1.308h1.145v-1.437l1.712-0.517v1.953h1.921C71.074,16.892,71.074,18.201,71.074,18.201z"/>
			<path fill="#FFFFFF" d="M79.743,20.751c0,1.205-0.345,2.195-1.033,2.97c-0.722,0.797-1.68,1.194-2.874,1.194
				c-1.151,0-2.068-0.382-2.751-1.146s-1.025-1.728-1.025-2.889c0-1.216,0.351-2.211,1.057-2.986
				c0.704-0.775,1.654-1.162,2.849-1.162c1.151,0,2.077,0.382,2.777,1.146C79.409,18.621,79.743,19.579,79.743,20.751z
				 M77.934,20.808c0-0.723-0.155-1.344-0.468-1.862c-0.366-0.626-0.888-0.939-1.565-0.939c-0.701,0-1.233,0.313-1.598,0.939
				c-0.313,0.518-0.468,1.149-0.468,1.894c0,0.723,0.155,1.344,0.468,1.861c0.377,0.626,0.904,0.939,1.582,0.939
				c0.666,0,1.188-0.319,1.565-0.955C77.772,22.157,77.934,21.531,77.934,20.808z"/>
			<path fill="#FFFFFF" d="M85.408,18.427c-0.172-0.032-0.356-0.048-0.549-0.048c-0.613,0-1.087,0.232-1.421,0.695
				c-0.291,0.409-0.436,0.925-0.436,1.549v4.116H81.26l0.016-5.374c0-0.905-0.022-1.728-0.065-2.47h1.519l0.064,1.501h0.048
				c0.184-0.516,0.474-0.931,0.872-1.242c0.388-0.28,0.808-0.42,1.26-0.42c0.161,0,0.307,0.011,0.436,0.032v1.661H85.408z"/>
			<path fill="#FFFFFF" d="M93.203,20.445c0,0.312-0.021,0.576-0.064,0.79H87.91c0.021,0.775,0.273,1.368,0.758,1.776
				c0.441,0.366,1.011,0.548,1.71,0.548c0.774,0,1.48-0.124,2.116-0.371l0.273,1.21c-0.742,0.323-1.619,0.485-2.63,0.485
				c-1.217,0-2.172-0.358-2.866-1.074c-0.693-0.715-1.041-1.676-1.041-2.881c0-1.183,0.323-2.168,0.969-2.954
				c0.677-0.839,1.592-1.258,2.743-1.258c1.13,0,1.986,0.419,2.567,1.258C92.971,18.642,93.203,19.466,93.203,20.445z
				 M91.541,19.993c0.011-0.517-0.102-0.963-0.338-1.34c-0.302-0.485-0.765-0.726-1.389-0.726c-0.57,0-1.033,0.236-1.388,0.71
				c-0.291,0.377-0.463,0.829-0.516,1.356H91.541z"/>
		</g>
		<g>
			<g>
				<path fill="#FFFFFF" d="M33.438,7.166c0,0.962-0.288,1.687-0.865,2.173c-0.534,0.449-1.293,0.674-2.275,0.674
					c-0.487,0-0.905-0.021-1.253-0.063V4.692c0.455-0.074,0.946-0.111,1.475-0.111c0.936,0,1.641,0.204,2.117,0.611
					C33.171,5.651,33.438,6.31,33.438,7.166z M32.535,7.19c0-0.624-0.165-1.102-0.496-1.435c-0.331-0.333-0.813-0.499-1.447-0.499
					c-0.27,0-0.5,0.018-0.69,0.056v3.996c0.105,0.016,0.299,0.024,0.579,0.024c0.655,0,1.162-0.182,1.519-0.547
					C32.356,8.419,32.535,7.888,32.535,7.19z"/>
				<path fill="#FFFFFF" d="M38.228,8.007c0,0.592-0.169,1.079-0.508,1.459c-0.354,0.392-0.825,0.587-1.411,0.587
					c-0.566,0-1.016-0.188-1.352-0.563c-0.335-0.375-0.503-0.849-0.503-1.42c0-0.597,0.172-1.086,0.519-1.467
					c0.346-0.381,0.813-0.571,1.399-0.571c0.566,0,1.02,0.188,1.364,0.563C38.063,6.96,38.228,7.431,38.228,8.007z M37.339,8.035
					c0-0.355-0.077-0.66-0.23-0.915c-0.18-0.308-0.436-0.461-0.769-0.461c-0.344,0-0.606,0.154-0.786,0.461
					c-0.153,0.254-0.23,0.564-0.23,0.93c0,0.356,0.077,0.66,0.23,0.915c0.185,0.307,0.444,0.461,0.778,0.461
					c0.327,0,0.584-0.156,0.769-0.469C37.26,8.697,37.339,8.39,37.339,8.035z"/>
				<path fill="#FFFFFF" d="M44.65,6.111l-1.205,3.854H42.66l-0.5-1.673c-0.127-0.418-0.23-0.833-0.31-1.245h-0.015
					c-0.074,0.423-0.177,0.838-0.31,1.245l-0.531,1.673H40.2l-1.134-3.854h0.881l0.436,1.832c0.105,0.433,0.192,0.846,0.262,1.237
					h0.015c0.064-0.322,0.169-0.732,0.318-1.229l0.547-1.84h0.698l0.524,1.8c0.127,0.439,0.23,0.862,0.309,1.269h0.024
					c0.058-0.396,0.145-0.819,0.262-1.269l0.468-1.8H44.65z"/>
				<path fill="#FFFFFF" d="M49.091,9.965h-0.857V7.758c0-0.68-0.259-1.02-0.777-1.02c-0.254,0-0.46,0.093-0.619,0.281
					C46.68,7.206,46.6,7.427,46.6,7.68v2.286h-0.857V7.214c0-0.339-0.01-0.706-0.031-1.102h0.753l0.04,0.602h0.024
					c0.1-0.187,0.248-0.342,0.444-0.465c0.232-0.144,0.492-0.216,0.777-0.216c0.36,0,0.659,0.116,0.897,0.349
					c0.296,0.285,0.444,0.711,0.444,1.277C49.091,7.659,49.091,9.965,49.091,9.965z"/>
				<path fill="#FFFFFF" d="M51.454,9.965h-0.856V4.343h0.856V9.965z"/>
				<path fill="#FFFFFF" d="M56.498,8.007c0,0.592-0.169,1.079-0.508,1.459c-0.354,0.392-0.825,0.587-1.411,0.587
					c-0.567,0-1.017-0.188-1.352-0.563c-0.335-0.375-0.503-0.849-0.503-1.42c0-0.597,0.172-1.086,0.519-1.467
					s0.813-0.571,1.399-0.571c0.567,0,1.02,0.188,1.365,0.563C56.334,6.96,56.498,7.431,56.498,8.007z M55.609,8.035
					c0-0.355-0.077-0.66-0.23-0.915c-0.179-0.308-0.436-0.461-0.768-0.461c-0.345,0-0.607,0.154-0.786,0.461
					c-0.153,0.254-0.23,0.564-0.23,0.93c0,0.356,0.077,0.66,0.23,0.915c0.185,0.307,0.444,0.461,0.778,0.461
					c0.327,0,0.583-0.156,0.768-0.469C55.53,8.697,55.609,8.39,55.609,8.035z"/>
				<path fill="#FFFFFF" d="M60.645,9.965h-0.77l-0.064-0.444h-0.024c-0.263,0.354-0.639,0.531-1.126,0.531
					c-0.364,0-0.658-0.116-0.88-0.349c-0.2-0.211-0.301-0.473-0.301-0.784c0-0.471,0.196-0.83,0.591-1.079
					c0.394-0.248,0.948-0.37,1.662-0.365V7.404c0-0.507-0.267-0.761-0.8-0.761c-0.38,0-0.715,0.095-1.004,0.285l-0.174-0.563
					c0.358-0.222,0.8-0.333,1.322-0.333c1.007,0,1.512,0.531,1.512,1.594v1.419C60.589,9.431,60.608,9.738,60.645,9.965z
					 M59.755,8.641V8.046c-0.945-0.016-1.418,0.243-1.418,0.777c0,0.201,0.054,0.352,0.164,0.452c0.11,0.1,0.251,0.15,0.418,0.15
					c0.188,0,0.364-0.059,0.524-0.178c0.161-0.119,0.26-0.271,0.297-0.456C59.751,8.749,59.755,8.699,59.755,8.641z"/>
				<path fill="#FFFFFF" d="M65.513,9.965h-0.76l-0.04-0.619h-0.024c-0.243,0.471-0.656,0.706-1.237,0.706
					c-0.465,0-0.851-0.182-1.158-0.547s-0.46-0.838-0.46-1.419c0-0.624,0.166-1.129,0.5-1.515c0.323-0.36,0.719-0.539,1.19-0.539
					c0.517,0,0.88,0.174,1.086,0.523h0.016V4.343h0.857v4.584C65.483,9.302,65.492,9.648,65.513,9.965z M64.625,8.34V7.697
					c0-0.111-0.008-0.201-0.024-0.269c-0.048-0.206-0.152-0.379-0.31-0.519c-0.16-0.14-0.351-0.21-0.573-0.21
					c-0.319,0-0.57,0.127-0.754,0.381c-0.182,0.254-0.275,0.579-0.275,0.975c0,0.381,0.088,0.69,0.263,0.928
					c0.185,0.253,0.436,0.38,0.749,0.38c0.281,0,0.506-0.106,0.677-0.317C64.544,8.85,64.625,8.615,64.625,8.34z"/>
				<path fill="#FFFFFF" d="M72.84,8.007c0,0.592-0.169,1.079-0.508,1.459c-0.354,0.392-0.824,0.587-1.412,0.587
					c-0.565,0-1.016-0.188-1.352-0.563c-0.335-0.375-0.503-0.849-0.503-1.42c0-0.597,0.172-1.086,0.519-1.467s0.813-0.571,1.4-0.571
					c0.565,0,1.02,0.188,1.364,0.563C72.676,6.96,72.84,7.431,72.84,8.007z M71.952,8.035c0-0.355-0.077-0.66-0.23-0.915
					c-0.18-0.308-0.436-0.461-0.77-0.461c-0.343,0-0.605,0.154-0.786,0.461c-0.153,0.254-0.23,0.564-0.23,0.93
					c0,0.356,0.077,0.66,0.23,0.915c0.185,0.307,0.444,0.461,0.778,0.461c0.327,0,0.584-0.156,0.77-0.469
					C71.873,8.697,71.952,8.39,71.952,8.035z"/>
				<path fill="#FFFFFF" d="M77.447,9.965h-0.856V7.758c0-0.68-0.259-1.02-0.778-1.02c-0.254,0-0.46,0.093-0.618,0.281
					c-0.158,0.187-0.238,0.408-0.238,0.661v2.286H74.1V7.214c0-0.339-0.01-0.706-0.03-1.102h0.752l0.04,0.602h0.024
					c0.101-0.187,0.249-0.342,0.444-0.465c0.233-0.144,0.492-0.216,0.778-0.216c0.359,0,0.658,0.116,0.896,0.349
					c0.297,0.285,0.444,0.711,0.444,1.277v2.306H77.447z"/>
				<path fill="#FFFFFF" d="M83.212,6.754h-0.944v1.872c0,0.476,0.168,0.714,0.5,0.714c0.153,0,0.281-0.013,0.382-0.04l0.022,0.65
					c-0.169,0.063-0.391,0.095-0.666,0.095c-0.339,0-0.602-0.103-0.792-0.309c-0.192-0.206-0.286-0.552-0.286-1.039V6.754h-0.564
					V6.111h0.564V5.406l0.84-0.254v0.959h0.944V6.754z"/>
				<path fill="#FFFFFF" d="M87.749,9.965h-0.857V7.774c0-0.691-0.259-1.036-0.776-1.036c-0.398,0-0.669,0.2-0.818,0.601
					c-0.026,0.084-0.04,0.187-0.04,0.309v2.318h-0.856V4.343h0.856v2.323h0.016c0.27-0.422,0.656-0.633,1.158-0.633
					c0.354,0,0.648,0.116,0.881,0.349c0.291,0.291,0.436,0.722,0.436,1.293L87.749,9.965L87.749,9.965z"/>
				<path fill="#FFFFFF" d="M92.427,7.856c0,0.153-0.011,0.283-0.032,0.388h-2.569c0.011,0.381,0.134,0.671,0.372,0.872
					c0.217,0.18,0.498,0.27,0.841,0.27c0.38,0,0.726-0.061,1.039-0.182l0.134,0.595c-0.366,0.158-0.795,0.238-1.293,0.238
					c-0.597,0-1.067-0.176-1.407-0.527c-0.342-0.352-0.511-0.823-0.511-1.416c0-0.582,0.158-1.065,0.476-1.451
					c0.332-0.412,0.781-0.618,1.348-0.618c0.554,0,0.976,0.206,1.26,0.618C92.313,6.971,92.427,7.375,92.427,7.856z M91.609,7.634
					c0.006-0.254-0.049-0.473-0.166-0.658c-0.148-0.238-0.375-0.357-0.682-0.357c-0.279,0-0.508,0.116-0.682,0.349
					c-0.142,0.185-0.227,0.407-0.254,0.666H91.609z"/>
			</g>
		</g>
	</g>
</g>
</svg>
