<?xml version="1.0" encoding="utf-8"?>
<!-- Generator: Adobe Illustrator 17.0.0, SVG Export Plug-In . SVG Version: 6.00 Build 0)  -->
<!DOCTYPE svg PUBLIC "-//W3C//DTD SVG 1.1//EN" "http://www.w3.org/Graphics/SVG/1.1/DTD/svg11.dtd">
<svg version="1.1" id="Layer_1" xmlns="http://www.w3.org/2000/svg" xmlns:xlink="http://www.w3.org/1999/xlink" x="0px" y="0px"
	 width="97px" height="32px" viewBox="0 0 97 32" enable-background="new 0 0 97 32" xml:space="preserve">
<g id="Layer_1_1_">
	<g>
		<path d="M97,28c0,2.2-1.8,4-4,4H4c-2.2,0-4-1.8-4-4V4c0-2.2,1.8-4,4-4h89c2.2,0,4,1.8,4,4V28z"/>
	</g>
</g>
<g id="Layer_2_copy">
	<g id="PLAY_2_">
		<g>
			<defs>
				<path id="SVGID_1_" d="M19.346,13.434l-4.404-2.542c0,0-8.023-4.632-8.494-4.905C5.976,5.714,5.507,5.879,5.507,6.448
					c0,0.948,0,9.891,0,9.891s0,9.665,0,10.091c0,0.427,0.336,0.611,0.746,0.374s8.69-5.018,8.69-5.018l4.404-2.542
					c0,0,3.736-2.157,4.233-2.444s0.449-0.68,0.03-0.906C23.19,15.669,19.346,13.434,19.346,13.434z"/>
			</defs>
			<clipPath id="SVGID_2_">
				<use xlink:href="#SVGID_1_"  overflow="visible"/>
			</clipPath>
			
				<linearGradient id="SVGID_3_" gradientUnits="userSpaceOnUse" x1="391.9515" y1="-254.122" x2="391.9515" y2="-275.756" gradientTransform="matrix(1 0 0 -1 -380.99 -248.6)">
				<stop  offset="0" style="stop-color:#257DB0"/>
				<stop  offset="0.208" style="stop-color:#3C90B3"/>
				<stop  offset="0.7416" style="stop-color:#73BDB9"/>
				<stop  offset="1" style="stop-color:#89CEBC"/>
			</linearGradient>
			<polygon clip-path="url(#SVGID_2_)" fill="url(#SVGID_3_)" points="5.507,5.522 5.507,16.339 5.507,27.156 16.416,16.339 			"/>
		</g>
		<g>
			<defs>
				<path id="SVGID_4_" d="M19.346,13.434l-4.404-2.542c0,0-8.023-4.632-8.494-4.905C5.976,5.714,5.507,5.879,5.507,6.448
					c0,0.948,0,9.891,0,9.891s0,9.665,0,10.091c0,0.427,0.336,0.611,0.746,0.374s8.69-5.018,8.69-5.018l4.404-2.542
					c0,0,3.736-2.157,4.233-2.444s0.449-0.68,0.03-0.906C23.19,15.669,19.346,13.434,19.346,13.434z"/>
			</defs>
			<clipPath id="SVGID_5_">
				<use xlink:href="#SVGID_4_"  overflow="visible"/>
			</clipPath>
			
				<linearGradient id="SVGID_6_" gradientUnits="userSpaceOnUse" x1="386.497" y1="-259.491" x2="400.336" y2="-259.491" gradientTransform="matrix(1 0 0 -1 -380.99 -248.6)">
				<stop  offset="0" style="stop-color:#51BFAC"/>
				<stop  offset="1" style="stop-color:#DEE899"/>
			</linearGradient>
			<polygon clip-path="url(#SVGID_5_)" fill="url(#SVGID_6_)" points="19.346,13.434 14.942,10.891 5.507,5.443 5.507,5.522 
				16.416,16.339 			"/>
		</g>
		<g>
			<defs>
				<path id="SVGID_7_" d="M19.346,13.434l-4.404-2.542c0,0-8.023-4.632-8.494-4.905C5.976,5.714,5.507,5.879,5.507,6.448
					c0,0.948,0,9.891,0,9.891s0,9.665,0,10.091c0,0.427,0.336,0.611,0.746,0.374s8.69-5.018,8.69-5.018l4.404-2.542
					c0,0,3.736-2.157,4.233-2.444s0.449-0.68,0.03-0.906C23.19,15.669,19.346,13.434,19.346,13.434z"/>
			</defs>
			<clipPath id="SVGID_8_">
				<use xlink:href="#SVGID_7_"  overflow="visible"/>
			</clipPath>
			
				<linearGradient id="SVGID_9_" gradientUnits="userSpaceOnUse" x1="393.4165" y1="-264.939" x2="393.4165" y2="-275.835" gradientTransform="matrix(1 0 0 -1 -380.99 -248.6)">
				<stop  offset="0" style="stop-color:#EB403D"/>
				<stop  offset="0.1937" style="stop-color:#D64252"/>
				<stop  offset="0.7369" style="stop-color:#9F4887"/>
				<stop  offset="1" style="stop-color:#894A9C"/>
			</linearGradient>
			<polygon clip-path="url(#SVGID_8_)" fill="url(#SVGID_9_)" points="5.507,27.156 5.507,27.235 14.942,21.787 19.346,19.244 
				16.416,16.339 			"/>
		</g>
		<g>
			<defs>
				<path id="SVGID_10_" d="M19.346,13.434l-4.404-2.542c0,0-8.023-4.632-8.494-4.905C5.976,5.714,5.507,5.879,5.507,6.448
					c0,0.948,0,9.891,0,9.891s0,9.665,0,10.091c0,0.427,0.336,0.611,0.746,0.374s8.69-5.018,8.69-5.018l4.404-2.542
					c0,0,3.736-2.157,4.233-2.444s0.449-0.68,0.03-0.906C23.19,15.669,19.346,13.434,19.346,13.434z"/>
			</defs>
			<clipPath id="SVGID_11_">
				<use xlink:href="#SVGID_10_"  overflow="visible"/>
			</clipPath>
			
				<linearGradient id="SVGID_12_" gradientUnits="userSpaceOnUse" x1="401.387" y1="-262.034" x2="401.387" y2="-267.844" gradientTransform="matrix(1 0 0 -1 -380.99 -248.6)">
				<stop  offset="0" style="stop-color:#F48779"/>
				<stop  offset="0.6121" style="stop-color:#FAB076"/>
				<stop  offset="1" style="stop-color:#FDC674"/>
			</linearGradient>
			<polygon clip-path="url(#SVGID_11_)" fill="url(#SVGID_12_)" points="19.346,13.434 16.416,16.339 19.346,19.244 24.378,16.339 
							"/>
		</g>
	</g>
	<g>
		<path fill="#F9F9F9" d="M74.187,23.283c-0.41,0-0.784-0.076-1.122-0.227c-0.339-0.151-0.623-0.384-0.853-0.697h-0.069
			c0.046,0.367,0.069,0.716,0.069,1.045v2.589H71.26v-9.116h0.775l0.132,0.861h0.046c0.245-0.345,0.53-0.593,0.856-0.746
			c0.325-0.153,0.699-0.23,1.119-0.23c0.834,0,1.478,0.285,1.932,0.856c0.453,0.57,0.68,1.37,0.68,2.399
			c0,1.033-0.231,1.836-0.691,2.409C75.647,22.997,75.007,23.283,74.187,23.283z M74.05,17.571c-0.643,0-1.108,0.178-1.395,0.534
			c-0.287,0.356-0.434,0.922-0.442,1.699v0.212c0,0.884,0.147,1.517,0.442,1.897c0.295,0.381,0.767,0.571,1.418,0.571
			c0.544,0,0.97-0.22,1.278-0.66s0.462-1.047,0.462-1.82c0-0.784-0.154-1.386-0.462-1.805C75.042,17.781,74.608,17.571,74.05,17.571
			z"/>
		<path fill="#F9F9F9" d="M79.006,23.168h-0.953v-8.932h0.953V23.168z"/>
		<path fill="#F9F9F9" d="M84.485,23.168l-0.19-0.896h-0.046c-0.314,0.395-0.627,0.662-0.939,0.801
			c-0.312,0.14-0.701,0.21-1.168,0.21c-0.624,0-1.113-0.161-1.467-0.482c-0.354-0.321-0.531-0.779-0.531-1.372
			c0-1.27,1.016-1.936,3.048-1.998l1.068-0.035v-0.39c0-0.494-0.106-0.858-0.319-1.093c-0.212-0.236-0.552-0.353-1.019-0.353
			c-0.525,0-1.118,0.161-1.78,0.482l-0.293-0.729c0.31-0.168,0.65-0.3,1.019-0.396c0.369-0.096,0.739-0.144,1.111-0.144
			c0.75,0,1.306,0.166,1.668,0.499c0.361,0.333,0.542,0.867,0.542,1.602v4.294C85.189,23.168,84.485,23.168,84.485,23.168z
			 M82.332,22.497c0.593,0,1.059-0.163,1.398-0.488c0.338-0.325,0.508-0.781,0.508-1.367v-0.568l-0.953,0.04
			c-0.758,0.027-1.304,0.145-1.639,0.354c-0.335,0.208-0.502,0.533-0.502,0.973c0,0.344,0.104,0.607,0.313,0.786
			C81.665,22.407,81.956,22.497,82.332,22.497z"/>
		<path fill="#F9F9F9" d="M85.744,16.877h1.021l1.378,3.588c0.302,0.819,0.49,1.41,0.563,1.774h0.046
			c0.05-0.196,0.154-0.529,0.313-1.002c0.159-0.473,0.679-1.926,1.558-4.36h1.022l-2.704,7.164c-0.268,0.708-0.581,1.21-0.939,1.507
			c-0.358,0.296-0.797,0.444-1.317,0.444c-0.291,0-0.578-0.032-0.861-0.097v-0.763c0.21,0.046,0.446,0.069,0.706,0.069
			c0.654,0,1.121-0.367,1.401-1.102l0.35-0.895L85.744,16.877z"/>
	</g>
	<g>
		<path fill="#F9F9F9" d="M56.535,17.461c0.302,0.25,0.934,0.776,0.934,1.777c0,0.973-0.553,1.435-1.106,1.868
			c-0.171,0.171-0.368,0.356-0.368,0.646c0,0.289,0.197,0.447,0.343,0.566l0.474,0.368c0.579,0.487,1.105,0.935,1.105,1.843
			c0,1.237-1.198,2.487-3.461,2.487c-1.908,0-2.829-0.908-2.829-1.882c0-0.474,0.236-1.144,1.013-1.605
			c0.815-0.5,1.922-0.565,2.513-0.606c-0.185-0.237-0.395-0.487-0.395-0.894c0-0.223,0.066-0.355,0.132-0.514
			c-0.145,0.013-0.29,0.026-0.422,0.026c-1.394,0-2.184-1.04-2.184-2.066c0-0.605,0.277-1.277,0.842-1.763
			c0.75-0.619,1.645-0.724,2.356-0.724h2.71l-0.842,0.474L56.535,17.461L56.535,17.461z M55.6,23.305
			c-0.105-0.014-0.171-0.014-0.302-0.014c-0.118,0-0.83,0.027-1.382,0.212c-0.289,0.104-1.132,0.42-1.132,1.355
			c0,0.934,0.908,1.606,2.317,1.606c1.263,0,1.934-0.607,1.934-1.422C57.035,24.369,56.601,24.015,55.6,23.305z M55.982,20.804
			c0.302-0.303,0.328-0.724,0.328-0.961c0-0.947-0.566-2.421-1.658-2.421c-0.343,0-0.711,0.171-0.921,0.434
			c-0.223,0.276-0.29,0.631-0.29,0.974c0,0.882,0.513,2.342,1.646,2.342C55.416,21.173,55.771,21.015,55.982,20.804z"/>
		<path fill="#F9F9F9" d="M48.25,23.094c-2.089,0-3.206-1.629-3.206-3.101c0-1.721,1.406-3.192,3.403-3.192
			c1.931,0,3.139,1.51,3.139,3.101C51.587,21.451,50.392,23.094,48.25,23.094z M49.892,22.03c0.316-0.421,0.395-0.946,0.395-1.459
			c0-1.156-0.552-3.364-2.181-3.364c-0.433,0-0.867,0.171-1.182,0.448c-0.512,0.459-0.605,1.038-0.605,1.603
			c0,1.3,0.644,3.441,2.234,3.441C49.065,22.699,49.591,22.45,49.892,22.03z"/>
		<path fill="#F9F9F9" d="M41.129,23.094c-2.089,0-3.206-1.629-3.206-3.101c0-1.721,1.406-3.192,3.403-3.192
			c1.931,0,3.14,1.51,3.14,3.101C44.466,21.451,43.271,23.094,41.129,23.094z M42.771,22.03c0.315-0.421,0.394-0.946,0.394-1.459
			c0-1.156-0.552-3.364-2.181-3.364c-0.433,0-0.867,0.171-1.182,0.448c-0.512,0.459-0.604,1.038-0.604,1.603
			c0,1.3,0.643,3.441,2.234,3.441C41.944,22.699,42.469,22.45,42.771,22.03z"/>
		<path fill="#F9F9F9" d="M36.919,22.888l-1.889,0.436c-0.766,0.119-1.453,0.224-2.179,0.224c-3.646,0-5.033-2.682-5.033-4.782
			c0-2.562,1.968-4.939,5.337-4.939c0.714,0,1.4,0.105,2.021,0.277c0.991,0.277,1.453,0.621,1.744,0.819l-1.097,1.043l-0.462,0.105
			l0.33-0.528c-0.449-0.436-1.269-1.241-2.827-1.241c-2.087,0-3.659,1.586-3.659,3.897c0,2.483,1.797,4.821,4.676,4.821
			c0.846,0,1.281-0.172,1.678-0.33v-2.126l-1.994,0.106l1.055-0.57h2.801l-0.343,0.33c-0.093,0.08-0.106,0.106-0.132,0.211
			c-0.014,0.119-0.026,0.503-0.026,0.635L36.919,22.888L36.919,22.888z"/>
		<path fill="#F9F9F9" d="M60.71,22.508c-0.436-0.04-0.527-0.119-0.527-0.634v-0.145v-7.331c0.003-0.029,0.004-0.058,0.007-0.085
			c0.053-0.462,0.185-0.541,0.595-0.779h-1.89l-0.991,0.476h1.01v0.006l-0.001-0.005v7.719v0.436c0,0.264-0.052,0.304-0.356,0.7
			h2.338l0.489-0.29C61.16,22.547,60.935,22.534,60.71,22.508z"/>
		<path fill="#F9F9F9" d="M66.085,22.629c-0.144,0.079-0.288,0.171-0.432,0.236c-0.434,0.197-0.88,0.249-1.274,0.249
			c-0.419,0-1.075-0.027-1.745-0.512c-0.931-0.656-1.337-1.784-1.337-2.768c0-2.033,1.653-3.03,3.004-3.03
			c0.472,0,0.958,0.118,1.352,0.368c0.655,0.432,0.826,0.996,0.917,1.298l-3.082,1.247l-1.01,0.079
			c0.327,1.666,1.456,2.636,2.702,2.636c0.669,0,1.154-0.236,1.6-0.458L66.085,22.629z M64.852,18.719
			c0.249-0.092,0.38-0.17,0.38-0.354c0-0.524-0.59-1.128-1.299-1.128c-0.525,0-1.509,0.407-1.509,1.823
			c0,0.223,0.026,0.459,0.04,0.696L64.852,18.719z"/>
		<g>
			<path fill="#F9F9F9" d="M67.351,16.894v0.866h-0.105v-0.866H66.96v-0.09h0.678v0.09H67.351z"/>
			<path fill="#F9F9F9" d="M68.531,17.76v-0.874h-0.005L68.26,17.76h-0.082l-0.269-0.874h-0.003v0.874H67.81v-0.955h0.164
				l0.243,0.772h0.003l0.24-0.772h0.166v0.955H68.531z"/>
		</g>
	</g>
	<g>
		<path fill="#F9F9F9" d="M31.958,10.148h-1.241c0-0.171-0.118-0.654-0.353-1.45h-1.791c-0.243,0.783-0.364,1.266-0.364,1.45h-1.167
			c0-0.101,0.302-0.928,0.905-2.481s0.905-2.409,0.905-2.566h1.465c0,0.147,0.273,0.99,0.82,2.529
			C31.685,9.169,31.958,10.009,31.958,10.148z M30.167,7.958c-0.442-1.334-0.663-2.055-0.663-2.163h-0.062
			c0,0.101-0.229,0.822-0.686,2.163H30.167z"/>
		<path fill="#F9F9F9" d="M36.957,10.148h-0.958c0-0.106-0.355-0.665-1.066-1.679c-0.744-1.068-1.168-1.797-1.272-2.19H33.6
			c0.064,0.566,0.097,1.078,0.097,1.535c0,0.638,0.018,1.416,0.054,2.334h-0.954c0.039-0.801,0.058-1.681,0.058-2.64
			c0-0.943-0.019-1.746-0.058-2.407h1.151c0,0.137,0.319,0.684,0.958,1.64c0.68,1.016,1.07,1.704,1.171,2.066h0.058
			c-0.062-0.576-0.093-1.093-0.093-1.551c0-0.7-0.018-1.419-0.054-2.155h0.969c-0.036,0.641-0.054,1.444-0.054,2.407
			C36.903,8.48,36.921,9.36,36.957,10.148z"/>
		<path fill="#F9F9F9" d="M42.576,7.45c0,0.734-0.235,1.375-0.706,1.923c-0.47,0.548-1.13,0.822-1.977,0.822
			c-0.383,0-0.91-0.016-1.582-0.047c0.033-0.781,0.05-1.661,0.05-2.64c0-0.941-0.017-1.743-0.05-2.407h0.678
			c0.111,0,0.276-0.004,0.496-0.012c0.22-0.008,0.363-0.012,0.43-0.012c0.933,0,1.609,0.233,2.029,0.698
			C42.366,6.241,42.576,6.799,42.576,7.45z M41.518,7.617c0-0.496-0.145-0.914-0.434-1.254c-0.29-0.34-0.731-0.51-1.326-0.51
			c-0.111,0-0.264,0.012-0.457,0.035c0.026,0.517,0.039,1.057,0.039,1.62c0,0.618,0.013,1.23,0.039,1.838
			c0.168,0.033,0.336,0.05,0.504,0.05c0.556,0,0.967-0.173,1.235-0.518C41.384,8.534,41.518,8.113,41.518,7.617z"/>
		<path fill="#F9F9F9" d="M47.757,10.148h-1.148c-0.3-0.915-0.53-1.479-0.69-1.694S45.5,8.132,45.144,8.132
			c-0.15,0-0.293,0.001-0.43,0.004c0,0.664,0.012,1.335,0.035,2.012h-1.078c0.033-0.781,0.05-1.661,0.05-2.64
			c0-0.941-0.017-1.743-0.05-2.407h0.671c0.078,0,0.24-0.004,0.487-0.012c0.247-0.008,0.475-0.012,0.684-0.012
			c1.186,0,1.779,0.406,1.779,1.217c0,0.644-0.339,1.092-1.016,1.345v0.058c0.261,0.072,0.49,0.276,0.686,0.61
			C47.159,8.644,47.424,9.257,47.757,10.148z M46.303,6.582c0-0.514-0.331-0.771-0.992-0.771c-0.243,0-0.457,0.018-0.644,0.054
			c0.028,0.401,0.043,0.923,0.043,1.566c0.142,0.005,0.262,0.008,0.361,0.008C45.892,7.439,46.303,7.153,46.303,6.582z"/>
		<path fill="#F9F9F9" d="M53.314,7.532c0,0.793-0.243,1.451-0.729,1.973s-1.087,0.783-1.803,0.783c-0.682,0-1.254-0.24-1.714-0.719
			s-0.69-1.089-0.69-1.828c0-0.793,0.243-1.451,0.729-1.973s1.087-0.783,1.803-0.783c0.682,0,1.253,0.239,1.713,0.717
			C53.084,6.18,53.314,6.79,53.314,7.532z M52.244,7.644c0-0.54-0.138-0.978-0.415-1.314s-0.618-0.504-1.023-0.504
			c-0.377,0-0.698,0.169-0.961,0.508C49.581,6.673,49.45,7.1,49.45,7.617c0,0.537,0.139,0.975,0.417,1.312s0.618,0.506,1.022,0.506
			c0.377,0,0.698-0.17,0.961-0.51C52.112,8.585,52.244,8.158,52.244,7.644z"/>
		<path fill="#F9F9F9" d="M55.506,10.148h-1.097c0.033-0.801,0.05-1.681,0.05-2.64c0-0.943-0.017-1.746-0.05-2.407h1.097
			c-0.034,0.651-0.05,1.454-0.05,2.407C55.456,8.483,55.472,9.363,55.506,10.148z"/>
		<path fill="#F9F9F9" d="M61.125,7.45c0,0.734-0.235,1.375-0.706,1.923c-0.47,0.548-1.13,0.822-1.977,0.822
			c-0.383,0-0.91-0.016-1.582-0.047c0.033-0.781,0.05-1.661,0.05-2.64c0-0.941-0.017-1.743-0.05-2.407h0.678
			c0.111,0,0.277-0.004,0.496-0.012c0.22-0.008,0.363-0.012,0.43-0.012c0.933,0,1.609,0.233,2.029,0.698
			C60.915,6.241,61.125,6.799,61.125,7.45z M60.067,7.617c0-0.496-0.145-0.914-0.434-1.254c-0.29-0.34-0.731-0.51-1.326-0.51
			c-0.111,0-0.264,0.012-0.457,0.035c0.026,0.517,0.039,1.057,0.039,1.62c0,0.618,0.013,1.23,0.039,1.838
			c0.168,0.033,0.336,0.05,0.504,0.05c0.556,0,0.967-0.173,1.235-0.518C59.933,8.534,60.067,8.113,60.067,7.617z"/>
		<path fill="#F9F9F9" d="M68.58,10.148h-1.241c0-0.171-0.118-0.654-0.353-1.45h-1.791c-0.243,0.783-0.364,1.266-0.364,1.45h-1.167
			c0-0.101,0.302-0.928,0.905-2.481c0.603-1.553,0.905-2.409,0.905-2.566h1.465c0,0.147,0.273,0.99,0.82,2.529
			S68.58,10.009,68.58,10.148z M66.788,7.958c-0.442-1.334-0.663-2.055-0.663-2.163h-0.062c0,0.101-0.228,0.822-0.686,2.163H66.788z
			"/>
		<path fill="#F9F9F9" d="M73.102,6.423c0,0.618-0.229,1.074-0.688,1.368c-0.459,0.295-1.021,0.442-1.688,0.442
			c-0.122,0-0.208-0.002-0.26-0.008c0,0.486,0.014,1.127,0.043,1.923H69.42c0.033-0.747,0.05-1.627,0.05-2.64
			c0-0.93-0.017-1.733-0.05-2.407h0.675c0.095,0,0.279-0.004,0.55-0.012s0.506-0.012,0.706-0.012c0.491,0,0.906,0.111,1.244,0.333
			C72.932,5.633,73.102,5.971,73.102,6.423z M72.101,6.636c0-0.553-0.367-0.83-1.101-0.83c-0.184,0-0.377,0.019-0.582,0.058
			c0.029,0.488,0.043,1.041,0.043,1.659c0.064,0.005,0.14,0.008,0.225,0.008C71.63,7.532,72.101,7.233,72.101,6.636z"/>
		<path fill="#F9F9F9" d="M77.751,6.423c0,0.618-0.229,1.074-0.688,1.368c-0.459,0.295-1.022,0.442-1.688,0.442
			c-0.122,0-0.208-0.002-0.26-0.008c0,0.486,0.014,1.127,0.043,1.923h-1.089c0.033-0.747,0.05-1.627,0.05-2.64
			c0-0.93-0.017-1.733-0.05-2.407h0.675c0.095,0,0.279-0.004,0.55-0.012S75.8,5.077,76,5.077c0.491,0,0.906,0.111,1.244,0.333
			C77.582,5.633,77.751,5.971,77.751,6.423z M76.751,6.636c0-0.553-0.367-0.83-1.101-0.83c-0.184,0-0.377,0.019-0.581,0.058
			c0.029,0.488,0.043,1.041,0.043,1.659c0.064,0.005,0.14,0.008,0.225,0.008C76.279,7.532,76.751,7.233,76.751,6.636z"/>
		<path fill="#F9F9F9" d="M85.353,7.532c0,0.793-0.243,1.451-0.729,1.973s-1.087,0.783-1.803,0.783c-0.682,0-1.254-0.24-1.713-0.719
			c-0.46-0.479-0.69-1.089-0.69-1.828c0-0.793,0.243-1.451,0.729-1.973s1.087-0.783,1.803-0.783c0.682,0,1.254,0.239,1.713,0.717
			C85.123,6.18,85.353,6.79,85.353,7.532z M84.283,7.644c0-0.54-0.138-0.978-0.415-1.314s-0.618-0.504-1.023-0.504
			c-0.377,0-0.698,0.169-0.961,0.508C81.62,6.672,81.488,7.1,81.488,7.617c0,0.537,0.139,0.975,0.417,1.312s0.618,0.506,1.021,0.506
			c0.377,0,0.698-0.17,0.961-0.51C84.151,8.585,84.283,8.158,84.283,7.644z"/>
		<path fill="#F9F9F9" d="M90.608,10.148H89.65c0-0.106-0.355-0.665-1.066-1.679c-0.744-1.068-1.168-1.797-1.272-2.19H87.25
			c0.064,0.566,0.097,1.078,0.097,1.535c0,0.638,0.018,1.416,0.054,2.334h-0.954c0.039-0.801,0.058-1.681,0.058-2.64
			c0-0.943-0.019-1.746-0.058-2.407H87.6c0,0.137,0.319,0.684,0.958,1.64c0.68,1.016,1.07,1.704,1.171,2.066h0.058
			c-0.062-0.576-0.093-1.093-0.093-1.551c0-0.7-0.018-1.419-0.054-2.155h0.969c-0.036,0.641-0.054,1.444-0.054,2.407
			C90.554,8.48,90.572,9.36,90.608,10.148z"/>
	</g>
</g>
</svg>
