<?xml version="1.0" encoding="utf-8"?>
<!-- Generator: Adobe Illustrator 17.0.0, SVG Export Plug-In . SVG Version: 6.00 Build 0)  -->
<!DOCTYPE svg PUBLIC "-//W3C//DTD SVG 1.1//EN" "http://www.w3.org/Graphics/SVG/1.1/DTD/svg11.dtd">
<svg version="1.1" id="Layer_1" xmlns="http://www.w3.org/2000/svg" xmlns:xlink="http://www.w3.org/1999/xlink" x="0px" y="0px"
	 width="480px" height="480px" viewBox="0 0 480 480" enable-background="new 0 0 480 480" xml:space="preserve">
<g id="Layer_1_1_">
	<g>
		<g>
			<path fill="#CCCCCC" d="M287.418,214.4c-6.303,0-9.453,4.531-9.453,13.594s3.15,13.594,9.453,13.594
				c2.916,0,5.168-1.119,6.758-3.359c1.588-2.239,2.383-5.598,2.383-10.078C296.559,218.984,293.512,214.4,287.418,214.4z
				 M268.355,298.541c0,2.5,1.354,4.518,4.063,6.055c2.707,1.535,6.328,2.305,10.859,2.305c7.395,0,13.32-0.926,17.773-2.773
				c4.453-1.85,6.68-4.232,6.68-7.148c0-2.344-1.355-3.998-4.063-4.961c-2.709-0.965-6.59-1.445-11.641-1.445h-11.953
				c-3.281,0-6.055,0.768-8.32,2.305C269.488,294.412,268.355,296.301,268.355,298.541z M189.918,220.182
				c-4.688,0-8.047,1.914-10.078,5.742s-3.047,9.545-3.047,17.148c0,7.604,1.016,13.398,3.047,17.383s5.442,5.977,10.234,5.977
				c4.739,0,8.086-1.992,10.039-5.977s2.93-9.778,2.93-17.383c0-7.551-0.99-13.254-2.969-17.109
				C198.094,222.109,194.709,220.182,189.918,220.182z M388.824,220.182c-4.688,0-8.047,1.914-10.078,5.742
				s-3.047,9.545-3.047,17.148c0,7.604,1.016,13.398,3.047,17.383s5.441,5.977,10.234,5.977c4.738,0,8.086-1.992,10.039-5.977
				s2.93-9.778,2.93-17.383c0-7.551-0.99-13.254-2.969-17.109C397,222.109,393.615,220.182,388.824,220.182z M240,6
				C110.765,6,6,110.765,6,240s104.765,234,234,234s234-104.765,234-234S369.235,6,240,6z M133.121,287.525H58.277V173.307h30.859
				v89.297h43.984v24.921H133.121z M222.457,276.939c-7.787,8.1-18.686,12.148-32.695,12.148c-13.438,0-24.128-4.141-32.07-12.422
				c-7.943-8.281-11.914-19.479-11.914-33.594c0-14.426,3.893-25.637,11.68-33.633c7.786-7.994,18.711-11.992,32.773-11.992
				c8.697,0,16.379,1.85,23.047,5.547c6.666,3.699,11.809,8.998,15.43,15.898c3.619,6.902,5.43,14.961,5.43,24.18
				C234.137,257.552,230.243,268.841,222.457,276.939z M335.074,213.775l-12.109,4.453c1.666,3.021,2.5,6.537,2.5,10.547
				c0,9.531-3.348,16.928-10.039,22.188c-6.693,5.261-16.68,7.891-29.961,7.891c-3.281,0-5.887-0.208-7.813-0.625
				c-0.73,1.354-1.094,2.631-1.094,3.828c0,1.511,1.223,2.67,3.672,3.477c2.447,0.808,5.65,1.211,9.609,1.211h14.688
				c19.844,0,29.766,8.359,29.766,25.078c0,10.781-4.598,19.166-13.789,25.156c-9.193,5.988-22.098,8.984-38.711,8.984
				c-12.553,0-22.227-2.098-29.023-6.289c-6.797-4.193-10.195-10.223-10.195-18.086c0-10.574,6.563-17.395,19.688-20.469
				c-2.709-1.145-5.066-2.994-7.07-5.547c-2.006-2.551-3.008-5.078-3.008-7.578c0-2.76,0.754-5.195,2.266-7.305
				c1.51-2.109,4.66-4.622,9.453-7.539c-4.584-2.031-8.191-5.208-10.82-9.531c-2.631-4.322-3.945-9.583-3.945-15.781
				c0-9.635,3.281-17.109,9.844-22.422s15.938-7.969,28.125-7.969c1.613,0,4.4,0.183,8.359,0.547
				c3.957,0.365,6.875,0.703,8.75,1.016h30.859v14.765H335.074z M388.668,289.088c-13.438,0-24.129-4.141-32.07-12.422
				c-7.943-8.281-11.914-19.479-11.914-33.594c0-14.426,3.893-25.637,11.68-33.633c7.785-7.994,18.711-11.992,32.773-11.992
				c8.697,0,16.379,1.85,23.047,5.547c6.666,3.699,11.809,8.998,15.43,15.898c3.619,6.902,5.43,14.961,5.43,24.18
				c0,14.479-3.895,25.769-11.68,33.867C413.576,285.039,402.678,289.088,388.668,289.088z"/>
		</g>
		<g>
			<path fill="none" stroke="#666666" stroke-width="5" stroke-miterlimit="10" d="M287.418,214.4
				c-6.303,0-9.453,4.531-9.453,13.594s3.15,13.594,9.453,13.594c2.916,0,5.168-1.119,6.758-3.359
				c1.588-2.239,2.383-5.598,2.383-10.078C296.559,218.984,293.512,214.4,287.418,214.4z M268.355,298.541
				c0,2.5,1.354,4.518,4.063,6.055c2.707,1.535,6.328,2.305,10.859,2.305c7.395,0,13.32-0.926,17.773-2.773
				c4.453-1.85,6.68-4.232,6.68-7.148c0-2.344-1.355-3.998-4.063-4.961c-2.709-0.965-6.59-1.445-11.641-1.445h-11.953
				c-3.281,0-6.055,0.768-8.32,2.305C269.488,294.412,268.355,296.301,268.355,298.541z M189.918,220.182
				c-4.688,0-8.047,1.914-10.078,5.742s-3.047,9.545-3.047,17.148c0,7.604,1.016,13.398,3.047,17.383s5.442,5.977,10.234,5.977
				c4.739,0,8.086-1.992,10.039-5.977s2.93-9.778,2.93-17.383c0-7.551-0.99-13.254-2.969-17.109
				C198.094,222.109,194.709,220.182,189.918,220.182z M388.824,220.182c-4.688,0-8.047,1.914-10.078,5.742
				s-3.047,9.545-3.047,17.148c0,7.604,1.016,13.398,3.047,17.383s5.441,5.977,10.234,5.977c4.738,0,8.086-1.992,10.039-5.977
				s2.93-9.778,2.93-17.383c0-7.551-0.99-13.254-2.969-17.109C397,222.109,393.615,220.182,388.824,220.182z M240,6
				C110.765,6,6,110.765,6,240s104.765,234,234,234s234-104.765,234-234S369.235,6,240,6z M133.121,287.525H58.277V173.307h30.859
				v89.297h43.984v24.921H133.121z M222.457,276.939c-7.787,8.1-18.686,12.148-32.695,12.148c-13.438,0-24.128-4.141-32.07-12.422
				c-7.943-8.281-11.914-19.479-11.914-33.594c0-14.426,3.893-25.637,11.68-33.633c7.786-7.994,18.711-11.992,32.773-11.992
				c8.697,0,16.379,1.85,23.047,5.547c6.666,3.699,11.809,8.998,15.43,15.898c3.619,6.902,5.43,14.961,5.43,24.18
				C234.137,257.552,230.243,268.841,222.457,276.939z M335.074,213.775l-12.109,4.453c1.666,3.021,2.5,6.537,2.5,10.547
				c0,9.531-3.348,16.928-10.039,22.188c-6.693,5.261-16.68,7.891-29.961,7.891c-3.281,0-5.887-0.208-7.813-0.625
				c-0.73,1.354-1.094,2.631-1.094,3.828c0,1.511,1.223,2.67,3.672,3.477c2.447,0.808,5.65,1.211,9.609,1.211h14.688
				c19.844,0,29.766,8.359,29.766,25.078c0,10.781-4.598,19.166-13.789,25.156c-9.193,5.988-22.098,8.984-38.711,8.984
				c-12.553,0-22.227-2.098-29.023-6.289c-6.797-4.193-10.195-10.223-10.195-18.086c0-10.574,6.563-17.395,19.688-20.469
				c-2.709-1.145-5.066-2.994-7.07-5.547c-2.006-2.551-3.008-5.078-3.008-7.578c0-2.76,0.754-5.195,2.266-7.305
				c1.51-2.109,4.66-4.622,9.453-7.539c-4.584-2.031-8.191-5.208-10.82-9.531c-2.631-4.322-3.945-9.583-3.945-15.781
				c0-9.635,3.281-17.109,9.844-22.422s15.938-7.969,28.125-7.969c1.613,0,4.4,0.183,8.359,0.547
				c3.957,0.365,6.875,0.703,8.75,1.016h30.859v14.765H335.074z M388.668,289.088c-13.438,0-24.129-4.141-32.07-12.422
				c-7.943-8.281-11.914-19.479-11.914-33.594c0-14.426,3.893-25.637,11.68-33.633c7.785-7.994,18.711-11.992,32.773-11.992
				c8.697,0,16.379,1.85,23.047,5.547c6.666,3.699,11.809,8.998,15.43,15.898c3.619,6.902,5.43,14.961,5.43,24.18
				c0,14.479-3.895,25.769-11.68,33.867C413.576,285.039,402.678,289.088,388.668,289.088z"/>
		</g>
	</g>
</g>
</svg>
